P2
124 124
255
25
44
21
14
66
21
21
33
6
10
6
16
4
10
6
55
42
10
55
0
50
59
0
17
6
8
19
8
19
0
10
10
68
0
0
36
27
2
0
0
14
27
0
2
25
2
10
40
17
10
0
0
0
0
0
57
51
0
0
78
17
8
6
0
55
0
53
14
10
12
31
23
0
46
4
0
40
31
10
50
19
34
0
12
0
12
38
74
12
0
12
21
0
6
12
80
8
61
0
0
25
14
12
65
0
4
6
14
10
2
0
0
0
4
0
33
0
6
10
21
87
0
4
4
2
17
8
0
4
38
25
17
36
0
0
40
14
21
14
0
0
0
0
0
0
25
12
0
0
29
29
70
33
4
6
0
0
34
2
64
8
27
0
44
0
44
14
0
6
8
0
4
23
2
0
2
16
10
2
29
46
0
59
112
25
36
17
42
8
0
10
19
12
34
59
51
0
16
61
0
0
0
0
12
8
25
6
2
4
0
17
4
10
21
0
6
17
29
19
10
8
4
48
2
0
0
55
25
55
0
10
0
17
4
17
14
2
51
29
36
0
10
0
19
19
8
8
0
0
10
29
67
27
19
34
14
14
12
0
0
14
0
4
0
10
0
0
0
0
6
27
17
4
21
0
19
33
17
6
31
36
4
21
19
25
74
40
8
23
6
16
0
34
14
4
14
4
23
40
19
0
14
2
53
10
8
8
118
46
70
42
66
21
31
82
19
0
38
10
8
44
10
0
14
10
32
42
0
0
2
23
10
0
40
14
0
4
6
0
8
6
0
17
4
8
4
25
4
2
17
66
14
0
12
42
12
33
34
17
2
23
42
61
17
23
23
0
38
0
4
4
19
0
108
0
14
108
74
0
34
2
31
17
0
27
0
55
0
6
0
0
0
38
0
23
0
12
2
0
17
23
17
6
42
25
51
0
42
65
21
93
2
4
0
0
16
12
25
12
0
8
2
55
0
0
21
4
8
0
23
0
99
80
140
121
91
4
12
6
89
81
61
14
61
0
8
0
0
23
0
0
10
4
8
36
6
16
2
40
8
14
0
6
10
10
10
14
17
0
2
0
6
59
14
2
29
44
19
46
50
19
31
17
93
110
147
161
36
49
34
27
2
12
23
51
53
6
0
4
25
17
57
36
33
34
40
29
16
0
57
0
10
0
34
25
23
0
0
10
0
2
67
4
49
36
50
63
4
68
19
17
6
16
76
136
117
102
59
46
2
19
76
0
2
14
2
4
12
0
10
14
6
34
4
12
0
23
68
87
153
63
2
51
8
4
2
0
0
0
8
2
0
25
0
4
4
8
40
2
0
0
0
23
4
0
6
6
0
19
16
34
12
0
46
0
23
25
0
27
6
17
2
17
29
0
21
34
27
25
110
63
65
23
23
19
10
0
0
6
4
12
40
17
23
38
19
6
0
33
6
29
6
6
27
8
0
6
12
0
4
8
17
0
27
33
14
4
29
17
29
10
8
27
0
0
46
10
10
59
53
8
10
25
17
44
4
40
4
44
16
16
19
36
19
0
0
0
12
8
21
34
57
93
213
97
34
0
6
6
0
21
17
31
4
27
12
27
44
29
2
8
46
38
2
6
14
42
6
27
12
0
0
25
8
2
19
29
38
0
4
17
17
0
59
14
4
0
68
6
10
112
87
2
23
53
0
8
4
2
10
0
0
2
34
8
2
27
25
44
57
23
19
19
38
17
12
0
0
0
0
31
0
12
2
2
32
29
2
23
17
0
2
0
10
50
10
50
6
0
29
2
99
23
19
40
33
6
12
0
21
0
0
10
21
6
0
42
49
12
0
29
0
51
17
53
19
19
116
2
14
6
10
4
14
23
31
0
23
48
0
53
6
12
0
2
6
10
6
0
0
59
8
10
0
2
0
21
2
25
4
19
6
0
0
0
2
0
44
74
10
34
8
4
36
57
104
40
17
2
10
0
0
2
14
10
8
21
59
8
10
34
34
8
29
46
25
0
44
8
0
12
12
19
0
0
21
38
0
2
0
2
49
4
17
12
23
0
6
0
0
76
2
16
34
21
25
40
0
23
8
29
29
17
12
17
0
46
0
25
19
4
48
12
25
8
6
0
19
32
0
6
46
4
0
80
34
23
36
17
34
27
12
2
46
14
12
25
4
4
4
12
6
12
0
4
6
0
25
4
0
0
2
33
32
14
14
2
6
46
0
12
4
27
4
44
81
29
33
33
40
23
12
0
6
46
38
0
25
0
23
0
0
36
25
0
0
10
59
63
78
82
17
0
29
4
19
19
42
46
17
0
36
0
0
17
40
21
0
61
29
0
36
55
10
0
0
17
25
14
25
51
61
21
48
0
27
29
0
32
17
23
16
10
14
0
0
19
34
19
8
27
10
82
8
6
2
12
36
0
16
4
27
4
27
6
27
14
2
2
4
2
61
0
19
23
4
0
0
12
12
0
2
19
19
0
10
10
0
0
4
4
40
0
0
12
12
55
50
89
163
153
110
96
82
19
33
38
0
14
63
17
19
2
16
12
0
17
4
12
23
34
80
84
150
152
31
51
8
25
40
0
0
4
6
25
23
0
0
29
2
0
23
14
17
6
6
14
0
0
4
36
0
16
4
53
8
8
29
2
4
17
44
51
23
2
70
0
46
6
27
2
34
48
23
10
40
27
14
0
0
27
48
33
12
27
8
6
16
0
4
27
8
0
4
4
4
19
0
0
23
4
6
21
0
19
23
0
44
0
44
49
14
21
27
12
6
40
0
0
0
0
101
155
189
189
163
117
19
0
2
19
4
17
6
2
19
63
2
57
2
57
14
6
12
8
84
119
229
198
102
8
12
2
8
17
2
0
49
0
0
0
4
34
40
8
2
6
6
2
17
82
10
14
4
14
19
19
16
27
10
8
19
10
10
10
2
0
0
23
42
2
0
0
2
0
46
0
0
33
12
19
12
0
19
84
36
0
0
4
34
6
0
23
16
6
34
34
23
10
0
34
0
0
0
4
0
38
2
0
40
4
6
10
34
53
17
12
21
4
17
16
4
55
12
70
142
157
167
193
176
119
83
17
8
8
44
21
17
2
14
4
19
33
25
46
8
12
6
17
6
147
244
240
144
40
34
12
6
2
16
14
8
0
14
4
0
25
0
10
2
0
0
10
40
53
27
2
0
17
2
0
49
50
27
8
23
0
4
14
12
33
19
23
0
36
19
46
2
31
10
61
6
12
10
23
0
0
0
10
42
17
14
0
0
4
34
8
0
4
61
14
14
4
4
6
27
4
8
0
4
0
0
6
0
4
14
17
0
27
115
10
23
29
2
4
32
16
27
101
96
91
76
119
104
72
46
8
19
16
53
25
27
0
0
102
40
6
0
10
2
17
17
14
48
125
249
254
187
66
61
23
4
16
19
44
0
0
17
6
36
4
0
31
2
0
10
51
38
36
14
0
29
29
17
46
19
44
76
10
10
31
2
2
23
8
21
40
21
46
0
2
2
17
21
0
14
0
19
10
6
16
0
21
21
12
0
2
4
51
6
0
4
17
25
46
32
0
0
55
17
4
53
38
8
38
16
12
27
0
16
14
44
8
74
29
10
12
19
6
70
61
49
68
38
49
91
10
17
42
46
0
21
0
10
4
0
0
4
0
0
19
48
2
14
2
4
0
93
133
247
254
217
51
36
65
8
12
0
0
0
61
27
29
57
6
8
0
2
21
42
8
10
8
0
2
36
0
0
0
0
0
2
23
16
2
10
29
12
4
0
27
0
8
0
0
0
8
6
10
2
19
2
34
27
29
12
0
6
0
34
2
0
17
4
0
8
0
4
17
2
6
87
196
72
2
10
17
91
42
48
17
36
0
29
25
21
21
59
23
10
38
25
0
0
14
6
0
53
17
61
2
2
38
23
61
0
4
8
14
0
27
0
0
6
0
0
48
51
6
21
6
31
118
229
254
221
117
10
0
8
0
2
2
14
0
4
21
4
0
17
12
34
0
8
0
2
0
12
14
51
27
0
72
0
2
2
21
42
0
0
17
0
4
0
29
0
10
106
14
8
2
0
14
12
0
14
0
40
0
4
57
25
55
31
0
51
72
65
0
42
2
8
2
14
4
53
96
19
4
46
0
14
29
2
0
2
61
206
155
36
12
48
29
68
25
2
0
44
17
4
19
2
40
34
0
0
4
19
0
4
55
4
34
14
59
0
36
0
0
0
6
6
23
21
19
0
74
192
249
221
101
19
12
0
0
23
44
0
0
19
2
4
0
0
44
0
4
0
0
61
51
0
12
6
27
8
0
0
2
27
10
8
6
0
6
14
21
6
0
0
51
23
4
2
0
8
4
0
29
19
2
36
0
6
21
12
4
63
6
42
53
17
33
6
50
6
21
8
19
57
32
0
53
23
34
29
46
53
66
0
44
252
217
81
6
0
82
57
36
29
0
14
6
12
14
6
2
23
14
27
0
4
6
0
42
27
55
10
25
6
2
14
8
6
6
8
6
0
46
67
57
150
250
232
93
48
8
40
19
0
21
19
0
14
0
0
2
8
0
8
0
17
0
31
55
59
51
12
59
59
0
23
17
50
14
19
42
6
17
42
17
6
4
14
16
0
0
0
14
0
0
27
27
25
42
17
2
34
44
0
14
33
61
66
12
0
12
12
34
0
27
0
21
0
46
0
2
0
4
36
49
23
65
31
83
233
195
150
12
36
23
14
2
0
4
64
14
0
17
4
29
14
6
6
0
0
8
46
0
29
2
6
23
0
2
6
2
6
0
0
12
8
4
6
8
149
199
233
117
12
16
8
0
12
14
0
4
25
0
0
0
4
12
2
21
0
0
19
6
6
67
29
74
61
21
19
53
34
17
4
0
0
40
32
4
36
4
27
14
0
0
33
0
10
10
0
0
0
4
27
23
25
0
6
72
21
74
34
23
0
14
6
4
2
55
25
31
6
40
19
0
0
38
2
19
0
85
0
29
167
203
187
70
14
0
48
0
33
29
10
6
0
2
2
19
0
8
59
6
48
2
8
0
0
23
14
4
6
8
0
25
0
0
4
42
40
48
0
46
27
130
153
76
2
36
6
0
0
2
29
42
10
17
10
16
4
6
0
31
10
2
31
6
21
0
4
4
53
2
31
0
76
27
10
0
10
21
19
23
0
12
4
2
23
49
63
0
23
2
14
4
17
16
2
40
4
4
0
0
2
55
40
36
0
31
44
113
53
19
23
31
29
0
4
4
10
0
6
8
34
2
31
16
144
208
195
85
32
10
2
34
6
0
8
4
2
42
0
4
0
19
0
2
19
27
2
0
0
25
23
0
0
2
48
0
4
25
19
16
0
0
25
25
46
32
104
29
78
50
19
40
12
19
10
8
4
10
16
48
14
0
2
2
0
8
10
10
0
14
42
2
57
42
6
4
8
8
12
0
14
8
0
46
0
0
40
36
74
25
0
25
16
0
2
0
0
38
4
10
12
27
12
59
0
0
46
0
0
0
16
17
29
0
6
6
0
19
2
8
55
2
34
34
0
12
31
49
70
38
153
10
29
12
0
2
10
16
0
8
14
12
2
4
0
0
21
0
42
0
4
19
8
0
8
50
10
0
12
14
10
6
6
2
0
0
0
0
6
4
50
53
8
21
10
53
14
6
12
25
0
46
0
14
0
23
4
61
0
0
10
4
2
19
0
29
0
6
25
2
0
8
0
25
0
32
0
0
4
0
0
57
0
46
0
8
12
38
38
0
40
10
8
25
0
38
2
17
29
0
67
0
0
25
10
19
10
17
4
12
29
21
51
0
0
10
23
67
2
0
29
0
2
91
33
91
50
8
6
10
68
0
78
32
4
70
29
23
38
21
6
27
27
6
16
0
2
8
0
0
14
40
0
0
14
0
0
4
12
4
0
0
6
19
0
34
6
23
14
19
0
17
0
0
14
4
23
0
19
4
0
0
8
10
2
0
0
8
66
6
27
10
23
14
63
0
2
4
8
46
25
6
40
46
38
113
72
40
0
40
6
10
10
12
2
0
23
0
6
25
21
61
17
23
6
53
42
12
0
14
8
10
4
19
2
2
4
21
17
40
17
14
8
16
14
12
21
0
23
8
27
2
0
17
0
8
2
25
4
2
8
53
25
25
34
4
0
2
0
0
4
12
50
0
0
0
32
44
80
19
29
19
17
61
17
0
21
33
0
2
8
2
19
0
0
19
8
19
0
6
0
34
17
21
6
10
64
8
10
31
14
0
27
0
72
0
0
12
85
19
6
21
0
40
0
42
8
51
0
67
40
21
6
10
0
0
27
0
4
0
42
2
4
6
34
0
6
0
0
50
51
10
29
4
16
0
0
12
6
0
6
2
23
2
38
6
48
34
21
36
0
59
2
4
46
36
38
17
4
6
4
33
19
0
6
36
102
19
36
17
6
0
12
2
6
17
8
21
4
6
0
4
0
34
0
6
6
0
4
6
38
2
10
0
0
2
40
2
0
12
33
0
23
42
36
19
27
12
2
8
17
14
12
10
57
14
32
6
0
42
8
6
0
10
0
12
0
14
8
4
12
85
27
6
40
32
0
6
4
2
44
36
2
4
27
8
2
0
0
70
10
31
44
6
4
42
4
12
12
0
46
6
32
27
21
27
8
19
0
14
34
6
8
0
16
29
0
6
25
110
10
21
0
40
0
2
2
27
0
85
189
102
6
4
4
0
17
17
0
4
4
29
8
0
2
4
8
0
64
12
0
0
0
27
16
34
27
0
6
0
44
17
10
17
31
0
0
12
0
2
14
42
0
6
19
21
44
23
6
17
23
0
0
10
14
0
4
14
10
51
23
8
10
2
27
4
10
23
4
0
8
23
38
140
38
59
0
36
23
0
25
6
2
6
2
10
8
27
0
4
29
27
8
25
25
16
42
0
4
23
0
40
0
6
4
8
2
0
8
4
61
17
68
12
36
2
27
2
2
0
6
0
17
78
110
84
40
0
27
8
31
8
32
0
10
55
0
40
64
27
61
12
17
10
0
34
59
17
36
42
6
33
16
36
21
2
25
2
12
4
49
0
4
6
0
33
14
23
6
0
14
6
8
19
29
0
0
27
42
59
46
14
16
0
12
4
12
25
6
0
14
2
36
6
0
76
44
76
33
17
6
8
8
6
0
6
12
0
27
0
34
4
4
50
23
16
0
0
0
14
12
14
23
55
31
0
27
27
17
40
46
12
34
29
4
0
40
0
40
4
29
0
32
53
29
17
0
12
53
49
2
51
0
21
4
23
17
34
6
10
6
0
0
34
21
2
42
6
19
0
14
21
34
0
4
6
125
148
51
61
4
0
0
0
44
21
97
6
49
0
2
0
2
2
0
33
0
21
34
19
42
110
116
125
51
36
57
21
14
29
12
0
6
16
55
0
10
14
23
19
4
96
29
25
29
0
12
2
6
12
2
0
6
38
44
17
10
8
46
10
12
2
0
23
17
0
0
6
0
27
6
12
25
19
0
2
61
53
27
8
21
8
23
0
10
19
8
19
2
6
6
34
4
44
70
23
0
0
0
33
12
31
14
6
0
4
0
12
65
4
8
0
6
21
25
0
17
6
17
42
14
102
17
16
21
23
21
23
0
16
0
0
4
0
10
10
42
2
34
31
29
4
78
49
160
170
162
110
55
89
72
0
14
19
2
0
2
27
0
51
25
27
19
25
0
21
4
0
14
0
2
21
0
2
65
19
53
12
10
17
0
2
2
25
0
2
38
14
4
2
31
55
32
17
23
19
8
23
0
6
31
2
42
0
0
6
16
0
2
29
0
27
2
8
6
2
38
8
0
0
42
19
4
14
4
0
10
31
0
23
12
2
8
0
17
48
48
17
0
10
36
19
6
10
38
59
12
2
0
17
10
4
46
0
4
2
12
0
0
4
6
19
21
10
0
0
59
50
76
106
115
19
2
27
0
4
0
2
2
0
29
0
4
0
8
14
50
12
0
4
25
6
19
57
17
33
31
50
0
0
2
4
21
10
0
8
34
8
0
6
0
66
53
6
8
38
0
2
36
2
8
29
55
27
29
19
23
6
6
10
0
25
10
38
12
0
17
8
0
17
36
19
29
0
0
21
14
19
34
4
0
0
0
14
2
27
0
6
27
8
21
6
0
44
8
10
2
16
6
0
6
8
2
8
10
40
17
23
0
0
0
21
0
0
4
8
21
27
2
6
16
27
0
19
55
34
0
42
12
21
2
12
0
4
0
0
0
0
10
17
51
6
2
21
4
21
0
14
84
31
38
17
21
6
10
2
0
34
31
0
14
31
46
17
72
135
48
0
4
2
8
0
0
44
38
0
12
33
4
2
21
23
0
6
0
12
8
0
42
8
2
31
19
23
23
0
17
6
0
2
23
8
0
14
29
2
0
33
29
2
59
0
10
85
25
50
0
0
44
0
0
12
6
4
0
46
6
14
31
40
34
4
0
4
10
27
0
10
10
0
0
8
2
6
0
0
0
50
19
2
76
42
2
0
27
12
0
14
25
0
12
29
48
0
17
2
4
4
0
12
17
29
150
202
106
14
34
68
34
96
87
33
16
59
14
53
76
36
82
147
0
0
0
59
34
23
34
6
34
8
0
25
2
6
17
2
27
0
0
27
12
38
2
0
2
0
25
10
36
57
4
0
0
0
44
38
0
0
4
10
4
4
0
29
48
0
0
2
46
29
0
36
29
6
10
8
0
29
21
68
93
59
78
0
0
57
21
59
42
17
0
0
36
6
0
17
8
19
6
0
16
48
17
2
74
2
2
6
36
6
36
40
0
8
19
4
12
0
17
8
0
0
6
17
0
12
12
8
2
0
63
21
89
162
186
100
17
0
29
48
8
40
138
170
38
0
70
14
8
8
27
0
4
34
0
14
4
10
8
63
14
10
42
27
2
10
10
16
17
10
0
34
10
0
0
29
6
6
2
4
0
17
29
4
8
0
33
0
36
51
8
0
8
6
8
21
34
8
14
0
64
6
19
6
106
38
8
40
40
12
4
0
17
2
0
6
19
63
34
2
27
6
44
2
44
29
12
49
2
21
42
0
23
21
0
0
0
6
2
2
0
21
6
21
0
10
14
6
8
40
16
21
85
12
36
23
29
138
189
23
59
51
0
2
0
0
135
155
34
21
4
2
14
12
23
0
10
51
0
29
17
50
29
59
6
0
17
14
2
0
16
6
0
8
4
0
42
0
14
29
23
23
19
42
19
34
2
8
34
46
59
23
25
8
14
4
4
10
0
10
14
0
63
2
0
21
19
32
93
51
42
8
25
16
21
6
34
16
0
6
0
23
66
36
12
6
0
29
0
25
36
21
0
0
44
25
29
0
0
27
10
0
2
0
21
51
10
10
0
8
21
8
51
6
34
46
27
34
46
23
91
70
40
84
14
0
61
4
2
12
127
51
63
8
0
0
4
0
0
12
23
10
4
27
12
0
0
19
25
6
0
0
0
25
0
17
0
44
38
33
12
2
17
14
2
2
0
2
4
0
4
12
4
10
14
27
25
0
57
46
21
76
0
6
0
0
40
0
0
4
4
8
57
36
12
0
10
4
0
0
55
0
8
0
25
0
78
4
0
0
12
19
85
23
14
14
25
42
0
0
76
19
0
25
4
4
4
6
0
0
0
0
0
0
0
4
0
33
23
0
48
2
27
65
55
72
34
4
0
4
36
27
27
23
78
72
6
0
4
12
0
27
6
23
16
25
147
0
12
21
0
12
0
2
0
51
10
0
0
14
0
0
87
6
29
42
0
36
10
0
10
59
0
4
2
12
14
12
98
85
50
14
4
21
0
12
34
2
0
4
14
21
23
0
14
2
0
34
4
10
14
0
0
12
0
0
25
14
8
44
53
21
49
46
19
14
12
0
0
68
27
0
0
0
33
10
2
17
0
2
0
51
16
4
4
0
0
0
21
19
4
6
31
19
8
12
17
8
27
36
8
27
29
23
0
12
67
14
102
40
44
6
8
2
21
6
25
4
12
57
153
32
6
6
2
8
2
0
14
0
8
27
44
0
2
4
40
6
21
50
6
34
27
0
16
36
27
12
10
32
10
40
72
180
81
14
0
2
4
2
2
27
10
12
0
57
61
38
12
0
8
0
6
14
0
25
0
2
14
6
0
46
6
14
0
6
6
10
0
27
6
0
8
2
25
42
0
27
2
23
23
8
0
2
34
57
2
10
0
0
10
4
2
4
12
0
12
0
8
29
44
17
17
8
17
2
21
8
4
0
55
44
57
19
16
19
4
17
0
6
14
0
48
10
50
68
0
0
38
4
8
10
0
8
6
27
14
19
25
0
0
27
89
10
25
14
23
46
31
6
27
12
57
0
44
57
248
236
91
21
0
0
0
50
0
0
4
10
21
132
206
57
0
19
4
4
0
4
0
0
0
10
29
0
21
10
2
10
8
6
65
33
32
93
4
25
0
16
4
0
2
25
12
0
0
34
40
6
23
0
0
0
8
16
14
29
0
21
0
6
10
0
10
17
0
0
0
0
2
25
6
0
0
4
0
0
0
23
85
4
0
0
6
4
8
51
74
0
2
0
34
4
27
44
8
2
0
0
14
12
17
2
14
0
14
0
6
10
2
0
0
16
61
61
0
32
8
0
34
61
233
138
27
25
4
27
2
49
59
74
38
0
36
6
51
89
98
2
8
0
0
32
4
2
29
0
0
27
10
29
0
0
23
0
0
27
6
40
8
21
33
0
89
12
29
2
6
46
2
21
42
27
0
16
0
32
25
4
4
6
4
19
0
0
4
10
17
29
17
4
0
40
50
50
14
0
21
16
25
0
50
55
125
0
38
42
6
4
44
104
123
12
4
57
17
63
6
38
8
21
12
0
23
8
25
8
64
21
2
36
6
0
34
6
38
17
8
0
34
21
0
82
32
12
119
21
48
29
10
6
14
10
2
97
55
21
0
4
0
8
0
8
34
0
10
42
27
0
4
0
21
16
8
6
16
6
8
4
0
51
0
0
0
2
14
0
4
68
31
23
14
78
12
2
0
36
0
8
10
12
12
14
10
8
19
6
59
68
42
0
0
27
12
25
17
48
6
4
31
36
6
0
16
27
0
14
108
29
4
0
50
46
31
40
12
44
0
76
0
57
8
6
21
0
40
6
16
12
0
29
14
23
0
10
38
0
4
0
21
16
12
0
0
8
12
17
4
27
33
0
8
0
0
49
2
0
6
8
4
2
0
0
27
21
6
12
0
2
0
0
4
4
0
19
0
0
0
21
27
0
6
14
0
12
46
51
0
2
4
2
27
8
0
6
21
10
23
0
17
8
21
0
10
2
10
34
4
48
6
19
29
6
65
4
55
2
19
12
0
6
4
8
0
31
0
12
0
2
23
53
0
66
12
12
25
46
2
6
53
2
8
10
27
51
14
38
0
0
42
29
6
0
44
8
0
6
53
0
2
17
0
32
14
6
2
19
8
17
21
19
23
6
0
12
10
8
8
0
33
32
10
0
85
0
6
0
0
0
4
6
4
12
0
0
17
8
0
2
25
4
6
4
0
2
0
14
19
2
2
0
65
6
25
78
2
21
32
4
34
0
51
16
25
53
0
2
0
8
8
0
19
6
19
0
4
19
0
0
67
25
36
36
42
12
0
36
32
2
0
0
4
21
2
29
42
32
16
17
27
14
48
0
0
2
21
46
70
101
106
78
81
59
76
10
17
0
2
14
0
2
17
36
4
8
0
0
67
10
0
14
2
8
2
44
6
4
0
10
12
38
2
4
0
38
110
34
25
4
19
6
0
0
10
2
0
16
0
16
12
14
2
8
8
0
12
12
0
14
38
29
8
36
0
32
2
8
42
25
25
12
34
27
12
10
16
0
0
4
44
2
0
0
8
12
21
6
0
16
6
12
6
23
23
17
40
0
19
0
6
8
4
25
17
10
14
0
19
25
4
2
23
34
87
33
21
6
40
23
16
17
151
53
101
108
17
10
6
21
14
50
2
12
33
21
17
16
21
8
27
17
0
0
0
38
2
2
2
0
29
4
0
14
0
14
0
0
21
4
29
113
14
8
0
14
0
0
6
8
2
4
0
16
0
2
34
6
14
6
0
36
4
55
19
27
0
0
65
10
31
6
19
0
16
0
0
6
0
12
2
0
8
31
19
0
8
2
38
14
6
8
19
21
29
14
42
4
36
10
6
0
29
14
6
33
0
12
34
6
2
2
14
27
34
0
55
29
49
10
10
10
29
0
57
87
140
136
100
133
70
34
4
14
14
2
0
51
66
23
12
29
4
21
23
8
4
42
10
14
0
49
10
31
0
66
0
0
0
16
0
0
10
48
0
27
8
12
4
2
46
0
42
0
2
23
4
0
4
0
27
10
6
0
27
2
0
2
0
6
27
2
6
2
14
23
0
44
23
0
12
55
29
14
21
21
0
0
0
29
2
12
16
0
27
8
83
157
138
74
32
0
14
17
0
14
12
0
2
17
0
0
14
61
14
0
38
0
63
0
4
14
57
8
19
16
12
10
34
78
136
118
50
4
42
2
12
29
31
0
19
0
34
12
48
27
12
21
6
0
0
0
0
59
68
19
17
6
34
19
38
12
2
34
2
38
21
2
25
27
23
0
4
27
0
0
0
0
23
4
4
0
19
10
25
6
6
16
0
8
17
0
8
8
12
2
0
16
17
8
0
0
8
2
2
2
12
0
21
0
44
0
0
0
0
0
23
29
16
14
97
243
249
217
61
2
2
0
6
8
2
53
0
2
4
0
19
2
6
14
0
0
21
34
0
14
49
10
25
40
8
6
61
53
110
66
55
33
10
4
12
25
8
76
4
10
29
0
42
6
16
4
12
57
6
6
34
80
74
23
29
40
2
6
19
12
0
0
0
14
8
4
65
10
2
61
38
19
0
6
10
0
0
4
0
4
8
6
4
0
34
23
66
23
10
6
0
25
10
16
65
0
12
19
29
4
4
8
2
10
8
16
8
21
2
0
14
0
4
6
44
12
6
46
40
87
144
153
36
17
2
51
0
12
4
19
6
0
19
0
17
12
4
16
6
0
42
0
17
65
0
34
29
6
12
2
14
101
51
64
46
81
38
65
4
0
53
12
104
53
55
0
8
6
4
21
19
4
29
27
19
23
44
38
16
0
0
17
0
33
0
2
0
46
36
0
4
6
14
0
0
2
19
0
6
0
0
31
2
72
0
0
0
29
8
17
4
0
8
0
10
4
46
19
2
8
0
0
17
21
0
21
49
4
4
10
40
17
0
0
4
12
16
0
46
6
55
6
46
8
29
29
17
17
10
6
6
0
33
38
19
23
8
50
50
17
55
0
23
6
0
2
44
6
65
6
44
10
21
53
32
40
19
34
32
29
33
16
6
0
31
29
70
89
38
2
10
2
42
16
0
57
21
0
0
0
12
57
8
36
0
0
25
0
12
12
2
0
25
0
0
19
0
0
25
36
14
34
0
6
0
42
17
57
29
38
2
6
42
0
8
2
19
8
2
6
46
6
53
17
21
6
6
0
6
25
14
10
8
0
29
8
2
17
2
25
2
6
0
2
27
8
6
10
27
29
6
0
0
0
59
0
8
0
8
0
0
0
19
27
23
19
8
23
12
32
23
6
10
12
0
8
27
53
63
119
25
42
19
81
36
17
19
17
2
36
178
242
80
0
31
25
76
16
12
36
42
0
6
0
4
8
38
0
57
10
12
0
36
10
12
12
14
27
21
36
6
36
10
2
46
12
2
10
12
8
0
53
8
6
0
19
12
6
0
29
10
25
16
29
8
4
34
32
64
53
2
4
19
17
14
6
17
4
4
36
12
0
2
10
0
0
14
0
0
6
55
70
12
27
0
53
0
2
8
23
10
0
0
44
16
4
8
8
0
10
14
17
0
6
17
31
0
0
23
6
12
89
21
67
72
66
53
70
104
49
38
76
32
70
191
221
25
27
0
2
0
27
29
0
12
33
6
25
0
4
10
10
0
0
34
0
2
25
0
0
0
21
2
0
23
25
57
2
49
19
0
0
0
6
27
4
4
34
4
21
19
14
12
44
14
33
10
0
27
0
4
46
36
0
0
4
29
4
23
10
4
0
0
4
40
0
34
4
4
32
12
10
2
8
8
0
33
0
8
44
23
0
34
6
0
2
12
31
36
2
0
17
10
25
0
0
31
17
25
46
16
31
10
36
44
14
14
97
51
87
114
96
163
148
102
51
10
97
72
96
53
25
64
0
12
8
8
2
29
38
0
21
46
21
17
46
53
51
59
14
4
4
0
8
0
72
12
12
32
0
8
6
19
0
6
0
4
0
0
36
2
2
8
23
70
0
44
44
4
0
0
2
0
84
2
16
8
10
0
0
51
16
0
0
23
2
8
0
21
0
44
23
17
10
0
23
27
0
0
80
14
2
4
0
0
25
16
17
2
2
0
4
0
4
0
2
2
82
4
4
46
38
48
8
0
0
74
31
25
53
34
68
61
114
135
186
238
214
133
72
19
6
68
53
40
17
8
12
16
0
59
16
14
55
6
0
0
0
2
19
21
25
4
4
2
32
0
0
34
38
0
17
0
0
0
12
27
2
29
0
12
38
2
0
29
12
40
17
32
38
27
4
0
0
40
14
44
34
21
25
0
0
6
4
2
0
0
6
0
8
12
10
4
8
51
10
19
4
12
6
0
0
0
8
23
14
12
0
21
2
25
6
0
2
6
12
4
29
40
4
64
6
33
17
2
33
23
72
76
6
0
8
34
40
12
46
132
142
199
251
255
235
102
49
50
12
4
16
44
4
36
4
8
2
8
2
23
4
19
0
12
4
0
4
32
0
0
4
23
25
31
32
0
25
12
2
17
34
2
0
0
19
38
2
2
17
49
4
0
8
68
59
6
2
38
6
40
2
8
8
10
0
17
0
2
0
2
0
21
0
0
19
4
8
2
8
0
23
0
10
14
8
0
21
0
0
0
0
100
21
14
4
0
31
10
57
17
0
0
0
8
40
6
36
19
0
17
0
4
0
2
14
10
0
14
40
29
12
34
36
117
185
249
254
255
215
142
2
68
42
12
23
0
0
36
19
2
0
44
0
8
12
0
0
25
8
38
8
40
0
55
0
10
6
0
8
27
19
34
32
36
40
8
6
0
0
6
32
34
8
34
32
2
25
0
46
19
12
0
4
25
2
12
29
53
6
16
17
27
8
0
44
46
10
4
36
25
6
12
2
2
14
0
2
23
0
19
6
17
2
0
19
33
29
27
8
0
21
19
6
0
33
23
6
44
32
31
36
0
14
0
33
59
14
21
23
21
55
14
59
17
53
14
123
172
232
253
255
255
200
119
46
42
4
0
32
17
19
10
21
40
32
21
53
27
27
2
27
19
6
61
0
0
16
19
21
29
12
40
44
14
19
0
0
6
51
21
0
2
10
19
29
6
14
10
4
8
4
0
0
34
2
0
27
4
21
21
68
0
0
0
14
0
17
0
0
0
12
38
0
14
4
14
25
0
14
16
19
4
46
4
19
2
4
36
8
4
0
10
2
21
0
8
0
0
16
0
2
4
0
4
29
8
6
16
0
0
17
53
0
72
21
25
40
21
25
44
196
216
246
252
255
250
159
110
38
25
70
8
12
29
93
21
38
63
0
4
42
0
27
6
29
19
16
14
25
25
46
0
2
0
4
25
25
12
0
17
8
27
0
0
8
0
2
17
4
0
2
4
21
0
2
4
6
6
0
2
0
6
10
4
0
29
29
48
6
0
17
12
46
4
0
25
0
6
0
55
6
34
8
16
0
2
12
2
0
6
10
55
8
16
8
6
0
10
14
8
4
31
0
16
0
12
25
4
42
23
8
0
8
8
19
4
46
38
34
36
51
16
55
55
178
228
255
255
255
221
121
104
40
6
80
36
2
0
25
0
21
25
31
14
8
6
19
0
19
0
61
0
12
2
0
0
8
0
12
44
4
23
0
36
6
2
4
31
4
12
17
21
4
19
0
14
87
2
17
4
6
55
10
0
2
0
0
27
17
55
53
23
31
2
2
4
25
0
19
0
12
8
8
0
23
46
19
0
8
0
8
0
2
0
6
23
10
2
0
0
0
0
4
55
8
2
2
0
21
21
14
0
6
44
4
4
0
12
61
4
8
2
0
0
19
51
29
113
159
250
252
252
238
157
84
55
46
34
2
10
2
0
40
0
10
8
19
2
65
0
17
8
12
23
2
2
6
2
0
0
0
25
8
4
59
4
0
14
2
4
14
2
0
4
8
21
14
40
34
0
4
53
23
19
44
0
8
46
40
19
0
63
40
0
0
31
0
0
34
0
48
0
12
6
0
19
0
0
0
14
8
10
21
6
12
0
0
4
17
4
8
0
4
4
44
27
25
12
2
32
16
6
4
31
8
81
40
6
8
53
10
16
0
38
0
48
34
38
8
8
46
29
182
253
253
231
174
93
53
10
8
2
19
42
2
21
0
14
4
4
2
2
19
12
0
0
0
17
10
0
46
0
2
14
0
0
21
19
0
19
0
0
14
0
0
63
4
0
4
23
6
21
25
8
0
40
0
25
0
10
10
76
14
40
6
12
0
2
4
6
29
0
4
27
14
14
48
2
17
6
21
6
2
21
0
0
8
12
2
38
12
34
6
4
2
4
32
14
33
42
21
17
0
4
57
2
6
0
2
8
6
19
6
23
0
17
44
25
17
25
8
0
25
68
32
87
160
238
230
166
121
95
32
31
21
17
4
6
44
4
6
16
4
0
10
21
0
4
16
17
10
12
6
12
27
17
0
4
6
0
4
55
23
2
2
34
0
10
0
21
8
6
0
2
40
10
0
0
12
0
27
6
0
16
29
25
10
4
19
78
50
64
2
29
55
14
48
6
85
42
29
29
85
19
0
10
0
23
61
0
0
14
0
29
0
0
4
6
17
2
8
36
2
16
4
8
0
25
19
6
0
2
0
12
2
10
0
0
0
6
14
0
34
64
25
29
14
6
51
83
91
130
150
93
34
42
34
0
4
40
44
46
119
23
33
2
55
2
12
2
10
0
0
23
2
0
8
10
8
4
0
32
0
6
10
40
0
2
0
6
25
29
17
34
0
2
6
4
0
53
0
0
0
0
0
38
16
4
14
0
68
0
0
0
4
14
4
0
0
0
0
31
42
68
55
101
23
10
0
0
8
0
12
0
0
14
0
12
0
0
12
0
10
14
32
17
0
44
6
8
6
2
6
17
0
36
0
25
25
2
0
14
12
0
10
44
57
4
51
46
4
49
51
102
19
108
17
61
12
42
51
21
50
0
0
25
10
0
0
17
0
0
0
0
49
14
19
2
0
2
2
12
34
6
10
0
12
10
42
14
25
23
12
0
2
4
0
21
27
14
4
29
0
2
29
8
0
25
29
19
76
16
59
40
6
0
10
12
12
0
19
2
8
0
25
14
27
17
34
17
6
0
16
21
6
8
14
2
4
0
27
6
8
0
10
2
8
0
10
0
0
0
10
0
6
0
40
0
14
6
32
36
2
4
8
16
21
70
10
10
36
51
0
4
27
59
70
57
55
50
57
78
6
23
46
4
29
34
6
8
14
67
17
16
4
14
0
8
12
0
0
4
6
0
0
8
10
0
8
0
0
6
55
25
2
16
70
50
23
2
0
12
46
44
14
34
2
14
78
42
32
46
8
0
0
53
70
32
4
40
8
0
2
16
4
23
14
31
0
34
42
4
0
19
2
0
42
0
25
10
8
4
8
23
4
4
0
10
32
61
29
6
25
2
49
21
12
27
0
19
6
17
42
2
10
40
19
8
14
12
2
14
6
14
17
34
0
14
65
55
21
0
2
12
8
0
0
8
19
14
2
0
23
40
19
6
74
12
6
19
57
29
0
0
8
14
2
16
10
6
12
57
8
21
10
36
10
0
0
19
21
0
0
12
23
38
12
2
64
0
64
0
0
4
0
44
0
34
55
110
57
17
0
12
4
0
14
17
0
10
0
78
83
128
165
57
17
38
10
0
0
25
0
21
17
44
0
32
0
8
4
16
65
2
8
0
21
2
17
34
49
34
31
14
34
8
10
4
57
34
19
8
17
34
0
8
12
2
8
44
53
25
0
25
0
40
48
27
10
4
44
0
0
23
12
0
31
0
0
14
40
27
21
38
10
19
0
10
14
6
0
0
6
23
42
0
12
21
0
40
19
81
0
40
21
4
2
31
27
6
21
32
55
117
23
6
63
4
40
72
8
27
114
218
51
50
0
25
0
53
0
8
27
0
10
8
57
203
246
40
46
10
0
27
4
34
8
6
6
40
2
10
4
2
38
8
27
2
6
17
6
6
82
8
21
32
27
2
4
40
19
4
10
16
16
2
38
40
55
0
23
2
8
8
0
53
8
72
4
21
4
33
31
48
16
48
17
6
27
0
14
2
14
19
17
55
0
0
12
12
10
0
8
4
0
6
32
4
10
2
14
6
0
68
21
63
53
38
16
38
23
19
0
23
81
130
201
206
129
140
68
6
0
10
57
91
186
206
68
61
29
85
0
10
4
17
0
14
2
36
29
93
160
12
2
0
14
12
0
29
2
23
29
51
14
27
61
0
23
0
38
19
0
0
34
12
8
44
59
17
0
42
6
19
10
8
6
4
0
6
27
2
0
32
10
25
14
2
0
0
55
87
38
0
0
6
0
0
8
23
10
6
17
12
14
4
76
155
167
85
23
4
0
59
17
0
0
2
0
6
8
4
0
10
27
0
61
4
2
0
55
8
0
59
14
12
6
36
29
33
85
93
12
102
4
14
4
19
17
17
212
229
51
2
23
0
0
44
4
2
12
17
29
42
19
61
57
25
8
19
8
6
76
91
31
0
42
8
40
19
33
4
0
10
14
8
33
0
14
61
0
27
42
12
33
25
12
31
6
0
23
49
27
49
57
29
6
40
10
32
6
42
0
76
203
78
4
48
2
27
14
17
46
12
0
36
25
14
8
108
221
233
209
117
21
0
0
0
0
4
0
0
2
0
4
17
10
23
2
8
38
53
6
4
0
0
0
33
49
27
8
6
42
14
10
2
0
4
17
0
6
23
27
40
144
172
42
40
0
12
27
0
48
55
2
21
68
57
76
6
36
55
46
8
12
2
6
38
17
0
33
0
50
6
59
44
0
17
10
6
17
16
6
10
27
57
84
61
21
21
2
0
12
27
46
36
17
23
2
0
0
19
31
2
16
27
33
72
152
74
42
40
8
21
14
8
72
25
25
48
0
12
44
68
148
136
101
85
44
42
14
29
2
21
4
19
6
31
0
36
2
21
81
55
27
17
4
0
16
36
0
25
0
6
0
8
2
32
14
19
4
0
12
8
2
0
2
36
53
70
34
4
14
25
16
29
4
40
16
72
84
76
17
21
4
42
27
14
2
4
23
2
32
21
2
14
10
0
48
23
10
23
17
19
6
0
21
66
102
81
55
76
19
0
33
10
0
19
0
6
10
6
16
2
25
44
40
10
6
0
0
16
55
174
57
80
36
0
27
44
29
34
51
29
10
6
78
14
82
46
0
38
23
44
40
0
2
2
0
2
2
8
0
16
2
2
2
2
14
25
2
72
27
23
16
32
6
17
10
4
44
17
21
19
21
12
8
0
0
10
27
0
21
23
27
2
17
34
0
42
34
108
160
174
148
162
163
49
44
8
12
6
34
0
17
33
0
6
0
29
29
32
42
10
0
17
74
40
12
27
40
167
230
252
231
136
19
46
8
33
12
42
4
4
10
17
10
10
0
23
0
0
2
4
6
2
34
97
0
0
14
19
0
72
34
10
8
0
29
19
0
2
19
34
8
34
0
10
6
0
10
14
17
12
2
25
0
25
2
10
12
2
0
0
0
2
0
21
0
0
0
0
0
0
0
10
44
21
4
87
42
51
0
10
0
0
36
25
116
0
23
0
0
23
40
128
195
211
192
195
219
104
10
0
8
0
12
21
0
0
8
36
12
17
6
0
42
0
14
2
19
6
42
89
128
243
255
255
255
195
85
0
23
31
0
100
0
70
14
2
70
29
0
10
25
4
0
0
0
27
17
74
0
21
40
29
53
8
49
4
8
0
2
12
8
23
27
81
0
49
0
42
19
68
29
2
2
34
0
8
14
0
0
46
55
27
32
83
17
0
12
0
6
17
0
14
2
12
12
2
6
10
8
49
16
19
2
4
34
44
14
44
34
38
29
8
38
8
33
102
97
142
224
248
224
164
27
19
0
0
34
17
4
4
4
8
14
23
14
14
55
16
6
16
0
34
10
104
101
140
217
229
206
114
68
63
10
10
0
4
10
10
14
6
19
4
4
27
12
4
17
10
0
12
6
27
17
4
0
4
31
0
12
0
12
2
0
0
0
0
32
51
27
23
8
34
57
14
4
12
16
6
25
25
4
4
21
0
0
23
50
4
0
2
8
40
55
0
4
21
32
0
4
31
4
36
10
14
23
27
32
6
4
4
27
72
12
59
12
49
17
44
66
59
89
164
252
255
204
84
2
19
19
29
25
0
4
17
0
19
40
25
27
78
53
27
42
6
59
0
0
68
34
96
100
117
146
119
0
12
0
2
10
0
8
25
33
12
10
4
34
55
85
4
57
2
34
10
12
0
16
4
12
2
25
10
32
14
34
0
2
42
6
0
32
46
38
16
10
0
0
4
49
8
17
0
8
6
74
6
0
0
8
0
10
31
2
57
0
0
23
17
19
21
8
51
10
0
2
4
65
0
10
10
0
0
21
6
17
0
19
27
0
27
10
89
87
46
70
119
200
181
117
0
0
14
6
27
34
80
61
80
0
25
51
14
0
10
6
16
33
2
0
36
14
14
4
21
85
25
38
4
36
6
14
21
12
61
6
17
23
17
0
12
23
136
29
0
2
0
0
2
16
0
4
0
0
21
70
16
38
2
16
21
6
2
2
14
4
0
0
10
2
16
0
0
25
38
31
0
4
4
0
27
33
0
0
6
0
12
0
4
16
34
4
0
0
2
6
0
19
4
4
6
76
0
12
0
0
61
4
0
0
36
2
106
6
6
63
121
98
83
27
65
6
36
44
42
0
0
34
68
12
44
29
36
8
17
14
6
0
31
17
17
14
8
44
2
36
8
12
34
0
2
0
34
25
0
10
0
23
4
48
19
0
0
19
16
21
36
0
14
0
27
2
10
61
40
33
10
0
6
44
4
51
6
74
0
6
6
57
46
0
0
2
17
4
21
42
0
0
2
17
2
0
2
10
0
0
0
10
4
0
0
16
59
2
0
4
2
6
32
40
23
0
0
12
2
8
4
2
0
0
2
21
0
17
23
2
98
44
0
61
81
108
0
23
46
25
63
76
46
10
6
2
19
16
6
0
6
19
19
40
0
16
0
0
2
8
0
29
19
0
10
2
14
8
0
2
31
16
10
0
38
2
4
34
14
4
2
0
32
27
49
55
16
59
0
0
2
4
53
8
0
0
6
23
21
14
17
0
0
0
0
0
17
27
19
6
19
38
2
0
23
12
2
4
0
0
14
0
6
4
25
27
10
10
36
12
0
12
0
17
8
21
34
0
4
10
0
8
14
8
76
4
42
27
27
27
46
2
19
4
29
68
29
2
2
133
121
53
23
32
102
112
4
14
8
82
6
40
21
0
0
14
0
14
23
29
12
4
12
6
0
50
0
4
21
10
0
0
38
32
61
6
0
21
49
4
0
29
48
6
14
2
6
2
8
2
17
0
8
10
6
23
0
0
61
106
4
8
2
2
14
40
2
19
38
2
14
4
10
10
16
8
12
4
0
4
10
38
19
10
10
6
6
0
8
38
25
0
17
4
0
8
0
0
27
0
2
31
32
0
0
17
4
63
2
8
0
38
8
34
4
57
6
2
4
0
31
10
59
129
123
2
4
157
226
140
19
68
4
16
2
10
29
12
4
6
66
0
8
23
29
2
0
40
0
2
34
2
0
0
0
0
23
2
2
46
4
17
4
6
12
6
2
8
0
57
57
0
8
33
10
10
29
51
10
0
17
40
42
4
4
32
8
0
4
6
0
33
34
2
0
6
4
61
153
74
2
0
0
4
0
4
12
4
0
8
0
19
23
72
0
0
2
2
0
10
10
10
27
2
14
0
36
6
10
14
8
21
23
6
12
0
2
4
0
6
0
29
32
0
6
10
4
8
46
59
8
108
167
74
50
61
0
34
0
2
2
8
0
10
33
6
0
29
16
32
0
8
0
0
2
31
2
17
40
70
8
27
0
2
23
2
27
8
59
8
6
25
6
12
2
4
2
6
14
12
8
23
27
0
6
38
0
55
2
6
4
25
23
6
4
25
2
10
4
19
17
136
177
95
27
12
12
61
23
4
4
27
12
8
8
10
36
8
0
6
4
12
6
0
6
0
0
23
0
0
17
0
2
4
0
12
32
40
4
0
10
40
23
8
4
25
42
40
85
0
0
27
8
6
17
14
40
44
53
102
2
23
21
17
4
19
4
0
17
17
4
6
10
42
36
12
2
6
0
19
6
0
4
27
36
2
2
0
16
0
10
6
8
0
0
0
16
6
136
23
34
0
8
40
10
0
4
0
16
4
10
0
10
8
0
21
12
4
38
2
29
34
44
4
17
12
89
12
12
8
0
10
19
17
40
2
0
12
34
8
6
4
17
6
29
2
2
8
12
0
32
46
0
6
6
8
2
4
12
2
85
23
19
8
19
2
10
4
8
6
0
4
31
4
0
0
0
4
4
0
23
42
63
65
49
8
23
14
17
0
21
0
0
61
0
76
0
0
0
74
0
2
10
14
0
2
14
0
61
12
42
14
8
0
21
14
10
25
0
12
6
12
133
97
46
6
0
0
38
2
2
23
32
4
0
2
0
40
29
48
8
0
16
14
21
0
53
4
0
17
4
0
6
0
36
0
4
4
12
12
44
21
34
0
8
2
17
4
8
10
32
6
10
2
0
0
10
21
0
8
23
0
10
36
0
0
21
53
2
0
19
14
40
17
4
6
19
19
29
4
8
49
23
17
32
12
2
16
53
0
0
0
17
38
0
23
12
23
0
44
6
66
8
2
29
38
44
17
16
0
4
40
0
19
0
27
17
4
6
17
16
21
76
0
8
21
0
0
0
16
34
4
0
4
0
0
4
2
0
12
19
6
14
8
16
6
31
78
8
25
2
19
0
78
0
0
8
2
14
4
10
10
40
46
25
8
0
34
10
0
10
0
19
0
83
6
0
0
4
21
0
4
17
8
17
10
0
19
44
0
6
6
19
29
0
14
8
0
12
23
4
8
0
14
34
4
32
12
0
4
38
10
6
0
8
4
25
0
0
51
2
2
42
21
2
17
12
2
12
0
0
17
0
16
12
38
8
4
25
23
6
0
21
36
8
6
8
0
4
0
38
0
4
2
2
10
0
49
8
2
4
0
4
0
31
10
17
0
17
0
4
2
34
10
2
8
32
0
0
0
31
14
36
51
21
16
0
33
8
0
0
12
4
2
0
0
2
0
0
23
44
32
74
8
21
44
23
0
0
4
0
0
0
6
6
0
0
6
8
23
44
0
51
12
57
25
21
0
0
16
0
4
2
12
16
8
0
0
0
44
2
34
0
2
0
21
44
4
0
38
0
44
8
59
61
33
0
8
0
27
31
6
10
46
0
10
27
38
0
0
25
53
17
4
0
10
0
0
8
0
4
10
17
19
0
50
8
2
0
23
2
0
0
0
38
10
12
12
6
23
4
10
4
0
34
6
40
8
0
4
0
2
0
31
6
70
14
4
2
0
25
65
0
14
0
40
19
0
0
0
17
0
0
0
14
8
0
14
14
51
19
0
2
6
10
44
0
0
0
0
4
21
6
0
46
2
23
21
57
0
4
8
2
53
10
4
0
27
0
23
4
2
44
4
2
4
38
12
23
4
0
42
0
38
0
6
0
40
8
10
19
10
0
4
6
46
2
6
6
0
32
33
0
4
16
0
10
10
0
0
17
0
2
33
0
51
8
16
44
0
0
10
57
0
0
57
2
2
0
2
23
0
4
0
0
10
0
0
0
0
12
74
2
34
66
12
16
4
0
17
0
2
0
0
12
2
2
0
32
4
6
14
12
19
8
2
0
6
25
0
2
17
34
2
12
6
2
53
23
0
4
2
17
17
34
53
14
0
17
6
10
4
51
0
4
23
44
6
6
14
4
0
40
4
8
2
12
2
38
10
0
6
0
29
25
0
2
0
2
17
17
6
14
6
14
4
14
21
34
4
42
0
10
6
12
0
4
78
142
19
4
21
2
12
46
12
4
2
6
16
10
14
0
14
4
50
6
4
6
0
2
6
0
0
17
2
12
46
0
8
10
8
0
4
0
25
25
2
4
14
36
10
0
0
57
8
2
0
19
38
21
0
6
17
40
17
40
2
23
0
23
23
6
16
57
51
6
0
12
0
34
0
6
23
17
17
12
6
34
6
44
0
2
10
0
49
12
42
0
40
2
0
38
36
25
0
6
0
4
44
12
0
29
0
29
38
0
0
0
0
6
17
0
0
14
36
34
6
59
4
27
50
208
125
14
40
0
23
17
0
4
0
8
8
8
27
25
0
0
10
8
8
0
8
0
21
0
0
0
0
0
0
10
4
0
46
0
12
10
21
0
91
0
10
31
2
44
17
0
25
25
0
0
4
2
8
0
57
4
0
38
0
17
34
14
4
2
34
51
12
4
2
6
17
2
29
17
12
2
6
0
0
4
16
0
0
0
16
0
0
8
0
36
36
0
0
16
32
0
0
4
0
27
29
6
21
19
70
4
0
0
14
0
23
2
0
6
2
29
4
12
14
2
0
8
23
82
34
19
0
0
19
76
33
25
36
4
0
4
0
51
4
0
14
0
4
21
0
0
4
2
59
2
0
19
40
14
2
40
6
12
50
6
4
0
2
8
98
6
8
17
14
50
17
2
0
51
0
0
8
0
33
21
57
40
23
6
4
6
38
40
8
0
0
27
0
10
0
23
21
8
10
67
0
4
38
14
2
17
8
0
4
14
2
42
19
40
6
2
4
10
8
21
4
59
6
53
23
6
19
27
21
0
8
0
0
8
8
0
27
17
6
31
0
14
0
8
8
34
8
0
0
2
55
0
2
12
12
4
14
0
8
4
4
21
0
10
8
4
2
23
12
10
0
8
6
0
21
23
135
33
10
19
4
19
0
6
0
0
0
25
16
0
31
12
0
19
4
44
14
0
19
21
36
51
21
12
0
6
0
25
21
0
0
10
4
14
0
23
0
4
0
4
34
17
21
4
17
12
31
23
6
0
70
27
14
8
17
0
33
66
83
19
10
40
10
2
2
23
6
0
51
6
19
55
46
14
16
17
2
6
2
0
14
0
6
14
8
0
33
19
2
2
4
36
2
0
14
19
4
0
6
10
21
19
29
34
55
6
8
12
8
21
12
0
10
0
4
4
14
38
0
0
4
0
0
0
29
50
4
2
0
0
8
50
12
6
2
4
21
0
8
31
0
6
4
6
10
14
27
8
2
81
0
17
12
38
14
40
0
10
8
2
0
42
42
6
12
27
8
21
8
4
0
0
19
0
2
10
4
74
31
0
2
16
48
27
0
51
12
2
16
33
32
59
0
2
48
0
0
17
0
0
0
36
8
0
4
0
6
2
17
0
8
10
57
21
2
10
2
6
2
0
32
2
0
0
2
8
0
2
0
25
61
0
2
0
0
0
4
0
46
34
0
8
12
0
12
14
51
0
14
6
0
6
0
0
16
10
0
27
2
53
4
6
10
0
8
34
2
8
68
174
83
50
0
6
0
23
23
0
0
0
8
6
0
25
0
2
0
49
0
0
2
12
19
6
2
0
2
4
8
4
14
0
0
0
19
0
6
6
6
21
0
2
17
14
0
0
0
2
2
10
10
25
0
0
2
21
8
4
10
0
2
4
23
4
2
63
0
6
0
0
19
16
0
2
4
0
12
14
10
6
21
21
31
0
2
6
23
4
34
0
8
0
0
17
0
16
0
2
40
14
27
0
21
14
38
38
6
4
4
19
2
0
4
23
0
0
27
34
33
0
0
19
114
123
12
0
14
21
4
6
0
14
0
33
0
0
0
25
2
29
38
29
38
36
0
6
4
4
0
8
8
2
27
36
27
16
8
14
27
2
0
14
14
4
0
2
83
16
21
8
4
0
0
14
2
0
0
12
14
10
0
4
0
31
6
0
2
0
4
0
27
0
6
21
8
14
2
0
2
14
44
6
8
6
2
2
14
57
4
23
42
4
25
2
6
23
0
0
0
2
0
8
8
31
48
21
10
0
0
38
6
14
2
23
4
0
25
4
21
19
4
0
4
42
6
0
118
57
38
23
14
0
0
10
12
23
36
12
57
4
23
12
4
2
10
0
0
17
0
0
6
44
8
8
6
4
33
25
0
8
14
2
0
8
0
8
0
0
0
14
0
0
2
17
0
0
0
2
12
2
0
44
0
2
0
2
31
4
23
0
4
14
0
0
0
4
21
2
23
14
0
0
2
8
8
44
6
32
23
6
51
6
23
2
10
17
2
19
4
0
0
2
14
23
10
0
0
14
68
17
4
21
0
16
0
2
6
87
0
6
14
21
0
2
0
27
4
0
8
12
6
42
50
16
6
2
0
44
29
8
0
6
19
17
0
50
12
0
2
53
2
2
66
14
0
12
21
29
14
4
17
25
40
6
29
0
91
0
2
0
84
82
10
4
0
23
2
0
38
14
6
6
14
19
0
2
8
21
27
19
0
0
8
36
2
8
8
0
6
4
0
0
0
2
0
0
17
0
0
0
0
61
8
0
0
0
0
4
14
23
32
0
32
42
2
6
0
0
0
4
17
50
46
21
2
0
10
4
14
6
44
36
4
6
6
10
4
25
8
0
53
27
36
14
4
17
2
6
6
4
0
0
33
25
0
0
4
21
2
25
6
14
10
19
38
67
61
0
48
19
0
17
0
53
0
2
8
2
8
4
10
0
21
31
6
2
10
2
10
0
50
0
19
4
51
2
19
4
0
0
23
10
14
42
102
72
2
0
6
6
10
0
8
10
0
0
14
12
17
16
19
12
25
31
0
4
33
38
16
4
4
4
2
0
14
21
12
0
10
0
42
8
0
4
2
4
0
38
29
0
49
53
6
8
34
17
6
21
6
4
2
23
19
0
10
8
17
8
14
16
0
0
6
21
0
0
4
27
6
0
16
2
12
14
46
29
40
0
19
29
25
12
17
0
36
8
0
0
6
21
8
29
2
0
0
17
4
0
2
0
12
0
0
0
10
12
0
21
38
0
14
0
6
23
25
0
29
27
55
14
6
44
27
4
2
14
6
34
33
27
0
0
19
23
4
0
10
0
0
33
0
2
2
0
17
2
14
0
21
10
0
4
0
0
0
2
25
4
2
23
34
4
0
2
21
0
59
14
4
19
27
21
19
0
40
4
8
50
0
25
0
4
57
0
72
12
0
50
0
0
6
8
85
46
46
19
0
2
51
0
8
4
2
25
8
25
32
10
0
0
8
21
46
4
8
0
0
4
51
2
51
0
78
19
19
0
4
8
25
78
50
29
12
27
27
6
23
0
0
0
8
38
0
0
2
0
14
0
29
36
0
0
40
0
2
12
21
4
2
12
2
0
29
16
0
0
72
0
17
0
17
17
10
10
2
25
0
0
2
14
42
27
0
6
0
0
46
32
8
0
21
10
2
38
0
10
4
6
36
53
0
2
4
21
6
0
2
14
17
23
4
29
6
0
0
0
6
46
10
21
4
4
17
0
4
21
10
16
10
4
14
21
0
17
19
10
8
48
31
4
8
46
2
6
0
12
12
12
6
38
23
8
14
40
40
25
4
0
0
12
6
2
10
0
2
8
0
6
70
34
67
14
29
8
0
8
0
2
0
0
17
38
14
19
51
0
4
12
0
21
0
33
10
0
0
2
0
4
40
48
0
6
4
12
0
14
0
6
10
2
0
36
6
0
34
10
0
4
23
0
29
2
10
4
4
0
32
14
17
0
21
0
12
0
8
6
2
0
2
0
10
0
0
8
10
27
29
17
10
12
2
16
12
2
42
29
4
32
4
2
19
6
44
4
42
4
0
0
0
10
29
0
6
4
12
14
19
0
0
10
19
8
0
6
12
17
2
2
0
14
2
0
34
12
2
10
14
25
53
2
72
16
8
10
29
29
4
29
42
25
12
2
40
0
21
10
8
21
27
0
4
0
29
0
0
25
0
2
0
25
6
12
16
0
33
4
33
46
36
12
8
8
4
4
0
14
0
31
10
4
25
12
2
0
19
16
0
8
27
0
8
10
6
2
0
36
0
17
17
19
85
0
0
34
8
19
31
6
4
8
6
0
27
21
0
36
14
2
6
0
27
10
0
4
14
14
8
36
27
4
8
2
14
12
12
0
0
8
2
12
10
0
25
12
21
59
0
0
6
23
38
6
2
12
0
0
10
55
0
46
93
160
42
4
19
0
0
12
0
29
23
12
4
0
2
55
4
27
12
0
10
2
10
49
29
23
34
0
6
4
2
6
4
48
36
0
16
40
2
8
2
12
0
14
4
12
2
0
4
10
23
4
0
40
0
0
0
6
8
0
23
50
25
8
14
23
12
67
38
6
6
4
2
0
6
4
0
0
108
6
10
0
0
0
10
21
0
2
4
12
10
0
0
8
6
12
0
4
0
49
0
29
12
0
0
44
44
50
14
4
49
16
27
2
53
16
0
10
2
0
6
23
6
50
57
100
31
0
12
44
34
38
53
0
34
2
0
14
27
32
17
14
25
16
0
19
0
31
6
0
53
23
17
14
0
32
10
0
4
10
8
4
8
12
0
0
12
12
2
27
10
12
4
8
2
14
0
6
19
29
0
2
2
14
0
0
6
38
4
0
29
2
6
29
0
14
0
6
0
10
2
0
10
2
0
10
21
27
51
48
14
42
8
17
8
8
8
0
23
2
21
2
34
0
21
10
0
12
6
4
2
34
102
184
78
6
44
14
10
0
6
2
0
0
4
0
25
42
2
17
46
59
27
27
31
29
46
42
17
10
16
49
8
16
4
40
42
0
0
10
59
6
55
48
4
8
21
4
14
4
10
61
70
16
6
2
14
0
12
0
6
10
19
10
10
21
0
0
0
8
8
0
0
29
6
12
8
4
44
4
38
8
16
36
10
0
46
14
29
8
14
0
23
0
34
2
4
4
34
36
4
12
83
68
10
2
8
23
0
16
4
14
49
6
2
0
57
2
36
2
4
0
14
0
14
0
221
174
64
4
0
17
19
0
0
21
6
32
0
0
4
33
14
51
83
84
80
42
10
59
25
23
32
0
12
2
2
49
0
25
10
46
0
0
0
23
46
6
12
4
59
6
0
61
0
2
0
36
2
0
8
23
10
0
0
27
0
21
0
21
0
6
42
0
0
0
4
0
0
0
8
0
42
6
0
4
0
4
17
0
0
40
8
38
10
19
0
12
0
0
29
40
10
16
0
40
57
0
0
6
91
0
0
25
53
19
2
4
19
0
0
27
2
6
12
0
21
27
0
0
51
72
0
72
0
16
8
19
2
21
0
21
2
0
4
29
0
63
153
104
84
160
125
106
42
53
23
16
29
36
25
74
0
57
25
8
19
23
0
0
55
0
6
0
19
4
12
12
42
36
2
53
2
112
134
0
38
8
0
29
23
0
17
2
4
0
4
4
14
0
0
0
2
0
0
0
23
0
25
65
34
12
40
0
0
0
0
2
0
12
0
21
0
38
2
6
34
4
34
55
0
29
78
93
6
0
0
70
4
6
0
0
57
2
31
2
0
6
23
2
2
36
27
23
10
55
0
4
6
29
14
6
0
12
0
0
10
2
40
44
36
70
104
160
96
117
140
119
123
93
89
53
8
6
6
0
2
4
55
34
4
0
0
6
4
0
0
2
16
4
0
27
87
17
0
10
21
57
102
0
10
51
10
6
0
0
27
8
14
8
0
0
0
10
0
10
10
12
0
8
10
0
16
2
14
0
16
21
0
10
23
10
16
36
17
2
16
25
38
0
2
61
42
2
2
2
42
4
0
8
14
0
0
0
12
2
31
2
8
6
12
4
21
17
0
74
10
32
14
4
36
0
0
10
0
8
2
4
23
0
0
10
12
2
128
50
130
140
157
170
174
189
200
170
112
93
31
33
0
4
8
2
50
2
17
55
51
4
2
51
12
0
6
0
40
67
99
21
34
4
0
48
40
0
6
81
0
4
0
4
29
2
4
0
0
0
59
2
8
14
23
0
10
2
0
0
19
23
6
2
4
0
49
8
36
0
0
46
2
0
4
25
0
0
0
84
34
0
14
23
0
61
0
0
12
2
2
10
4
4
0
38
27
14
16
6
34
0
51
4
0
23
50
10
0
0
0
0
38
29
16
2
14
0
16
42
6
0
125
34
12
150
142
164
226
255
244
214
157
169
25
48
42
38
19
8
4
16
14
65
0
0
0
0
21
8
44
23
36
59
59
17
17
31
19
0
2
0
17
0
0
2
0
6
0
2
0
12
0
2
0
4
0
2
0
2
8
38
0
29
6
42
44
34
0
55
12
4
2
0
0
10
8
12
10
14
12
0
8
12
0
0
31
80
12
0
0
0
0
4
17
2
2
59
0
2
0
0
29
4
0
4
10
23
0
10
10
0
4
0
29
10
27
0
2
23
6
23
4
25
19
6
0
0
32
97
138
170
238
255
248
206
170
160
82
48
59
4
6
46
40
6
0
0
12
33
17
2
0
21
10
31
0
42
0
6
2
16
4
4
6
57
0
40
2
0
0
0
25
0
12
19
27
29
0
0
65
0
4
2
4
0
10
23
17
40
10
46
2
21
6
21
19
0
0
10
0
17
2
2
6
12
27
2
0
38
14
0
2
17
57
16
31
0
2
12
21
2
51
25
0
25
17
2
0
25
6
46
4
25
0
8
63
4
16
0
14
0
0
12
2
46
8
17
8
6
0
40
76
53
110
148
213
247
225
200
148
153
87
12
23
8
4
0
2
110
19
16
14
49
2
4
10
0
36
72
78
6
40
23
70
14
0
0
0
0
0
14
29
8
0
0
23
82
0
0
0
19
48
2
10
0
2
0
0
2
10
6
68
0
0
14
36
16
10
0
8
4
48
27
44
4
0
6
14
10
0
12
0
2
25
95
10
42
4
4
8
14
0
4
6
4
21
14
10
17
0
42
21
8
4
32
29
4
4
23
19
8
17
10
6
0
25
14
46
51
2
42
17
14
0
2
0
34
21
84
119
162
172
179
138
134
96
57
59
53
23
17
14
49
0
0
2
0
8
0
4
0
138
166
89
63
10
0
96
106
6
0
2
2
34
0
4
51
29
64
176
91
0
0
19
8
0
14
59
19
0
14
0
34
0
0
0
49
0
0
0
25
0
12
4
0
36
6
0
0
12
0
0
8
27
59
0
4
0
19
8
38
27
0
16
0
0
0
4
4
2
32
4
0
0
42
2
6
0
8
17
0
0
6
25
55
0
21
4
36
0
0
21
17
25
12
4
65
0
17
33
89
0
70
57
112
12
121
87
27
101
17
0
29
0
51
6
33
2
0
16
2
8
6
53
100
177
150
36
10
14
23
44
32
4
0
8
0
32
0
38
0
4
2
51
0
0
0
0
8
8
23
23
0
32
6
6
10
0
12
8
12
4
4
2
2
0
0
16
0
0
4
27
0
0
6
29
6
17
38
44
0
14
0
2
6
12
4
2
4
21
0
6
2
10
31
21
0
10
25
4
0
6
6
12
0
16
25
8
8
8
0
2
0
2
2
2
0
10
8
4
6
16
14
19
0
8
10
59
23
87
44
68
42
50
59
61
63
40
12
17
0
0
21
55
23
10
64
119
184
180
23
19
2
34
14
6
0
19
0
0
0
19
8
10
8
17
4
23
8
8
6
0
16
38
57
2
17
0
4
0
12
12
46
0
6
6
0
0
4
0
4
10
2
0
0
12
0
6
0
12
0
21
12
14
0
16
48
32
14
21
36
0
61
23
2
12
4
12
0
0
0
8
8
2
0
42
32
6
16
4
27
57
51
0
55
0
0
0
0
0
0
10
66
6
36
63
12
0
4
72
27
0
21
40
44
19
27
89
118
184
219
138
46
38
0
0
23
91
70
32
2
212
246
44
19
38
0
12
0
0
12
29
0
2
23
0
4
6
29
0
29
0
0
2
0
0
0
12
0
0
0
0
8
29
8
27
0
21
29
23
16
0
29
12
0
2
67
0
51
44
4
34
19
2
40
10
0
34
14
4
59
14
17
2
12
0
0
2
8
0
0
2
0
4
0
2
2
10
0
8
38
31
0
4
0
0
0
4
0
36
0
4
0
25
6
23
10
0
4
19
0
0
0
10
10
0
0
10
23
38
0
17
78
148
211
193
85
10
0
0
61
46
6
0
17
250
155
14
29
0
10
29
0
19
17
0
12
4
0
2
6
14
53
4
0
0
33
2
0
6
6
8
10
0
0
4
32
12
0
8
25
31
51
8
17
0
46
8
8
17
46
14
14
23
34
50
4
16
0
0
6
6
17
34
38
6
25
6
21
4
4
0
19
38
0
61
25
17
0
25
38
49
0
0
0
19
0
4
0
0
4
0
0
17
64
14
21
2
6
0
40
23
10
40
6
12
27
10
38
10
0
6
61
32
6
38
36
0
102
81
17
21
36
2
34
0
0
34
8
195
68
19
21
21
6
48
8
34
40
14
61
0
14
23
0
2
0
2
0
14
17
4
0
21
0
14
0
10
0
23
8
4
0
10
14
8
0
4
12
44
6
12
10
0
0
0
0
46
0
17
0
0
27
0
38
6
0
6
0
0
10
0
0
12
8
25
14
0
40
0
12
0
40
0
0
8
0
19
33
0
6
10
8
0
2
16
6
8
10
4
42
17
0
25
0
14
33
14
19
8
2
29
23
0
0
0
6
14
0
31
40
19
0
0
19
8
0
25
29
0
12
0
0
72
34
0
25
6
2
0
14
32
0
0
6
25
10
0
0
2
4
0
0
14
10
32
2
0
0
0
0
8
0
23
8
64
0
8
8
23
25
2
4
10
2
53
4
2
0
0
2
29
23
44
12
0
8
40
42
72
4
32
0
46
8
8
29
44
6
6
0
19
17
2
0
17
14
2
21
4
0
0
25
0
0
6
53
16
10
0
0
29
42
21
21
23
4
8
0
2
0
2
16
12
0
16
0
25
2
4
0
8
0
10
10
6
19
40
6
4
2
51
0
0
2
0
0
29
65
0
12
59
0
0
0
0
17
6
63
32
17
8
53
14
27
0
8
6
17
4
8
8
29
0
6
0
23
12
46
0
0
4
0
2
68
8
29
0
0
4
6
2
2
17
27
2
2
0
0
2
34
16
38
4
14
27
0
12
23
0
4
21
44
6
6
4
0
19
12
8
10
36
6
8
8
0
23
4
25
0
55
76
0
4
42
14
6
0
0
34
0
38
12
4
0
14
0
23
4
12
4
6
32
14
6
8
4
4
0
2
0
0
17
10
2
14
12
8
12
8
0
23
6
0
2
0
34
50
33
29
10
68
34
0
40
6
16
6
6
17
10
36
25
12
2
0
0
0
0
0
6
0
23
19
16
25
25
0
0
12
4
12
85
21
10
10
12
12
0
6
0
2
4
0
4
17
44
10
12
2
27
6
2
0
23
6
2
8
14
2
6
16
36
4
25
25
0
61
0
8
38
6
2
10
17
12
44
0
32
0
4
59
0
0
6
0
10
4
2
23
17
40
29
0
0
2
0
19
25
6
12
2
0
8
0
2
4
8
0
12
0
8
4
8
0
19
34
14
4
2
19
0
0
0
23
4
0
8
0
34
0
16
6
2
4
27
0
8
6
2
10
31
2
0
2
16
21
4
25
0
44
0
0
0
14
6
23
0
4
0
0
0
29
12
8
2
0
0
10
27
53
14
0
4
2
0
25
0
0
0
17
48
4
4
23
48
6
2
4
4
12
14
8
32
0
4
2
70
17
10
10
0
36
0
46
0
38
10
8
10
0
0
23
2
29
36
2
0
0
0
6
14
0
0
0
10
6
8
0
25
8
0
4
2
6
23
10
8
17
29
32
27
53
29
0
0
14
0
0
8
0
10
82
6
27
2
4
0
0
23
0
0
0
12
4
29
0
0
0
0
14
0
4
12
0
0
12
6
32
0
4
27
6
57
14
46
0
2
0
10
0
2
4
31
0
25
38
50
16
2
0
17
8
0
10
0
6
4
0
17
0
33
6
14
4
53
4
2
10
12
2
40
42
25
0
0
4
38
14
16
0
27
27
16
6
2
17
59
0
6
25
14
8
14
2
34
0
59
16
0
0
38
16
10
8
8
0
40
2
0
10
25
0
8
0
38
19
0
57
0
0
36
12
29
14
38
14
29
0
4
0
0
8
0
0
23
0
4
14
6
0
6
0
0
4
0
51
8
23
0
0
23
0
0
21
12
12
0
4
2
29
34
0
19
8
0
8
150
162
0
19
0
8
0
17
2
8
34
25
19
16
0
2
8
17
8
0
8
8
0
0
6
0
19
2
2
2
4
2
0
0
0
72
0
61
14
17
6
10
0
27
31
8
31
4
32
2
0
0
0
2
0
29
10
19
0
0
2
17
0
49
8
40
0
0
0
8
