P2
# Created by GIMP version 2.10.24 PNM plug-in
124 125
255
0
64
8
17
2
0
0
2
36
0
0
0
32
16
40
2
10
19
12
12
21
29
6
19
0
0
6
0
0
2
14
4
4
0
57
0
6
0
0
8
38
6
29
0
0
12
42
33
21
0
0
0
2
6
33
0
42
6
0
0
0
32
57
0
2
0
19
0
0
6
29
2
0
59
17
12
0
0
0
2
19
23
6
0
0
0
4
0
6
0
23
25
25
0
4
8
0
4
0
0
0
0
27
8
0
6
29
48
27
49
40
108
10
96
6
0
6
4
46
6
0
0
0
0
4
0
8
0
4
6
6
33
17
51
23
76
27
10
4
42
21
2
0
0
48
29
2
14
44
27
0
0
36
48
8
6
12
0
6
8
8
0
10
0
21
0
4
27
2
23
4
2
0
10
0
10
6
23
0
2
8
27
0
2
0
16
8
14
2
0
23
0
8
6
6
2
0
4
0
29
4
2
14
2
0
0
4
0
4
2
21
4
55
10
36
14
4
40
2
46
8
6
0
8
14
0
0
44
0
27
0
14
0
0
0
59
25
21
31
0
55
2
4
0
4
2
14
0
0
0
6
36
4
0
12
66
6
34
0
57
6
10
0
46
12
8
0
25
27
0
21
0
6
4
0
8
21
2
10
0
2
16
21
4
57
0
50
0
8
2
38
82
2
4
0
25
29
19
0
4
46
0
25
2
21
49
0
0
64
2
42
0
12
0
4
0
14
0
4
0
4
16
6
19
2
46
0
89
0
0
40
0
0
0
2
21
0
0
6
48
0
8
21
4
23
38
0
0
65
2
21
25
46
2
27
46
93
82
66
12
27
2
4
0
0
2
38
4
0
0
81
6
0
12
59
4
12
12
2
0
4
0
72
19
10
6
4
4
6
50
2
0
0
10
0
2
29
10
25
6
25
2
61
10
6
17
12
19
17
50
0
17
6
4
0
4
2
0
0
25
6
0
17
21
0
2
12
6
10
29
48
17
36
49
2
42
19
25
40
6
50
0
36
19
21
0
10
19
17
0
14
4
10
0
2
2
33
8
17
0
14
16
6
23
0
8
44
6
6
2
0
0
46
34
6
6
44
19
68
68
196
223
189
96
36
2
25
14
23
8
29
0
23
0
8
31
0
0
12
6
0
0
0
27
4
6
0
0
0
0
17
6
0
44
0
8
27
6
89
0
2
0
0
0
0
10
14
10
19
4
23
63
0
19
0
0
0
21
10
0
25
29
6
2
0
0
21
4
8
31
14
6
16
4
44
2
4
0
0
34
0
0
23
6
34
4
8
25
46
17
0
0
2
6
0
4
50
0
16
36
36
66
2
0
16
10
4
57
0
44
67
10
0
2
2
25
0
0
53
6
14
0
14
99
198
221
178
78
2
0
4
46
46
65
51
19
0
8
0
27
8
0
21
0
23
10
21
4
0
8
6
2
8
4
32
27
2
0
6
4
6
8
23
29
34
40
27
21
48
2
10
44
23
0
12
17
51
6
23
0
21
0
4
14
40
2
38
0
10
55
21
4
23
8
14
14
6
10
12
21
25
0
10
0
0
0
25
6
0
2
0
46
10
6
8
68
2
36
8
2
17
16
17
16
17
2
0
4
23
17
4
17
40
38
32
31
0
23
0
17
6
2
19
0
16
21
36
6
65
113
76
25
0
38
14
57
31
44
116
67
8
12
0
8
110
29
23
76
8
2
44
76
4
0
0
33
4
0
2
19
6
61
40
4
93
29
10
0
8
36
0
2
27
0
61
55
14
10
0
0
40
0
0
23
17
2
25
4
51
10
12
80
42
0
44
0
17
49
2
2
4
2
2
2
0
10
0
14
21
17
0
34
0
0
10
10
6
4
0
6
0
12
27
14
4
0
34
0
36
70
4
29
25
40
0
14
99
152
0
2
2
38
6
27
2
6
6
0
0
38
36
6
6
38
16
19
55
0
12
19
27
16
57
68
29
0
27
2
0
10
14
0
0
8
21
0
0
53
19
44
0
0
4
2
2
0
21
12
29
0
36
0
6
6
27
16
8
4
8
0
23
12
0
0
17
0
44
23
29
0
2
0
29
21
82
21
8
91
106
68
93
2
6
0
12
0
8
17
0
6
0
6
4
0
8
0
6
10
14
0
6
0
16
0
23
12
50
4
17
0
50
2
17
42
0
34
23
6
4
32
83
55
23
25
6
0
4
0
8
8
8
6
8
0
0
6
12
4
0
21
6
0
17
0
4
10
8
14
12
23
2
14
0
17
0
19
4
4
4
0
0
6
0
4
10
4
0
0
59
14
14
4
0
23
0
51
38
10
0
14
55
48
4
2
16
0
49
14
14
40
17
6
48
0
72
0
0
0
6
0
14
0
135
174
21
10
2
4
4
0
12
23
8
0
0
42
6
66
63
72
4
4
46
0
19
4
8
34
10
2
0
2
0
48
25
0
0
10
0
8
34
4
12
4
8
46
0
8
6
0
48
51
2
14
0
0
36
2
59
8
51
0
42
8
21
12
0
0
21
23
38
8
0
0
2
2
14
6
2
19
16
4
0
0
8
0
0
4
4
14
6
0
8
0
17
6
23
23
14
10
0
8
14
6
6
0
36
0
34
0
33
46
8
55
0
36
27
0
6
14
38
29
27
14
10
10
66
165
95
70
27
0
8
59
6
0
0
4
6
12
0
8
0
4
4
17
23
44
2
14
2
12
6
10
0
6
0
19
4
0
14
40
10
21
19
6
0
12
0
34
32
6
0
0
2
4
0
14
2
34
23
0
12
0
0
29
12
6
12
29
0
6
12
6
12
2
4
12
12
8
21
6
53
0
36
0
12
6
4
0
2
2
0
23
0
0
6
0
0
21
25
0
36
0
44
0
38
0
57
14
8
12
0
0
12
4
10
38
16
0
0
4
10
0
27
0
46
8
2
21
6
21
87
23
0
0
0
38
2
40
32
10
0
40
14
0
2
29
2
8
8
72
4
76
55
0
0
0
0
25
21
42
2
38
10
51
0
19
36
0
8
0
8
2
44
17
8
4
51
36
8
6
14
6
68
10
46
2
10
0
17
4
23
0
2
42
4
0
55
2
8
8
12
2
23
0
17
14
4
2
36
16
21
0
4
0
14
6
25
0
29
8
53
19
38
17
2
4
8
4
31
0
25
50
19
0
0
19
0
4
21
10
34
0
6
0
0
4
2
0
17
8
10
32
19
12
82
6
23
2
14
4
4
0
2
2
16
14
14
21
2
2
19
10
44
0
25
2
19
0
16
0
14
0
0
8
12
14
0
8
0
29
23
0
17
32
12
16
8
0
0
4
40
48
29
6
10
6
6
25
6
0
0
12
0
2
0
4
2
34
14
29
17
19
51
16
21
2
2
12
0
0
0
0
0
0
0
23
0
6
0
36
0
8
27
10
4
6
10
0
0
0
0
0
16
4
12
0
0
38
2
14
0
2
0
0
0
6
4
2
29
2
2
25
34
4
14
4
25
0
2
19
36
12
12
2
6
2
0
0
0
0
46
17
25
0
17
21
2
2
17
2
17
0
17
10
0
0
29
4
0
36
2
4
19
72
0
0
8
38
0
0
0
6
2
2
4
2
0
6
10
12
0
0
2
4
50
44
48
6
2
0
2
0
0
6
6
0
4
0
25
6
16
38
17
40
6
0
0
25
17
17
23
27
0
0
38
16
21
53
4
44
2
0
33
0
8
42
10
25
42
50
27
36
0
55
17
0
40
16
6
0
0
34
2
8
6
0
8
61
19
0
8
4
23
0
4
46
16
4
6
0
2
8
19
4
12
0
0
25
6
14
6
23
17
25
12
2
27
0
2
25
25
0
17
8
19
0
2
0
8
36
2
2
46
6
4
2
0
4
17
33
0
17
2
0
12
0
16
14
12
23
2
6
6
4
38
6
14
0
4
0
0
0
4
2
10
2
59
0
12
16
2
14
38
19
17
6
6
0
10
2
21
16
33
70
27
17
38
6
0
2
40
0
2
25
0
23
0
33
117
0
36
40
6
27
6
0
32
10
29
0
0
2
2
0
33
55
8
0
0
0
23
0
17
53
29
34
6
16
0
32
12
0
0
0
0
0
21
70
0
19
12
14
0
0
2
33
0
16
33
4
2
0
17
4
0
12
66
23
0
2
6
0
33
0
8
23
21
29
0
14
0
6
0
0
6
0
6
0
0
2
8
6
0
21
2
10
38
2
10
29
4
23
4
2
14
21
2
85
34
21
12
14
6
0
29
66
2
48
0
0
0
0
10
51
42
0
0
70
2
0
0
57
110
138
106
19
6
0
38
6
27
29
4
0
0
6
0
0
0
2
6
2
6
25
0
4
33
2
0
0
74
0
6
6
14
44
2
0
10
6
12
67
0
17
0
6
0
0
17
0
8
17
0
0
8
0
21
33
16
12
4
0
14
36
2
12
38
6
4
16
0
0
19
21
48
12
27
2
21
12
4
31
10
17
8
16
25
32
0
0
16
0
2
6
2
19
0
8
21
0
0
0
70
17
2
4
17
8
57
70
42
8
59
21
70
25
34
32
59
6
21
49
33
70
0
17
155
211
149
59
14
0
4
51
27
10
48
0
6
2
6
10
2
0
2
6
4
16
4
4
6
0
0
6
0
0
6
0
0
0
0
0
0
51
27
4
0
2
0
36
8
19
27
0
32
12
23
0
34
4
12
55
8
31
0
0
27
12
2
59
42
46
2
8
25
0
27
59
34
21
0
19
0
44
0
6
0
0
23
0
6
0
0
4
27
0
0
0
2
74
4
0
0
6
10
44
0
0
0
4
6
38
83
116
23
10
33
0
4
70
8
0
21
14
0
0
23
0
8
53
118
228
241
85
10
0
10
4
2
0
27
2
4
2
10
21
14
21
8
0
0
0
6
0
25
46
17
0
0
12
12
29
4
6
0
17
42
4
23
14
0
0
10
29
2
8
4
4
2
12
0
6
33
16
0
4
21
2
10
2
2
36
33
40
34
4
23
0
2
0
0
8
23
0
21
0
33
0
10
6
0
32
0
12
10
6
2
29
46
0
48
0
14
25
0
2
4
46
55
0
14
0
0
0
4
65
23
8
40
19
2
8
51
0
46
91
91
0
57
70
14
0
42
36
42
142
170
46
57
8
29
2
29
0
0
0
29
31
8
78
14
50
23
16
14
0
44
55
17
64
4
51
4
4
0
0
0
42
19
0
17
0
0
2
36
0
16
0
0
0
2
0
2
0
2
53
0
0
42
36
4
12
25
2
6
25
4
0
6
0
10
0
0
4
0
0
17
36
4
29
34
4
0
0
0
6
53
4
2
0
4
4
4
36
2
0
12
23
40
34
23
29
4
8
16
25
0
12
4
0
4
40
4
2
12
0
17
32
8
0
55
34
8
6
23
8
40
0
17
49
34
6
8
34
2
6
19
2
2
29
0
19
4
36
12
25
4
4
16
2
2
12
2
6
14
0
17
8
4
34
17
0
19
0
0
0
4
2
6
38
8
0
21
38
0
23
0
16
6
8
12
27
2
6
10
0
10
2
21
0
10
21
14
12
12
10
0
4
8
6
29
0
2
25
27
6
2
19
0
0
6
2
0
23
0
0
0
57
0
0
0
19
50
0
6
6
0
10
10
0
23
33
2
0
0
25
6
2
53
51
6
0
8
67
12
27
0
0
29
25
0
2
51
12
0
2
23
6
0
70
2
27
40
0
51
31
16
29
0
61
63
50
0
0
0
0
59
0
8
8
2
2
0
44
4
0
36
6
33
48
0
0
0
0
57
0
25
36
0
6
0
6
36
2
0
0
0
0
6
29
25
36
12
38
14
74
0
2
17
6
68
2
8
46
4
4
0
29
31
2
14
2
0
0
40
0
27
10
38
6
17
12
4
8
66
17
55
6
14
6
0
21
0
25
8
0
0
6
38
36
42
0
0
49
2
0
34
10
6
0
6
93
0
17
36
51
14
89
6
0
10
25
0
8
8
0
32
0
10
0
0
2
4
0
14
21
2
2
0
8
23
70
8
0
34
4
6
33
0
0
12
14
14
27
6
0
0
44
0
25
4
42
0
2
0
29
6
8
14
0
2
19
0
19
0
0
2
0
0
4
2
0
2
0
6
6
8
2
6
23
14
0
14
12
4
6
2
0
16
0
6
4
0
0
12
2
0
32
0
0
42
50
0
0
0
32
51
0
50
59
0
10
2
64
12
0
0
2
19
0
19
0
17
4
17
129
40
6
34
0
4
0
55
81
6
0
0
2
17
44
0
0
2
102
42
2
68
4
12
19
34
2
0
17
27
66
0
0
2
6
19
29
25
2
27
0
14
12
0
4
23
12
0
8
0
12
10
70
29
16
27
12
0
0
0
51
51
0
0
0
21
10
0
0
23
31
32
12
4
32
42
0
0
4
4
0
78
48
44
46
33
2
16
10
6
0
4
2
0
0
2
40
29
0
14
29
36
6
0
25
16
4
17
6
50
0
14
6
12
10
0
25
42
27
21
2
42
6
81
38
12
8
57
17
49
55
140
132
66
4
21
46
0
4
27
2
0
0
34
25
4
16
0
23
0
14
8
0
17
23
0
44
0
10
17
0
50
38
19
0
27
0
25
16
46
0
34
0
8
0
0
0
10
0
10
4
14
2
23
14
36
23
0
0
2
0
34
2
57
19
0
38
0
0
0
10
8
16
4
65
0
44
8
17
0
10
40
6
0
74
4
4
10
4
0
0
4
0
2
0
17
40
4
0
0
55
48
0
0
25
8
2
4
0
49
42
0
2
50
0
27
46
42
38
8
21
0
0
89
17
0
0
0
4
6
0
6
36
6
10
12
2
0
0
10
55
0
0
0
0
16
0
17
0
0
0
53
38
32
2
64
19
34
0
40
4
14
19
2
68
2
0
2
0
2
53
0
0
21
0
10
10
2
19
44
12
0
2
6
0
0
0
46
2
0
2
0
4
2
38
8
6
0
16
0
0
0
0
10
36
19
4
2
0
61
2
14
14
12
6
21
19
63
2
6
17
8
46
8
0
32
6
59
46
10
53
16
0
19
0
29
32
12
10
12
6
83
2
31
0
4
16
33
21
12
4
0
2
12
0
6
0
10
4
0
51
0
25
0
8
12
4
4
53
2
0
23
0
6
36
10
2
21
32
21
38
10
2
6
40
6
0
10
2
0
50
4
76
36
0
6
33
4
0
31
0
4
0
0
4
17
2
12
40
8
4
2
14
6
0
19
2
0
40
0
6
4
21
14
27
0
42
12
10
0
2
29
6
40
0
19
33
21
27
0
2
66
0
21
17
2
89
40
6
4
2
108
46
100
74
16
2
2
59
101
0
38
0
21
0
42
0
0
68
23
2
0
0
34
2
4
23
0
0
25
4
0
0
0
23
8
0
6
6
27
0
0
17
17
4
17
89
34
0
55
4
67
0
4
2
0
0
10
0
8
0
2
0
2
49
27
46
0
0
12
19
0
0
4
23
0
0
21
0
10
14
8
0
0
0
29
0
61
4
0
0
40
0
25
0
8
0
2
21
0
0
14
0
6
0
0
4
0
0
21
70
55
36
17
10
4
44
0
8
38
85
87
59
10
27
87
57
8
57
50
51
36
10
2
44
10
44
16
23
8
17
38
8
19
14
25
2
2
12
8
34
6
4
19
27
29
51
8
32
38
12
0
2
16
31
0
19
10
6
23
4
19
0
2
25
31
34
0
34
2
4
0
31
2
38
6
0
25
23
25
0
17
4
16
8
0
55
0
0
16
42
12
8
0
6
4
4
12
6
2
27
31
14
6
10
2
4
0
8
0
12
23
4
2
0
6
0
0
8
33
0
4
6
21
34
19
8
0
0
42
29
87
0
34
40
81
19
80
72
67
68
8
46
61
2
16
17
40
21
32
65
0
0
0
2
0
2
31
0
33
8
27
12
10
0
0
21
42
14
29
21
29
6
2
4
2
34
0
0
29
89
0
0
0
17
2
2
55
0
2
4
0
12
4
81
4
0
0
0
32
0
4
25
12
2
21
8
0
0
29
0
0
40
0
25
8
19
0
21
17
27
0
29
51
23
0
4
0
4
0
2
0
0
34
0
25
8
0
0
59
2
34
17
23
4
2
2
14
14
17
8
0
40
59
40
34
97
91
82
108
38
50
53
61
23
23
78
46
51
38
57
19
57
2
17
4
0
50
19
23
72
6
6
65
2
21
0
25
0
6
2
0
4
6
23
0
6
0
0
16
6
8
0
32
23
2
0
14
38
50
0
19
0
29
4
0
16
32
4
4
0
12
16
12
23
2
46
2
4
25
0
25
0
16
6
2
0
36
2
17
102
17
31
0
76
6
4
14
46
6
19
6
0
0
2
0
8
0
23
6
16
0
23
6
12
2
42
12
4
0
0
14
19
53
4
55
23
29
82
8
104
2
55
83
48
102
6
44
44
97
0
10
85
76
123
0
87
4
0
0
38
0
0
21
0
38
21
27
4
0
0
0
70
0
0
12
0
0
16
0
34
0
0
0
4
65
0
31
0
6
38
53
0
0
0
10
2
0
6
2
0
4
0
0
42
38
0
25
19
4
0
4
0
12
34
25
0
0
0
34
46
55
10
2
72
0
19
42
2
23
0
23
0
6
36
19
0
27
0
0
17
27
81
32
27
2
19
2
6
0
0
27
2
14
64
27
12
29
19
14
6
82
85
87
74
72
72
131
142
95
118
98
81
49
117
70
40
93
96
12
38
12
0
0
49
51
10
87
80
14
0
4
59
0
0
23
6
40
0
17
10
14
17
4
8
53
6
27
29
10
0
8
0
33
2
6
59
25
0
42
14
0
0
23
4
4
14
4
29
4
4
0
0
0
0
0
2
4
6
25
36
4
0
25
0
2
14
23
0
0
0
2
0
36
4
0
19
6
16
0
14
17
29
49
17
25
0
10
0
4
0
0
0
34
44
6
36
17
4
40
10
12
63
44
17
87
81
57
115
95
102
153
157
152
149
136
136
118
63
108
93
72
55
74
2
4
21
0
0
2
10
46
0
0
4
0
0
19
17
8
2
0
0
16
0
19
29
0
2
2
2
10
34
0
0
12
0
25
49
2
4
0
2
0
4
59
0
0
6
8
0
33
4
8
0
4
0
0
31
4
0
6
29
10
8
2
0
2
53
59
2
21
27
8
6
0
0
10
4
0
10
12
16
38
4
6
59
19
0
23
16
10
72
12
14
10
61
27
10
4
0
16
0
29
27
0
0
68
29
91
76
51
110
145
157
187
181
181
187
176
166
128
114
96
4
34
4
21
4
14
4
10
0
17
21
8
0
0
53
6
23
12
4
0
6
17
16
17
2
0
0
0
2
2
0
14
31
0
0
2
0
32
10
27
0
40
0
8
27
0
4
0
0
32
4
8
53
4
2
44
64
0
0
10
0
4
31
8
4
25
0
17
0
16
12
4
0
34
4
4
10
10
0
0
6
23
0
2
2
29
0
8
46
8
2
19
34
17
80
33
29
12
4
12
59
14
8
8
57
65
2
8
38
38
108
89
102
168
194
208
224
231
227
214
198
163
147
108
102
74
0
55
97
23
49
25
0
59
51
36
0
0
68
2
68
6
40
0
2
0
44
16
2
27
0
0
14
29
17
0
21
40
0
40
0
2
59
14
0
6
0
0
2
2
0
2
0
8
0
8
10
16
0
0
42
27
0
23
0
2
0
17
2
6
44
8
38
0
0
0
0
17
16
14
0
32
40
44
0
27
4
0
25
2
0
6
42
29
6
61
57
0
10
172
210
85
6
46
53
0
46
0
2
0
31
46
87
68
102
136
142
182
216
238
248
250
250
240
229
183
145
89
93
32
2
23
80
27
34
34
27
12
0
10
40
0
0
51
10
14
0
0
44
50
27
17
6
8
0
23
38
21
34
0
31
16
4
0
6
0
29
0
0
0
4
33
0
25
25
0
0
19
34
14
2
21
19
0
2
0
0
10
53
2
2
23
0
6
0
6
0
10
23
6
14
55
2
2
0
2
102
8
4
2
4
0
59
42
0
0
33
27
31
121
50
23
6
53
114
23
0
17
0
0
2
4
19
33
38
85
4
104
115
114
161
189
232
252
255
255
255
255
245
204
168
110
61
89
42
23
93
38
10
63
0
12
19
12
0
55
81
2
0
14
2
0
2
31
44
36
0
0
55
0
68
6
38
8
46
2
0
40
2
23
31
0
40
0
0
6
0
21
4
10
34
0
0
29
23
16
0
0
0
12
0
36
0
36
0
36
0
2
0
12
4
0
19
4
2
17
8
0
21
12
0
2
0
0
51
0
19
17
29
4
2
17
25
55
40
0
0
2
10
0
4
0
44
0
34
16
8
57
4
16
14
80
130
125
159
201
238
253
255
255
255
255
243
213
161
138
110
114
23
59
27
25
49
51
40
0
49
70
53
6
2
16
65
25
0
19
16
0
72
49
10
12
0
17
34
17
17
6
0
4
4
12
48
0
2
46
0
36
19
10
0
34
12
4
0
4
4
27
0
10
0
34
21
2
23
4
14
14
17
10
17
0
2
42
0
2
8
17
14
0
0
16
2
0
17
8
12
0
16
51
2
2
2
0
23
14
23
10
29
50
14
6
23
8
31
0
4
55
6
14
29
8
89
40
106
80
106
136
130
170
231
248
255
255
255
254
245
214
174
136
48
74
10
8
70
0
6
40
2
0
40
21
6
33
0
36
0
21
0
36
2
0
17
4
2
40
4
80
0
4
0
4
0
0
17
23
0
0
34
0
19
25
51
4
0
0
29
38
0
0
23
8
0
14
4
0
64
0
0
4
0
4
59
2
0
4
0
6
8
0
8
6
19
0
19
23
14
23
21
23
59
27
55
0
17
0
6
2
0
46
2
4
0
27
38
25
4
12
17
17
2
6
6
0
10
19
51
6
87
27
74
128
135
178
218
237
250
255
254
250
235
208
165
135
104
101
42
76
8
44
4
14
48
29
21
25
0
4
36
16
72
12
21
32
2
19
2
0
14
48
0
6
46
2
6
33
2
4
4
6
10
6
8
4
2
31
2
19
2
12
0
25
0
8
14
8
4
34
50
4
10
0
21
6
2
66
27
53
14
10
4
14
17
14
8
12
8
17
0
6
10
6
19
46
27
8
6
2
0
23
61
0
6
17
0
4
27
29
6
10
10
12
6
25
40
0
2
4
8
10
0
21
70
55
78
117
119
157
176
206
229
247
235
234
210
187
157
119
76
53
16
78
27
65
0
25
0
0
0
27
8
21
0
0
0
4
2
6
0
2
53
10
4
72
0
2
0
0
6
0
0
14
0
44
32
38
76
17
0
10
0
46
4
6
2
12
0
4
0
36
0
0
0
0
2
40
0
32
12
0
4
0
0
0
0
0
0
4
0
21
4
34
12
0
0
2
2
0
27
12
0
87
0
12
2
0
10
44
0
0
4
12
0
65
32
36
4
10
16
21
0
10
0
70
2
6
4
48
80
110
149
172
160
181
184
209
215
209
181
163
153
116
102
93
0
55
0
8
0
46
0
21
0
12
2
38
33
4
0
0
44
23
6
8
10
89
33
4
31
12
4
12
49
10
0
34
0
14
23
14
0
4
34
2
0
2
0
0
14
10
2
0
10
10
0
27
0
14
29
0
4
25
2
25
2
38
29
0
14
10
2
10
6
21
0
0
4
2
0
19
23
14
51
8
100
115
135
89
38
0
0
38
27
19
14
29
0
23
2
4
25
44
38
0
25
0
8
17
53
64
68
110
78
32
78
108
128
169
155
174
182
159
132
147
104
78
10
76
2
32
6
34
0
23
55
14
29
27
12
0
8
2
0
10
6
63
34
0
0
51
4
8
44
42
23
6
2
14
34
0
2
0
4
0
0
0
0
2
17
2
0
0
0
25
0
25
46
0
29
0
6
25
10
59
0
25
0
19
27
32
0
4
0
12
0
27
36
0
0
12
4
0
2
17
6
0
0
2
97
197
192
66
44
0
10
25
78
25
4
0
4
0
14
4
4
38
0
0
25
19
25
10
67
59
0
68
27
72
95
80
110
55
144
130
136
118
133
91
106
102
50
27
55
0
55
0
34
10
32
4
0
6
0
2
63
19
17
10
0
53
46
25
27
6
59
12
2
23
14
8
2
2
23
8
12
2
0
23
0
0
0
10
19
38
0
0
0
0
0
0
10
12
0
0
0
14
2
6
0
0
4
10
8
14
55
6
4
0
31
0
16
38
55
0
4
0
8
0
0
44
46
14
25
74
110
16
8
14
0
21
6
8
68
16
8
4
17
0
55
12
4
14
0
6
17
6
42
8
0
0
8
48
78
87
57
102
119
72
87
119
95
74
108
55
10
25
0
4
0
12
57
55
0
0
0
2
4
0
0
0
46
19
38
0
4
6
50
16
0
27
0
93
0
8
25
36
70
0
0
0
0
2
4
0
0
23
8
44
0
0
0
4
6
12
2
6
6
23
8
0
0
0
29
0
0
12
8
21
0
21
2
0
10
2
0
4
0
17
12
4
4
0
4
38
25
6
10
17
21
93
16
0
0
0
55
32
12
0
0
14
10
0
0
0
14
0
34
12
12
21
38
50
0
65
27
31
2
46
72
80
34
96
115
106
78
106
83
68
4
85
16
10
8
23
8
23
10
0
4
14
2
0
4
17
2
27
6
4
4
0
29
2
38
8
25
0
27
0
29
0
29
4
19
4
0
0
17
36
6
0
10
17
6
14
0
34
10
21
8
6
0
12
0
0
0
53
0
36
2
19
14
4
0
51
19
12
0
14
4
6
78
21
0
17
25
4
6
4
36
6
4
29
6
4
8
4
59
0
0
8
6
19
6
14
0
0
17
32
21
51
12
2
17
21
0
40
0
23
25
85
0
72
76
95
29
46
81
46
101
89
0
100
38
31
64
38
17
0
2
76
2
19
10
21
0
0
0
0
40
0
12
44
21
0
57
0
0
17
0
31
0
0
0
10
2
14
17
46
0
0
0
0
27
0
67
0
0
81
0
50
6
59
0
0
0
2
0
0
4
0
10
17
59
40
0
21
4
12
19
0
0
0
2
21
2
19
21
12
66
33
46
10
46
48
0
42
8
53
16
12
59
84
0
72
8
16
49
0
19
53
2
42
2
21
4
42
0
25
84
32
14
46
21
38
23
17
4
68
67
96
57
102
84
83
61
27
17
23
25
38
4
44
23
4
44
23
42
4
0
14
0
0
0
16
4
21
17
6
8
25
0
4
40
65
2
25
19
29
10
12
6
8
0
4
17
0
4
38
4
0
0
63
27
21
4
17
33
0
0
8
10
14
12
2
16
8
42
0
0
0
23
16
0
0
8
42
42
0
0
0
21
40
14
2
0
0
14
0
17
4
4
10
53
2
0
0
0
0
51
8
23
48
12
6
0
0
0
6
4
0
16
27
23
31
38
2
57
32
17
14
21
27
119
70
117
42
68
40
4
50
40
38
42
57
19
25
0
17
4
4
17
23
19
0
6
23
0
14
4
0
31
4
2
61
0
0
0
0
74
14
6
6
0
12
46
33
0
70
4
34
2
50
2
0
0
4
0
0
59
59
38
8
14
14
27
0
0
27
4
6
10
23
17
0
12
4
0
0
2
10
17
32
17
0
2
46
0
14
27
0
0
0
19
0
33
0
4
6
8
2
0
8
12
0
0
14
0
0
0
14
2
0
23
16
0
17
0
33
21
17
12
65
70
66
78
50
38
19
0
68
72
38
67
4
4
6
14
46
0
0
53
70
14
53
8
0
6
10
0
14
29
29
0
31
8
0
0
0
0
17
27
27
0
0
0
17
4
10
17
0
10
0
0
10
36
4
0
2
19
57
0
21
8
0
57
2
4
4
19
21
0
27
72
0
0
34
0
12
10
25
2
2
4
0
2
8
14
51
27
0
17
2
0
4
6
49
0
68
8
0
61
29
4
0
10
10
34
0
0
2
25
4
0
6
2
21
42
19
78
38
61
16
14
0
2
46
102
0
12
0
8
0
2
2
2
0
8
10
0
36
0
0
17
2
46
4
0
4
36
49
78
0
101
10
8
12
8
14
6
38
36
4
8
36
0
6
17
2
23
40
6
0
0
2
16
14
4
6
6
0
16
0
6
19
8
0
0
0
21
2
0
0
12
0
8
0
0
0
4
0
0
2
4
0
6
34
0
31
4
2
12
4
0
2
19
0
16
4
0
80
2
53
6
0
29
14
32
12
0
6
12
0
14
74
14
6
0
4
6
4
25
2
4
34
29
2
36
19
0
76
31
57
33
8
0
29
14
0
46
27
32
2
0
21
14
6
40
12
4
12
4
0
0
42
46
14
14
10
51
0
38
0
8
8
0
8
0
34
14
0
16
27
19
0
4
29
0
12
0
4
4
0
0
8
14
17
40
29
2
4
8
8
0
46
0
0
40
17
0
0
8
74
2
25
29
0
4
0
4
2
4
61
12
10
38
8
0
2
6
8
4
8
14
48
21
42
12
0
34
2
0
19
6
14
10
4
0
23
17
27
23
6
12
10
4
12
19
17
2
17
0
40
0
51
55
10
21
6
70
8
10
36
8
4
29
0
23
2
14
19
4
12
0
27
2
8
0
14
0
23
0
2
34
34
61
12
0
8
19
2
0
0
72
25
10
14
0
4
0
0
4
61
4
6
72
0
23
29
19
44
2
2
17
17
0
4
0
4
0
0
0
29
0
4
2
10
23
2
2
4
8
42
23
53
19
4
2
21
12
0
4
48
0
46
38
25
0
0
0
14
29
4
55
17
10
14
8
23
25
12
48
12
0
6
0
27
42
14
0
12
0
21
8
2
25
0
12
14
16
6
34
67
0
23
33
38
4
36
0
2
6
25
59
53
34
2
0
46
2
17
0
0
2
0
0
2
0
0
6
0
29
42
0
6
42
21
48
0
0
0
21
0
6
6
0
17
53
50
0
2
93
29
89
21
4
40
8
14
8
4
0
2
2
46
0
0
0
6
6
0
12
0
4
14
2
12
4
2
12
31
10
8
34
19
6
29
61
0
12
19
10
32
4
12
10
16
14
14
6
0
4
6
17
12
19
32
10
25
6
2
10
12
36
10
0
14
25
21
0
10
0
2
6
0
59
31
0
40
4
23
0
61
32
0
0
4
17
10
12
4
4
19
19
8
29
12
0
6
0
6
34
10
0
8
12
0
23
19
46
0
4
0
0
0
10
0
4
0
6
0
50
0
0
4
78
12
61
10
34
0
0
0
14
0
0
6
19
4
40
32
8
2
57
0
36
0
29
0
10
0
0
14
12
32
0
33
14
44
72
6
2
0
16
40
4
0
17
53
4
0
0
2
6
0
0
17
12
10
32
14
0
0
6
4
23
63
53
14
2
6
0
6
19
38
34
17
6
4
14
0
0
0
0
19
36
0
8
0
46
17
53
10
36
21
17
19
21
17
63
8
53
16
2
0
0
0
0
10
0
32
0
16
27
0
0
42
8
4
0
36
10
14
51
0
0
8
55
6
19
14
0
0
14
0
44
8
12
0
0
0
27
2
2
27
31
2
10
19
0
0
23
8
0
0
48
12
51
23
17
55
0
2
0
70
8
14
19
4
0
0
0
14
0
59
0
0
6
0
0
23
23
10
0
29
0
19
23
19
0
2
33
0
2
12
40
44
6
29
8
6
87
4
34
8
27
40
0
2
2
17
10
36
85
8
0
10
2
8
0
0
59
8
57
23
0
0
44
8
16
25
19
0
6
8
0
0
0
0
0
0
23
10
4
12
0
2
25
16
0
38
66
50
32
0
25
6
0
6
0
10
4
12
14
72
70
0
0
34
8
57
8
36
4
12
0
25
4
14
23
16
32
4
10
4
4
12
25
12
74
85
100
80
29
42
25
4
0
0
19
12
29
46
0
21
8
6
0
0
49
12
0
0
0
10
4
2
4
4
55
46
0
23
27
44
0
34
0
14
0
25
17
4
10
4
21
36
38
4
0
55
0
10
0
4
23
10
14
0
23
17
4
0
2
14
0
25
23
17
25
2
2
0
0
0
0
8
0
14
2
12
6
10
0
19
14
17
68
19
66
0
4
6
36
48
19
0
10
6
2
6
0
0
0
29
0
0
4
0
0
64
12
0
0
6
0
4
6
10
40
34
66
97
151
110
70
2
0
21
12
0
12
0
29
21
21
0
8
19
44
4
16
8
0
53
4
6
36
0
42
36
83
25
4
44
68
14
67
12
17
23
34
2
17
0
0
2
12
6
46
4
6
0
6
40
2
0
0
10
0
0
0
4
6
8
12
10
8
6
8
8
4
14
4
0
0
70
12
17
6
0
0
25
2
21
55
0
6
67
0
8
0
10
19
6
0
12
12
0
0
34
2
34
53
29
16
4
0
23
6
17
29
0
10
14
10
0
10
27
6
4
14
51
4
21
112
177
163
48
32
33
0
64
0
0
53
2
2
19
2
14
4
40
0
14
0
59
17
0
16
25
2
42
10
38
27
2
8
17
17
50
0
0
6
8
19
0
40
14
0
31
0
17
0
17
0
2
34
4
0
0
0
23
53
21
19
19
44
16
6
8
2
0
10
16
4
0
0
2
6
14
0
12
50
44
27
0
8
17
2
27
2
8
8
0
0
2
46
23
10
0
40
2
0
6
0
8
10
17
4
0
6
19
2
8
17
14
108
51
10
8
6
0
6
6
12
0
0
72
172
242
204
101
2
0
10
0
4
8
14
8
0
2
8
2
2
23
4
0
25
6
16
6
14
6
19
10
10
8
0
68
91
51
12
4
0
8
0
19
14
17
0
4
6
0
0
0
0
2
0
59
2
8
50
12
0
19
14
0
25
44
6
12
12
0
2
17
0
0
12
40
49
4
17
14
0
21
14
33
6
0
0
17
4
8
0
12
2
10
46
0
6
8
0
4
8
46
21
2
0
4
34
4
14
0
0
8
42
0
2
2
21
4
19
0
8
0
0
23
4
2
21
23
153
221
204
100
44
32
27
6
4
8
17
0
2
2
14
0
61
12
0
10
0
38
10
0
0
8
36
0
2
57
0
55
4
29
80
36
2
8
29
0
0
27
23
0
14
17
0
42
42
8
36
0
8
14
27
25
25
27
44
17
17
21
2
0
4
4
0
0
0
8
70
12
0
2
68
2
12
17
6
6
8
10
0
0
16
4
10
14
70
27
29
2
68
6
19
17
8
0
8
10
6
23
0
33
2
38
8
0
12
19
0
12
46
6
8
61
21
6
6
0
38
6
8
40
61
104
148
110
27
0
23
10
0
36
23
17
0
16
34
4
6
4
23
8
2
0
8
29
4
0
31
19
27
17
0
40
33
0
34
0
46
4
0
10
6
14
16
8
0
34
44
12
2
0
68
2
4
2
14
0
89
8
29
10
42
2
0
19
0
0
0
34
17
34
0
0
0
64
0
4
0
16
25
4
8
29
21
2
0
38
4
19
0
27
29
34
2
6
6
10
0
4
29
19
12
16
4
44
0
8
34
23
0
21
10
34
87
0
6
25
21
8
12
2
0
0
8
44
16
46
44
17
16
14
2
6
12
19
19
57
14
0
0
0
4
4
33
0
4
8
10
0
23
0
21
4
16
17
2
29
32
21
0
4
0
12
0
8
0
0
4
38
33
23
6
0
0
6
2
25
19
4
25
4
2
27
0
31
2
4
6
0
8
0
29
0
14
2
12
0
2
25
4
14
46
49
0
8
2
0
6
0
50
0
2
2
0
2
2
17
2
14
2
42
17
6
10
6
0
12
6
4
19
12
0
12
0
6
0
2
0
0
6
0
21
0
10
6
17
8
21
0
48
0
21
59
4
10
4
19
44
14
80
21
10
12
10
10
25
10
16
2
8
0
0
2
63
29
2
0
6
23
14
23
76
0
34
0
32
12
27
8
25
32
8
0
0
14
29
0
8
36
0
12
17
8
17
0
2
12
8
16
8
2
16
6
10
0
4
12
40
12
59
8
0
19
12
25
6
4
6
16
0
12
34
17
0
0
23
4
65
0
10
0
87
6
0
12
10
2
0
6
76
0
6
25
36
6
4
25
17
4
12
4
34
4
2
0
0
0
23
0
6
0
0
12
8
2
0
38
14
0
4
40
23
27
0
10
57
10
33
10
0
29
6
0
0
32
19
0
0
8
0
29
6
32
10
6
0
2
2
0
0
12
93
14
29
27
8
32
0
0
14
0
40
27
0
36
32
2
16
4
0
29
14
2
2
4
0
42
0
57
12
12
12
0
0
2
0
4
23
0
12
8
25
21
6
17
6
0
32
42
0
6
8
8
0
0
64
4
10
0
2
12
34
2
8
10
74
17
17
8
0
17
6
33
0
2
0
2
0
21
8
4
23
0
46
10
12
6
4
2
14
4
57
51
33
0
53
4
4
14
23
29
2
74
0
0
0
70
14
17
8
27
21
4
6
4
34
0
0
2
27
0
29
2
8
23
27
61
51
19
29
4
23
14
2
0
6
0
2
14
0
0
0
6
2
0
21
2
46
25
0
0
17
32
4
8
6
4
4
8
0
14
2
0
19
2
57
25
6
0
72
8
14
10
8
10
2
0
0
10
27
2
0
4
2
25
2
0
8
16
17
0
0
2
6
10
0
0
6
29
0
19
0
12
0
53
19
2
67
0
0
16
0
12
19
10
0
40
12
2
0
50
6
4
53
2
6
0
12
14
4
19
0
17
0
21
2
0
21
0
17
16
10
0
29
0
55
4
59
0
17
0
55
4
0
10
36
16
19
6
0
23
68
82
128
55
4
17
0
12
0
0
8
34
17
12
14
8
6
0
6
4
29
59
0
4
76
21
6
0
17
36
17
29
8
0
0
0
0
21
4
2
21
2
10
32
8
0
36
8
0
19
6
8
14
2
12
23
29
0
2
2
2
10
0
17
4
6
4
0
19
12
2
0
44
0
12
0
12
10
4
17
2
0
29
0
8
2
27
36
2
2
29
32
6
0
0
0
31
0
12
14
34
23
27
12
23
16
6
0
46
8
0
2
19
14
16
6
25
33
0
2
32
42
0
2
0
12
66
34
0
29
6
10
14
8
0
4
2
8
2
12
0
12
0
25
46
0
25
0
0
0
46
42
61
40
51
4
0
4
6
2
10
4
6
0
38
0
12
10
38
14
59
4
19
14
0
0
27
0
0
0
19
50
0
21
0
6
12
19
0
2
36
8
0
2
32
42
25
0
10
6
14
2
44
0
17
46
12
33
21
16
2
2
23
4
17
4
0
36
4
0
21
40
17
33
42
19
17
0
38
2
0
36
19
0
0
42
8
135
50
10
0
21
53
10
12
17
0
27
0
40
72
0
8
0
12
0
16
8
6
0
8
21
0
0
8
51
4
4
23
0
6
2
0
14
59
135
12
0
0
10
0
14
0
40
0
0
4
4
85
0
140
2
19
36
17
0
4
8
8
0
31
19
0
17
4
40
40
4
0
12
38
2
23
63
21
0
0
0
8
21
4
10
0
8
4
21
0
17
17
34
31
0
0
0
19
0
21
10
0
8
0
32
0
0
19
10
0
0
21
0
0
14
23
0
0
0
0
12
0
27
0
110
91
17
0
14
27
16
2
0
0
14
0
6
0
65
38
32
8
8
2
14
0
29
19
0
2
48
4
32
12
0
29
23
42
27
14
2
2
89
42
0
38
6
19
4
4
17
14
10
0
6
0
23
0
25
0
10
2
2
8
12
0
6
55
17
21
16
32
44
21
6
0
2
0
0
12
10
19
27
21
32
8
4
25
0
4
19
6
14
2
31
21
0
4
12
0
25
0
0
0
6
51
21
27
12
51
0
2
4
0
4
57
12
4
10
4
19
55
2
0
8
0
0
2
27
74
4
2
0
0
48
8
23
57
21
0
0
0
32
0
0
0
34
87
14
95
10
10
27
0
17
4
0
2
14
40
32
0
4
17
6
4
27
0
4
0
0
19
2
29
0
23
0
0
0
27
4
0
0
0
6
0
8
23
34
0
0
0
0
10
19
6
27
0
2
10
0
4
61
4
29
10
0
16
6
0
6
17
87
0
16
0
0
0
0
14
12
42
0
31
0
12
0
0
0
0
0
23
19
17
0
0
0
0
8
6
4
2
2
0
17
2
57
4
19
21
36
34
42
0
2
74
0
27
14
4
2
6
4
0
23
2
12
0
14
0
74
157
142
51
6
0
33
21
0
0
4
6
67
4
0
0
10
0
0
0
8
4
0
0
0
2
36
44
0
4
2
6
6
8
0
0
10
29
29
19
17
19
21
8
6
0
6
10
0
4
12
14
17
0
0
8
0
6
23
16
2
8
0
6
0
38
4
12
21
29
10
8
10
2
10
17
10
0
8
8
10
4
53
17
19
4
55
0
23
42
0
44
19
49
40
44
53
17
50
0
4
0
0
0
59
0
4
4
0
6
0
0
2
0
8
38
8
53
17
46
16
10
12
108
85
189
102
0
40
10
36
0
36
0
8
8
14
10
0
0
0
2
0
0
29
87
21
0
14
0
2
51
2
4
2
0
2
0
14
0
0
10
10
0
0
0
12
0
8
36
2
0
0
21
17
4
50
2
80
0
29
4
27
12
0
16
0
51
46
72
6
4
50
0
10
12
2
10
6
0
10
0
0
19
29
0
12
4
2
0
0
2
2
57
16
14
25
29
29
98
29
4
6
25
0
6
0
2
29
14
0
0
53
0
29
6
2
4
0
0
2
29
0
6
0
19
36
70
142
106
21
0
2
46
4
0
6
14
8
59
17
4
38
2
17
8
38
6
29
0
4
17
10
19
19
0
0
2
2
21
0
0
27
38
2
10
10
6
4
10
10
17
0
0
0
27
0
19
0
48
0
4
2
0
2
4
6
4
0
19
19
0
0
8
0
40
10
0
0
21
50
59
4
0
6
21
25
4
34
4
17
21
0
0
6
0
32
0
40
17
74
29
113
119
67
0
4
6
12
0
34
12
8
29
46
33
55
0
0
12
12
49
14
0
12
6
0
0
53
0
6
76
57
4
66
0
0
4
0
36
34
0
8
0
2
55
38
0
0
0
42
0
38
27
0
53
61
8
27
0
40
0
33
0
0
17
14
34
8
2
0
19
0
34
4
0
0
6
29
10
25
0
14
0
12
2
0
2
27
0
33
4
46
16
12
0
14
0
12
4
10
0
12
0
14
6
10
48
0
40
12
12
8
23
0
0
101
19
44
4
42
8
70
0
61
81
150
157
110
80
38
70
53
6
32
0
0
0
0
0
53
36
29
6
0
0
23
29
89
147
84
14
46
40
23
29
40
8
17
8
6
10
16
23
0
4
12
6
4
0
4
17
29
44
8
16
34
0
0
14
27
0
8
10
10
0
14
25
0
0
0
0
10
49
17
8
4
17
21
57
0
0
33
51
14
10
10
0
12
17
0
2
10
6
0
12
4
2
0
44
0
12
6
6
23
19
0
10
17
0
21
17
36
25
2
8
10
4
0
0
21
0
29
23
0
44
2
12
119
123
174
135
76
0
12
70
93
0
31
14
8
48
76
0
0
2
4
0
4
2
85
152
125
189
106
0
21
31
0
14
8
12
10
12
0
8
10
46
4
0
63
4
27
44
0
10
33
0
16
0
23
0
0
6
29
0
27
2
14
0
2
67
0
0
0
2
0
2
0
8
6
0
4
2
8
38
8
0
0
2
6
0
0
16
6
76
0
0
8
48
0
36
19
8
4
14
4
2
16
4
8
33
0
0
4
57
0
4
12
21
21
0
0
10
0
17
12
4
12
42
14
0
132
161
170
142
106
34
91
145
106
44
12
0
21
10
0
8
0
27
14
21
17
2
59
102
55
31
17
16
16
14
0
4
0
0
0
16
0
8
12
0
2
0
49
12
0
10
44
2
8
6
48
23
14
0
10
4
0
42
2
6
2
0
21
8
0
14
19
0
40
14
14
0
0
16
0
2
0
2
10
10
40
0
0
0
6
2
19
2
0
8
0
21
0
6
17
6
6
34
33
2
53
0
0
6
19
12
25
2
32
51
0
48
2
40
12
12
8
85
10
82
6
36
16
87
114
144
161
121
76
49
80
121
34
25
0
51
8
2
2
0
16
51
14
0
6
2
36
4
67
57
0
19
14
46
51
8
0
63
4
0
4
10
4
4
0
8
29
12
19
36
134
136
25
0
0
19
38
14
0
0
0
12
17
0
6
50
8
0
0
8
0
8
10
40
0
0
12
0
8
2
0
10
0
4
4
6
19
0
21
25
8
14
55
8
0
2
14
10
8
0
12
4
19
23
0
0
0
25
17
8
36
10
34
36
0
31
51
8
12
59
113
108
74
104
19
59
14
112
212
119
99
61
6
2
0
19
61
38
12
0
29
0
29
0
4
23
0
12
25
46
38
0
17
23
16
0
4
2
2
17
17
0
10
0
0
0
14
4
4
4
31
4
6
6
123
198
61
36
0
0
27
6
6
0
0
2
2
4
2
0
6
6
6
0
38
0
32
8
0
6
4
46
0
40
14
0
0
29
17
0
10
57
38
0
34
0
2
2
14
0
21
0
19
4
10
0
0
0
16
25
57
32
10
27
8
0
6
0
8
0
25
34
119
147
147
108
161
161
32
72
36
55
136
83
29
31
25
19
42
0
29
27
6
44
46
2
25
21
17
2
50
25
0
0
4
21
0
0
6
8
25
0
0
0
12
4
2
27
38
0
6
0
12
4
4
78
6
14
87
10
44
63
0
8
65
0
4
0
19
0
0
40
2
4
0
0
0
0
21
0
21
4
59
4
0
0
55
0
12
27
12
2
2
2
2
4
0
19
19
8
0
31
10
8
0
0
10
4
29
0
2
0
38
6
0
0
0
2
0
8
4
10
8
25
50
14
95
78
100
113
136
150
123
83
57
0
44
67
55
51
6
29
17
21
0
68
8
0
34
2
8
14
0
0
0
48
4
2
0
2
40
14
6
0
0
0
2
6
4
0
0
4
6
6
12
0
4
0
2
0
53
0
17
76
6
0
0
31
72
25
6
0
6
0
2
4
29
19
16
2
10
16
25
36
6
33
74
17
46
0
57
17
23
0
0
16
25
14
12
0
0
0
0
51
4
10
12
0
31
42
2
2
12
42
10
8
4
0
42
12
10
6
19
0
40
31
0
0
10
6
6
68
40
4
84
89
123
155
89
36
4
19
10
4
12
61
0
0
8
40
23
78
53
0
46
0
55
14
2
0
0
34
70
89
0
14
4
0
17
0
0
8
8
14
8
0
6
36
0
0
10
6
46
0
0
8
40
0
25
6
29
44
51
23
4
61
12
19
0
12
4
4
32
31
10
0
10
12
0
46
14
23
0
0
19
4
27
44
6
48
16
0
33
0
0
6
57
2
0
0
40
17
6
6
0
16
2
78
0
0
12
0
44
63
4
0
78
17
34
0
46
49
19
36
0
48
17
40
0
49
42
108
89
61
42
8
0
0
31
53
17
36
14
4
23
38
8
0
10
0
0
2
12
31
10
0
6
59
25
23
19
0
21
2
25
2
6
0
0
4
38
0
29
0
10
6
0
0
0
8
36
34
10
2
27
53
12
4
55
4
6
0
0
6
10
0
14
0
6
29
55
25
25
36
42
70
65
8
133
8
0
6
4
29
49
38
10
0
17
0
19
6
6
4
0
10
0
17
2
0
0
6
0
31
23
21
2
12
2
6
19
27
21
14
0
40
17
14
0
44
21
0
12
12
14
8
6
0
10
0
0
8
14
12
25
8
0
14
72
10
0
14
19
2
0
0
57
0
34
12
36
23
0
0
12
0
0
0
29
2
2
17
8
8
25
14
17
0
6
31
14
0
4
2
2
12
14
0
12
33
33
0
2
8
25
17
0
19
0
4
34
0
2
25
36
33
8
93
64
67
101
0
66
12
48
51
16
80
65
0
2
4
2
19
0
0
0
19
44
4
0
48
17
42
33
2
17
2
0
2
42
0
40
0
0
6
0
27
4
0
0
8
10
0
6
0
8
23
25
0
17
2
0
61
8
12
8
6
34
0
0
25
42
29
4
4
34
0
33
27
2
82
34
0
4
40
8
16
53
4
12
0
6
0
19
0
44
6
12
0
19
0
17
68
16
6
2
12
2
42
10
42
8
6
0
40
27
0
0
0
10
0
23
4
0
12
59
57
70
123
101
157
183
194
161
74
72
6
14
6
0
40
87
8
27
0
10
0
6
40
12
0
42
4
2
19
2
23
12
8
29
0
12
8
10
0
2
17
4
23
2
38
0
14
0
53
0
19
38
0
27
10
10
14
2
2
14
16
21
0
36
4
8
0
38
59
0
0
6
2
2
4
6
0
25
55
78
4
25
2
49
23
29
6
21
23
4
4
0
0
53
4
29
55
17
0
17
0
0
0
42
6
4
29
29
44
10
0
27
66
19
0
6
25
10
61
12
68
46
31
4
85
145
196
198
195
215
213
170
0
57
2
25
2
21
0
17
0
0
12
10
38
4
65
34
0
14
25
8
0
2
0
0
10
4
29
0
38
14
0
12
14
10
0
0
0
8
23
10
38
0
36
42
4
0
0
23
17
61
0
0
0
4
0
25
44
0
6
10
44
38
0
0
6
14
2
19
0
21
0
42
6
2
17
0
108
85
51
19
19
34
53
23
4
0
33
36
8
2
2
0
27
6
17
2
6
0
50
12
46
12
10
25
4
14
14
0
44
0
19
8
42
59
80
102
142
187
224
227
212
204
223
145
4
27
42
0
59
21
4
31
4
82
29
8
8
2
8
44
10
2
17
12
2
2
0
34
4
0
4
4
17
16
2
10
2
8
0
2
4
8
23
29
46
0
14
6
12
8
33
10
14
14
36
14
8
21
6
12
0
23
4
40
14
0
42
14
0
27
21
0
10
0
14
8
21
0
0
17
97
170
127
91
34
46
2
70
0
19
6
0
0
8
53
0
59
19
27
21
8
14
0
2
19
116
87
10
2
0
40
8
2
0
8
0
12
149
191
182
197
210
240
252
206
161
152
84
51
0
74
23
4
25
4
17
6
10
8
0
0
19
55
50
0
0
2
4
0
23
14
23
8
6
34
2
36
25
0
19
17
0
23
0
46
61
51
6
2
2
21
14
32
14
25
8
2
0
46
0
10
0
8
12
2
2
0
4
2
10
10
4
4
10
0
12
46
17
6
0
8
8
32
10
84
144
194
95
19
2
0
8
6
27
6
12
17
8
10
53
40
29
44
4
89
4
42
82
23
70
116
27
0
19
4
2
0
0
4
6
98
153
235
249
250
250
245
249
199
172
121
14
14
33
8
0
0
17
0
0
0
23
0
8
10
4
0
6
29
19
0
2
17
2
0
6
48
17
46
14
6
17
17
10
0
12
14
27
0
0
12
6
0
21
4
6
4
0
17
6
19
19
36
17
55
0
4
55
4
10
36
6
8
2
44
14
12
10
0
23
10
36
85
42
102
32
23
0
98
36
21
12
0
36
17
29
4
0
4
27
0
4
6
2
2
25
4
0
17
46
106
102
125
55
4
0
16
6
0
4
0
14
0
6
17
140
195
238
238
228
220
232
181
125
29
10
4
59
12
16
4
14
0
27
4
14
21
6
0
0
78
0
0
12
0
4
4
2
19
0
17
0
0
0
2
8
21
0
23
68
32
44
19
4
4
10
8
19
21
19
6
0
16
0
10
6
27
8
2
40
0
38
78
4
0
6
0
12
8
6
0
16
76
59
61
10
0
4
57
6
21
0
46
31
38
6
27
44
4
32
21
4
38
14
27
25
2
29
16
84
91
70
27
78
108
142
157
72
0
6
14
6
0
2
4
0
12
25
10
46
140
136
163
164
127
118
118
66
36
2
4
0
14
6
0
0
53
51
19
10
0
8
0
4
17
61
4
0
36
2
0
0
34
12
0
0
0
0
0
6
0
12
0
2
14
61
2
14
12
29
68
4
2
31
8
0
0
0
19
32
16
8
6
2
38
25
23
0
2
14
34
6
4
0
8
0
6
10
65
8
65
6
8
0
16
19
59
21
0
0
0
27
12
4
44
0
14
10
44
4
44
0
4
36
83
101
172
142
132
155
42
36
2
19
0
10
12
51
6
61
72
49
40
6
12
61
114
102
70
68
31
42
6
16
27
12
0
8
2
10
0
14
14
0
2
10
2
0
4
46
0
0
10
0
2
0
8
19
0
0
12
17
29
16
0
70
55
0
2
19
0
50
2
42
0
8
32
46
81
29
57
0
6
0
27
0
4
14
19
40
10
21
12
17
0
57
2
2
68
4
14
8
6
0
6
23
0
0
61
6
0
10
10
12
2
10
0
4
0
2
4
0
27
0
0
38
2
57
91
192
247
221
29
68
93
17
8
10
53
29
0
0
0
53
59
0
61
2
25
2
4
8
6
40
0
4
0
44
0
21
4
12
12
0
4
2
32
0
10
21
0
6
46
2
23
0
33
10
19
14
10
76
8
4
17
55
17
50
12
0
4
46
14
19
53
31
55
46
25
14
4
49
0
4
21
19
2
46
0
14
4
0
4
19
0
31
6
2
0
0
0
2
0
2
0
8
57
78
32
0
25
17
0
0
17
23
0
2
0
0
0
16
0
46
0
25
12
4
4
23
32
29
144
180
249
226
72
67
44
14
8
29
29
53
8
27
0
16
0
68
17
50
34
10
49
0
0
65
46
32
53
46
4
2
6
2
0
36
8
25
2
0
0
21
0
6
8
23
8
2
10
21
10
53
63
44
0
34
0
0
36
59
14
23
29
29
6
55
0
76
64
89
34
0
0
0
0
4
74
19
17
36
6
0
4
12
55
6
0
0
8
2
12
19
67
14
0
23
4
36
6
4
0
31
61
36
4
29
0
0
0
14
4
21
0
0
31
4
8
17
8
4
8
21
19
81
133
135
201
172
83
4
0
6
46
2
32
19
0
19
38
34
6
8
0
0
8
17
0
78
6
0
0
2
0
21
0
0
16
10
0
42
16
12
16
0
44
34
53
10
2
6
17
6
12
2
21
8
0
8
10
0
0
34
12
16
0
0
6
23
34
89
142
152
150
123
82
97
46
84
55
27
74
38
6
27
29
6
23
16
33
8
6
0
0
0
0
12
0
0
8
0
4
27
27
12
8
6
8
2
0
0
16
25
12
17
4
19
14
0
0
6
27
6
6
4
6
0
36
89
10
64
53
38
17
38
2
29
29
2
0
10
6
17
10
6
0
0
0
0
0
0
8
0
0
17
14
0
0
0
0
2
6
2
12
4
0
0
0
0
17
10
2
12
10
0
16
6
27
6
38
0
40
55
0
2
51
46
2
2
57
21
42
114
136
196
218
221
216
187
136
102
87
108
100
38
0
10
0
0
0
0
0
0
0
4
34
34
50
6
34
27
23
0
2
21
8
32
0
4
0
21
2
4
10
0
51
8
36
6
40
12
8
4
0
0
16
8
12
16
0
14
91
84
65
55
33
0
23
25
14
6
19
8
42
34
2
0
44
0
0
32
0
6
8
19
51
4
8
25
8
10
8
21
21
40
0
4
4
2
8
2
29
0
44
0
2
0
0
21
10
4
23
4
6
32
14
27
8
2
34
0
8
4
50
25
104
136
197
217
230
221
214
182
150
119
110
119
76
57
38
14
34
12
0
2
0
25
34
10
6
0
0
21
0
2
8
0
25
14
29
27
14
29
23
23
19
25
0
0
12
8
12
17
8
0
44
8
0
51
59
0
0
17
64
72
10
104
49
6
8
23
19
2
76
8
36
2
0
36
0
16
0
0
23
2
0
12
6
0
0
8
2
0
4
19
0
6
0
8
0
23
14
32
21
27
0
2
14
0
0
2
0
17
19
21
6
16
34
8
0
0
6
21
0
4
19
27
44
46
87
169
189
202
213
209
197
187
179
140
118
59
25
12
0
50
0
0
12
25
27
67
36
21
2
10
6
40
0
6
36
0
61
6
23
65
14
12
2
4
6
14
44
6
16
8
61
65
0
0
8
64
0
0
14
0
25
10
10
16
53
44
2
0
38
55
4
36
27
27
38
2
0
6
10
8
10
17
19
49
53
27
0
31
33
6
17
0
0
2
0
4
2
8
51
0
23
21
4
2
6
4
0
10
17
2
0
14
16
38
8
0
4
21
2
34
0
4
29
27
0
25
48
76
131
165
189
187
191
195
191
169
119
116
57
34
53
0
8
2
0
40
0
0
10
31
14
0
6
42
55
76
6
83
29
0
36
38
44
0
23
0
40
4
42
40
8
4
16
8
68
0
12
10
0
32
51
14
19
4
4
6
17
8
67
19
4
32
0
0
29
36
38
2
0
0
12
2
0
14
0
0
0
25
2
21
4
4
4
19
0
16
2
4
8
8
12
0
64
0
0
2
0
19
0
12
40
38
4
17
2
6
4
0
29
40
12
2
0
0
0
8
4
19
6
6
55
0
55
136
163
169
170
189
155
113
33
0
61
0
27
81
21
25
33
2
2
0
8
6
8
0
2
12
51
4
4
29
2
29
36
113
81
21
0
27
32
2
0
4
0
19
32
40
8
29
0
6
0
29
0
0
27
2
27
0
25
27
57
8
0
63
50
25
31
19
34
53
32
10
4
2
2
0
6
4
0
33
57
17
0
27
0
8
42
10
12
38
0
6
0
12
6
21
2
2
19
4
12
0
55
0
4
4
8
6
21
70
2
2
16
0
10
2
0
32
25
2
10
14
67
110
112
113
119
138
121
131
76
27
25
8
29
29
59
16
0
14
4
19
0
38
8
101
6
0
27
8
23
25
12
0
19
16
21
125
2
0
0
48
19
0
6
6
55
8
25
10
14
2
0
0
14
0
59
23
2
27
34
4
31
12
2
14
2
49
0
19
74
0
36
32
12
8
0
14
12
10
10
2
14
4
12
0
0
0
14
12
0
0
10
10
76
0
8
6
0
25
2
2
8
0
31
2
66
17
55
6
4
8
38
25
19
8
8
0
38
32
4
10
34
14
10
78
145
183
151
76
6
72
51
2
19
32
12
4
0
25
0
27
6
68
14
44
0
0
17
14
38
0
0
8
21
10
4
10
0
21
70
44
14
36
19
29
0
25
6
0
0
61
136
168
150
70
8
0
25
4
4
0
0
16
21
21
25
14
8
12
12
32
14
12
6
10
2
17
42
17
0
6
29
4
2
2
0
29
0
0
0
23
8
25
91
10
25
0
46
10
16
0
2
6
0
6
17
6
21
0
4
2
44
4
17
0
0
2
6
2
36
2
4
21
0
2
0
8
19
104
187
225
206
147
108
61
25
10
0
0
38
10
0
8
8
0
50
2
55
17
6
2
0
8
2
2
0
16
27
17
6
10
0
14
16
0
33
17
42
21
10
10
10
12
0
72
106
152
195
99
8
8
8
0
8
0
19
0
0
0
0
8
8
27
4
36
0
6
0
0
40
23
0
6
0
8
0
10
2
21
0
0
8
0
10
2
12
17
0
80
44
34
23
0
0
0
0
6
0
0
0
17
0
19
40
14
0
38
32
0
19
2
4
38
0
10
4
29
4
17
0
27
93
123
202
237
221
164
142
14
33
0
10
0
2
6
0
0
6
19
0
4
0
0
59
53
10
6
65
0
36
21
53
0
4
36
23
0
8
33
10
0
12
31
14
2
27
12
27
21
102
121
155
136
46
19
8
36
0
0
8
17
2
0
2
44
0
44
16
19
2
12
25
74
8
0
0
0
0
10
72
0
21
2
2
25
2
8
2
0
36
0
0
0
2
19
21
23
2
6
4
14
0
0
0
12
14
16
0
0
0
14
19
6
6
6
17
8
25
0
17
4
10
17
10
8
32
115
187
236
225
148
64
6
4
0
2
42
23
25
2
2
23
6
27
8
17
0
2
23
0
21
0
27
0
2
0
19
0
21
23
27
4
6
0
14
0
0
0
23
0
17
4
23
8
112
174
160
21
16
8
0
4
0
12
10
0
21
4
8
6
0
70
38
0
8
0
10
0
0
0
0
6
0
2
0
10
0
0
2
44
2
0
50
0
2
78
0
12
2
0
4
0
68
2
12
0
0
2
4
29
0
6
2
0
0
0
14
2
4
2
0
6
8
38
17
23
0
2
0
17
68
172
187
196
131
55
25
0
0
2
6
6
0
0
38
2
10
17
2
2
0
0
25
0
21
0
14
0
34
19
44
33
38
42
29
34
44
17
16
4
4
21
2
33
8
0
10
2
29
104
153
21
40
0
0
38
12
27
4
17
4
6
6
0
4
6
0
14
0
16
29
10
2
0
14
8
36
2
2
0
0
8
6
2
6
0
0
70
10
0
0
10
32
34
0
38
4
2
6
2
17
70
2
12
38
0
31
6
65
36
17
29
10
0
2
4
14
17
34
0
57
61
6
27
12
85
64
74
40
50
10
0
0
19
4
23
6
17
19
50
40
14
29
10
17
0
14
10
17
21
14
12
0
23
2
10
17
44
27
6
0
36
23
0
0
21
2
0
21
0
6
4
21
67
119
83
57
2
8
2
6
0
10
6
2
0
4
64
6
12
16
17
10
4
0
0
14
6
4
29
8
10
0
34
2
0
33
2
4
14
0
0
8
6
10
4
21
14
0
0
17
0
17
2
16
21
0
0
0
44
23
10
23
74
17
0
0
14
19
0
0
10
0
31
29
8
32
0
19
23
0
44
0
68
0
6
34
0
0
0
55
17
6
44
31
4
0
0
0
4
10
17
4
59
21
0
23
25
0
0
31
0
14
2
51
6
27
0
6
14
31
4
10
10
4
0
6
118
65
4
12
23
12
27
17
0
19
57
12
0
19
10
14
25
0
23
23
0
6
27
0
2
2
8
25
0
10
31
0
4
14
0
38
29
4
10
0
17
65
2
14
2
36
53
2
2
23
17
14
10
31
4
10
21
16
85
169
176
50
4
34
6
31
0
0
10
6
6
8
32
10
10
19
0
8
44
0
14
46
33
4
8
34
0
10
6
4
14
8
19
2
12
14
2
4
4
4
0
12
14
19
0
0
8
23
0
0
31
55
85
6
4
0
0
85
21
46
10
6
23
0
6
70
4
4
14
4
0
8
0
6
21
0
0
61
0
14
40
51
0
34
0
2
0
0
0
42
6
19
0
0
0
25
6
0
0
0
10
42
31
14
0
6
0
17
0
21
0
8
19
21
0
0
29
46
0
23
4
34
49
162
148
85
6
70
2
0
0
16
8
36
14
0
0
0
2
0
27
2
0
0
2
0
42
8
4
0
4
0
0
2
0
12
0
34
4
8
0
10
6
0
6
12
38
0
8
10
19
6
42
12
49
40
40
14
10
44
4
17
38
4
4
8
27
0
51
49
85
29
14
0
0
4
25
0
0
17
0
23
6
2
0
4
0
29
27
0
2
0
0
19
0
12
8
19
0
2
0
2
10
2
0
2
6
0
104
2
4
0
25
6
19
27
8
53
38
17
0
8
51
14
0
12
76
59
8
40
14
0
6
6
38
4
6
40
6
25
6
0
33
2
4
32
12
0
2
2
44
6
8
4
19
0
0
0
4
2
14
4
6
0
4
0
10
6
29
0
0
12
23
70
0
38
4
8
8
17
14
14
10
33
8
19
46
6
0
19
27
0
4
68
21
68
85
0
36
21
0
12
74
0
0
0
2
27
2
8
14
0
0
4
34
8
2
12
0
0
0
19
4
12
0
21
10
36
0
17
2
0
0
51
0
10
0
0
23
19
0
21
19
4
14
46
0
2
59
8
4
34
14
8
0
0
0
0
0
0
10
0
2
21
21
0
0
0
8
23
0
0
4
6
0
21
0
2
14
19
51
4
8
6
14
21
2
0
0
4
16
10
51
0
4
16
0
6
61
10
19
2
17
0
0
27
0
8
40
8
0
16
36
0
0
0
0
23
74
27
31
6
51
36
0
34
6
0
2
6
0
6
0
0
4
38
17
16
4
4
0
25
32
12
2
0
38
14
17
29
66
0
12
4
0
0
29
29
44
10
0
21
8
0
4
12
0
14
10
25
29
44
8
4
2
31
0
10
0
2
10
34
8
6
38
6
0
0
8
2
19
4
14
31
10
0
6
6
2
25
0
6
21
17
42
2
29
0
12
0
17
8
8
8
17
17
0
21
55
16
4
19
0
0
16
64
0
6
2
0
36
38
46
12
0
8
17
0
42
36
6
50
130
68
36
6
17
0
2
16
2
17
8
4
2
10
6
0
0
0
8
0
4
17
4
0
55
12
0
0
2
25
0
21
40
0
0
8
8
23
95
44
63
25
2
0
0
0
46
6
0
10
19
25
8
59
6
0
0
36
10
0
10
0
0
2
0
8
6
10
0
6
2
10
12
0
33
4
23
55
14
10
0
0
31
0
0
46
113
27
10
19
2
6
0
0
4
12
0
74
6
16
19
66
4
0
0
27
25
4
0
0
0
29
12
10
36
27
12
34
0
0
10
0
2
21
95
81
38
38
4
6
14
4
0
6
0
19
0
2
117
46
65
51
36
6
36
0
0
51
0
33
12
17
2
0
2
48
17
10
0
23
27
12
12
102
59
21
6
8
38
4
53
8
59
6
42
53
40
10
25
17
0
12
0
2
2
0
0
2
12
0
0
29
10
0
40
4
8
14
38
0
19
17
4
0
36
0
16
40
57
19
51
25
14
6
2
31
0
68
0
14
8
8
6
17
10
29
64
12
0
8
38
29
6
4
0
12
34
2
0
14
0
0
25
14
2
0
8
19
125
78
87
55
10
0
0
27
0
0
6
8
55
36
4
17
2
16
0
23
4
0
0
21
0
0
6
0
0
10
0
6
10
48
10
0
8
0
17
46
34
19
14
31
0
12
2
4
2
4
0
0
0
0
59
10
40
2
0
12
10
0
0
4
4
19
8
0
10
2
23
10
0
21
51
2
14
46
6
19
36
8
25
19
4
2
59
29
0
0
59
17
63
17
2
14
38
0
6
8
0
4
0
21
68
46
17
12
0
4
50
10
0
4
0
34
0
29
2
17
34
8
0
0
25
12
53
19
0
2
14
17
0
44
4
8
17
27
57
0
34
2
25
4
0
4
14
0
12
6
38
40
12
10
21
17
0
0
8
0
0
0
0
8
44
36
0
14
25
34
0
36
8
29
0
2
0
33
8
2
34
17
8
0
0
21
0
0
19
14
2
49
4
6
21
0
2
16
14
0
0
0
6
4
27
19
14
4
34
21
23
33
61
23
25
0
2
0
2
0
0
2
12
8
25
40
4
14
61
4
4
12
10
25
0
6
59
38
14
0
4
4
14
8
29
27
0
12
0
0
19
8
0
51
2
8
4
17
6
6
6
8
16
10
6
21
0
2
0
0
8
19
10
8
16
4
99
42
2
17
0
0
0
4
29
0
82
10
0
2
0
2
0
0
0
63
0
0
70
36
14
36
0
0
0
2
25
29
0
8
27
29
14
4
4
0
2
29
8
2
6
0
0
51
2
2
0
12
10
14
0
0
0
0
55
0
2
8
42
10
23
2
36
19
12
4
0
17
42
0
59
0
83
51
51
0
4
8
0
21
61
55
83
23
16
17
19
29
17
6
48
27
0
17
0
4
34
0
6
19
6
4
4
0
74
0
12
16
32
8
6
6
42
2
2
0
2
40
0
12
8
2
14
0
27
23
0
0
0
25
8
0
0
0
2
0
4
6
33
4
0
4
0
0
33
0
8
23
0
40
0
4
0
25
2
0
66
63
0
32
2
40
0
25
14
14
0
0
2
0
12
10
8
4
38
0
34
19
49
12
2
2
4
23
6
0
33
19
10
38
2
0
6
89
19
21
19
0
0
0
8
16
0
0
17
6
8
17
0
4
0
55
4
40
0
0
6
46
2
8
19
19
6
0
0
8
10
0
33
4
93
8
10
10
38
19
2
29
0
2
0
2
32
4
46
10
4
6
0
33
0
14
0
6
55
12
29
0
0
4
4
10
2
2
14
16
34
27
0
0
34
0
0
14
8
31
2
8
8
8
34
38
8
29
4
14
8
0
0
0
2
38
0
0
44
16
0
34
2
2
0
8
6
6
23
6
0
0
36
0
2
0
64
0
40
0
4
4
19
44
46
4
0
21
46
8
0
17
16
6
0
21
4
0
42
8
44
0
4
0
4
6
6
2
0
40
12
23
51
0
4
8
0
23
17
0
57
21
0
32
21
82
72
14
21
4
2
0
0
55
4
10
0
0
0
6
76
21
10
0
29
0
12
25
6
0
21
2
6
21
10
10
4
0
8
10
0
6
51
34
0
29
29
31
0
0
2
6
0
36
17
0
2
8
4
34
19
0
2
2
2
8
2
8
23
0
0
0
10
0
21
57
19
16
0
0
19
38
19
10
51
34
19
76
0
27
2
46
4
0
0
10
2
16
14
0
0
6
0
21
8
6
0
10
10
49
14
44
0
8
21
12
19
12
2
0
0
34
0
0
23
29
0
74
72
85
61
12
89
8
2
6
6
17
2
0
23
44
59
2
0
19
0
0
0
0
0
25
12
4
14
29
0
44
29
14
25
0
6
2
8
40
0
21
12
0
21
0
0
10
0
16
23
0
50
2
16
0
0
2
6
8
2
51
0
0
12
8
0
6
0
19
25
2
2
17
14
0
44
17
0
38
55
53
25
8
34
12
38
0
61
0
0
0
34
4
17
2
4
23
36
10
0
25
136
0
29
0
0
57
34
0
67
12
0
6
32
10
48
8
40
4
6
0
8
0
31
96
123
106
0
40
8
0
74
34
4
14
4
53
0
8
14
19
51
4
0
14
6
4
4
6
34
4
0
23
34
27
44
2
57
25
21
0
0
6
0
16
2
25
34
0
4
0
14
6
4
19
8
0
14
34
2
36
8
6
17
4
12
72
0
29
10
12
0
2
19
27
4
17
0
2
10
4
32
10
48
12
0
