P2
# Created by GIMP version 2.10.24 PNM plug-in
146 125
255
12
12
0
0
4
0
0
38
38
12
0
8
34
10
33
0
6
2
21
12
23
6
31
0
12
31
0
2
0
2
55
0
25
29
12
4
34
29
19
59
100
87
193
96
42
25
8
2
21
55
0
8
17
14
0
38
14
29
33
36
29
10
0
65
29
6
17
59
44
0
14
29
2
6
32
4
16
0
2
29
8
12
2
2
0
4
0
6
25
4
16
4
12
19
12
21
21
0
19
19
27
17
4
17
0
0
23
0
16
12
21
0
0
17
8
0
0
33
14
14
49
0
25
50
8
8
34
12
38
23
4
25
0
10
12
17
8
6
12
23
6
31
8
0
14
0
8
12
16
17
8
0
0
34
6
14
32
12
14
0
0
0
4
8
27
42
2
12
0
8
0
12
6
16
0
2
36
17
6
42
46
6
14
14
27
46
49
68
157
91
76
6
2
81
0
38
0
17
2
8
2
38
40
17
40
31
21
2
2
29
0
17
0
2
29
44
10
14
12
27
10
2
31
38
4
8
38
2
31
2
0
0
16
0
125
44
42
16
29
25
19
21
17
17
2
10
0
0
53
4
51
4
0
10
0
8
0
4
34
23
8
70
53
14
4
6
34
36
19
0
51
36
55
4
31
6
23
61
0
29
0
31
4
6
0
0
0
0
4
36
16
0
4
6
36
19
0
0
0
12
6
16
34
6
6
4
4
10
4
6
10
2
0
0
4
8
21
10
0
0
29
4
8
38
23
21
8
27
4
23
27
23
34
68
72
67
29
23
6
0
6
12
6
48
34
0
4
23
0
0
0
2
0
14
34
0
10
40
4
0
14
4
16
21
10
0
12
0
12
55
76
59
50
0
8
6
10
49
6
100
151
66
2
48
17
10
14
4
57
0
4
8
0
36
27
17
6
0
23
16
4
0
0
40
65
0
0
8
10
10
0
48
2
4
4
27
8
8
32
55
6
2
66
25
40
8
51
0
2
53
6
4
6
4
6
23
57
34
25
14
40
4
44
31
67
0
17
16
0
0
0
17
31
0
12
2
0
0
0
32
29
25
12
8
29
2
8
6
0
0
0
4
57
33
0
19
23
44
12
6
19
55
6
16
29
17
0
25
4
2
0
48
2
2
6
57
12
2
16
44
0
57
34
12
2
6
0
27
38
0
25
0
0
12
2
12
8
38
0
25
0
61
2
0
10
14
101
16
12
31
12
10
4
0
27
25
23
8
0
34
14
0
0
91
0
14
4
6
12
0
0
10
4
23
0
0
6
17
36
6
0
17
6
16
44
27
21
14
0
33
14
40
0
0
0
14
0
27
12
0
31
0
0
12
29
10
4
0
10
29
4
6
0
8
21
44
12
0
4
6
19
0
12
6
6
8
49
2
2
12
0
2
19
10
0
0
6
34
65
53
4
8
65
36
17
34
31
42
8
8
8
4
36
48
6
8
23
27
8
40
8
19
0
0
8
2
25
8
36
8
31
10
6
36
0
0
36
2
10
12
2
19
12
12
0
0
17
8
17
14
0
2
6
14
6
27
16
38
4
34
8
16
6
8
50
40
0
0
44
27
61
36
0
21
4
14
0
59
0
68
55
0
0
4
44
17
12
34
0
21
57
17
46
29
17
57
21
17
12
2
44
8
0
2
21
46
17
6
4
6
4
48
25
19
10
0
2
17
2
19
2
21
2
0
12
2
34
0
38
0
2
4
19
29
2
0
0
8
12
16
10
4
21
4
0
61
29
4
64
0
0
14
8
2
17
0
2
12
12
42
40
2
16
2
46
12
8
0
4
36
53
55
10
0
14
21
68
0
19
17
2
2
36
4
31
17
32
38
6
2
23
6
8
2
21
10
42
8
34
21
4
6
6
6
27
17
8
17
104
49
38
6
44
48
64
91
42
25
19
6
40
10
32
0
8
53
40
0
17
25
4
6
12
17
16
59
55
51
16
53
32
0
23
6
19
34
27
29
6
21
40
25
23
14
17
6
0
6
38
12
10
14
0
0
6
21
6
6
0
0
23
8
36
0
42
0
57
17
12
0
29
14
0
23
21
0
0
25
14
14
49
40
6
21
8
31
0
2
21
4
48
23
4
8
0
2
2
2
2
21
23
2
12
6
53
67
36
14
16
2
6
14
14
25
31
21
42
38
21
0
0
8
31
25
2
31
32
10
19
38
0
19
8
0
0
0
17
53
4
51
17
23
6
4
38
29
36
0
0
2
53
226
59
17
8
6
55
0
61
29
27
0
0
38
6
12
0
61
46
14
10
17
12
2
72
64
102
93
12
31
12
34
0
4
4
4
21
0
0
0
21
21
34
0
14
0
6
0
4
6
21
4
2
0
0
64
19
57
55
10
0
6
12
46
31
23
4
10
51
6
2
2
0
0
40
0
4
0
0
19
12
4
21
12
59
2
48
40
0
14
46
16
8
0
23
0
4
29
8
14
8
23
61
12
2
4
0
0
0
21
8
34
6
82
0
0
10
49
4
0
4
23
8
40
0
0
19
17
40
2
31
14
12
19
31
40
10
0
10
19
8
17
0
0
0
74
82
133
14
10
82
89
25
6
4
36
23
21
14
42
4
38
44
78
12
25
0
6
40
53
97
119
151
161
81
59
14
12
23
8
6
4
12
10
38
68
0
34
25
33
53
6
21
31
23
0
4
0
0
0
2
23
6
0
0
4
17
6
59
8
23
0
34
2
8
33
10
0
17
0
19
0
0
14
4
6
17
25
12
0
38
36
110
152
0
2
0
0
0
27
0
2
44
32
8
6
0
10
14
21
12
2
65
14
2
0
4
0
19
10
14
0
14
0
25
25
19
21
0
4
12
23
0
21
6
0
34
21
27
44
12
0
0
10
55
0
4
36
10
51
33
0
0
61
68
8
0
10
0
0
17
17
4
42
8
80
14
6
46
21
53
0
70
10
68
91
130
68
136
198
115
70
12
0
0
0
17
10
8
6
0
63
0
6
6
12
12
14
2
2
2
0
48
4
0
16
42
29
0
0
31
4
0
6
27
23
0
4
0
14
2
34
14
21
10
29
19
8
0
0
23
57
25
17
2
51
2
27
100
110
10
59
23
0
8
16
40
34
36
21
10
53
8
25
0
10
8
21
8
0
27
14
2
21
23
51
12
0
19
0
40
10
17
6
32
6
34
17
53
21
17
49
38
23
8
8
0
23
25
0
27
2
0
4
8
46
0
10
8
6
0
29
2
21
33
29
44
42
23
6
10
10
21
0
40
36
8
2
12
17
32
50
21
57
167
194
169
19
25
53
0
34
8
8
36
2
0
0
33
40
8
42
2
8
6
12
34
2
0
0
10
6
6
0
6
0
19
0
8
2
40
14
78
50
50
8
21
8
12
0
34
4
44
8
61
57
27
0
10
0
23
0
33
29
70
19
0
21
0
0
6
2
2
25
10
2
8
0
25
4
0
12
17
32
2
31
14
64
34
48
14
21
10
78
0
0
21
34
0
0
42
2
2
29
6
10
10
10
8
8
6
0
21
14
6
21
38
4
4
14
48
0
6
19
6
19
0
14
14
48
68
0
6
0
2
14
59
0
6
0
40
0
6
6
34
8
72
6
34
153
218
187
146
29
14
10
36
25
0
17
46
6
17
10
72
0
27
38
29
0
2
32
66
10
0
4
0
53
12
0
12
0
25
36
19
53
50
10
14
40
19
78
2
27
0
2
16
0
0
21
0
2
8
4
0
48
10
6
2
55
34
36
0
6
46
44
36
8
2
4
0
8
8
10
0
32
0
27
0
0
27
12
19
25
51
17
25
23
0
0
8
31
14
6
0
36
12
4
40
12
38
32
6
0
19
19
12
57
38
4
8
51
4
23
23
0
31
0
8
0
33
8
42
4
23
10
48
12
0
19
0
59
4
4
14
10
46
2
4
8
4
14
10
31
10
49
59
66
23
27
63
32
8
31
46
10
21
6
0
27
4
34
0
32
0
0
36
0
4
6
0
14
0
2
10
0
0
0
0
10
44
0
16
8
25
17
34
0
16
8
8
106
12
31
8
14
51
10
0
25
6
46
12
0
0
0
29
27
23
16
6
4
16
12
2
8
0
85
12
12
4
12
0
2
42
17
12
17
68
31
50
29
2
27
42
0
2
42
2
19
0
0
23
4
0
0
23
2
0
14
6
6
19
38
4
12
6
10
8
23
33
17
19
0
0
91
0
51
2
2
2
16
0
4
21
0
6
51
4
17
68
17
0
0
12
53
0
64
49
2
0
33
10
17
51
4
8
0
0
0
19
2
17
6
84
0
23
0
0
14
2
0
49
33
25
4
12
0
0
2
4
0
10
8
10
0
38
25
2
10
16
4
0
44
8
0
10
99
0
36
12
0
25
44
0
12
19
2
10
8
0
0
2
6
0
50
6
2
12
21
19
38
59
12
40
0
27
40
2
21
0
4
6
57
49
55
104
19
14
0
23
53
4
16
4
10
6
10
16
38
48
0
27
42
0
10
8
16
53
16
21
17
0
17
17
0
4
64
14
38
44
12
0
36
12
23
51
51
21
4
21
2
8
17
0
65
23
6
0
33
0
2
23
17
8
38
17
0
27
8
57
29
25
19
40
0
0
51
6
36
0
2
2
16
0
0
19
4
27
12
19
19
14
59
57
40
0
8
19
68
23
0
0
0
21
55
10
8
70
0
23
12
6
70
74
12
12
2
55
34
6
0
8
12
12
10
0
10
2
14
38
0
14
4
25
0
16
44
31
29
10
14
0
27
23
0
55
0
44
19
21
84
46
36
0
19
0
40
0
21
44
6
27
51
44
4
0
6
57
10
0
32
44
40
44
2
34
10
36
51
29
2
21
40
16
6
0
10
23
16
4
0
32
8
27
29
29
25
6
10
36
4
32
12
2
84
8
31
4
19
0
49
2
10
4
2
23
51
27
0
49
8
33
4
8
17
44
12
53
46
0
34
12
0
46
8
0
0
36
4
81
21
17
29
29
76
70
57
6
76
87
14
29
10
8
0
38
6
8
0
8
19
2
0
12
27
12
10
2
36
0
8
0
23
17
0
8
0
36
14
0
50
14
8
46
63
38
4
70
34
0
6
19
46
17
25
25
21
42
4
44
0
2
42
10
14
6
21
6
19
4
0
2
42
42
46
19
17
29
59
23
17
14
46
38
0
36
8
40
21
42
57
14
6
4
33
17
10
4
0
0
80
6
25
25
66
0
12
61
19
4
14
50
0
4
14
0
12
0
2
21
33
12
21
6
10
48
10
38
10
10
10
36
0
6
32
21
19
10
2
0
0
0
8
8
17
19
14
46
12
110
117
157
93
91
100
25
0
29
4
31
0
44
42
0
42
0
42
19
14
0
0
8
21
6
55
17
19
10
2
81
6
10
10
6
6
23
2
0
104
23
25
6
33
29
63
0
25
2
38
8
36
31
0
12
23
23
0
32
27
14
0
27
0
12
42
68
6
0
12
17
72
31
51
6
57
0
0
0
34
4
14
12
38
49
14
2
0
0
0
0
0
12
10
10
74
27
32
14
0
4
8
46
12
6
8
14
2
16
21
10
23
8
2
23
2
4
0
8
21
59
127
25
0
12
46
0
46
14
0
0
10
6
67
33
27
4
27
0
0
0
0
0
91
6
61
114
174
235
178
152
129
50
87
6
6
0
21
23
19
10
16
8
6
44
42
17
0
25
0
31
4
2
23
61
0
0
10
2
8
29
19
23
0
59
93
121
53
14
23
6
0
14
36
32
23
2
19
33
10
6
70
0
0
0
0
14
6
29
6
61
0
57
42
0
21
36
42
21
19
4
0
2
44
0
42
8
0
59
0
2
25
14
0
36
21
16
12
46
21
0
4
0
51
4
4
32
21
21
33
0
76
2
23
23
33
40
8
10
76
0
8
0
0
6
0
23
0
68
2
0
8
23
19
0
8
0
6
19
0
0
6
2
10
44
34
6
21
2
33
0
0
93
89
161
195
167
153
110
87
44
0
12
10
12
27
12
14
21
10
14
0
25
6
4
0
14
74
12
33
23
2
27
87
4
17
0
6
10
19
89
140
104
67
36
49
8
55
67
44
91
6
25
14
46
53
2
34
12
8
0
0
2
8
68
29
0
6
14
31
6
17
21
38
0
23
74
0
6
76
57
57
29
38
0
21
4
25
4
8
10
4
36
0
38
23
2
0
36
12
4
14
17
42
46
8
57
63
6
46
23
6
38
8
16
14
14
16
0
17
0
0
32
57
0
10
0
0
0
0
6
6
38
21
6
0
19
2
12
0
4
6
10
2
12
8
21
19
17
23
38
53
72
121
91
29
36
34
0
34
25
4
27
6
36
2
4
36
0
14
0
17
33
2
17
55
36
0
17
6
19
19
0
0
36
34
46
68
29
42
42
12
4
64
59
76
59
14
99
61
25
40
10
19
19
40
32
25
70
0
36
4
76
33
0
8
42
0
53
70
2
14
66
17
36
29
17
0
8
12
0
40
4
2
0
12
0
10
53
32
0
44
10
34
25
36
10
2
19
36
27
0
0
34
8
0
8
0
10
40
16
12
21
0
19
72
4
10
14
27
10
36
4
0
21
34
21
0
29
0
8
0
4
0
12
2
4
12
38
0
10
2
17
10
16
21
21
0
36
44
25
10
29
0
23
19
0
0
4
0
40
0
0
0
49
83
23
6
19
2
2
42
4
21
14
32
42
2
0
25
10
31
25
8
21
78
8
16
83
95
99
123
153
108
66
57
21
44
36
38
23
4
44
19
19
0
40
10
23
64
34
42
74
8
172
114
51
38
118
25
51
12
42
19
0
27
2
4
0
8
0
6
6
34
0
64
61
0
8
17
27
17
32
2
33
16
32
0
14
6
25
12
25
25
25
17
0
0
6
6
23
19
4
33
21
0
25
6
4
0
2
44
0
19
6
34
0
0
2
10
27
0
0
2
23
4
25
4
23
14
33
23
16
96
2
0
0
0
0
0
14
2
27
2
0
16
0
0
16
12
33
0
29
10
0
10
8
27
6
8
0
0
12
8
0
51
0
29
25
17
25
48
14
2
50
102
117
187
223
177
104
29
53
70
31
4
36
25
38
4
0
8
2
0
46
4
89
130
115
78
66
72
29
51
144
110
10
4
44
21
17
4
74
49
10
21
0
0
4
0
40
25
2
14
25
6
29
49
84
0
4
16
12
10
8
8
0
4
38
0
23
8
0
25
16
14
29
12
29
0
42
4
4
0
14
2
6
2
29
0
0
10
2
4
0
0
12
17
8
29
44
0
6
0
17
17
0
4
14
19
2
2
32
0
44
4
4
10
0
23
6
2
14
72
40
6
23
0
0
23
0
0
10
59
19
10
4
10
6
23
12
32
21
44
72
74
10
64
34
14
91
102
138
235
255
197
110
70
2
14
12
32
0
12
19
8
17
0
2
23
23
61
17
16
46
8
6
14
6
61
101
53
10
4
8
0
12
10
0
46
0
12
0
17
0
25
19
16
12
0
19
4
33
0
0
0
57
19
0
14
21
12
76
25
29
17
8
19
14
17
16
34
0
0
2
12
27
0
0
16
40
2
12
2
40
8
0
8
0
2
0
17
6
0
0
12
2
29
0
0
2
32
2
10
12
0
8
19
0
21
10
27
12
0
19
27
0
0
25
0
23
25
29
42
17
27
12
8
19
10
0
23
2
17
64
14
25
25
53
44
53
68
82
8
46
36
0
44
102
169
218
163
115
42
12
10
32
29
14
6
6
2
10
27
34
10
25
14
0
8
4
0
46
49
0
93
66
44
61
0
6
8
12
14
12
0
6
21
14
64
0
23
8
2
8
31
16
0
8
6
40
31
6
8
0
0
29
21
4
19
6
6
12
12
8
14
4
19
8
38
34
12
12
25
50
34
0
0
2
25
4
34
0
25
23
38
0
2
4
6
27
38
2
2
19
0
17
0
2
14
8
0
0
29
0
4
21
2
6
32
0
10
8
4
2
0
0
6
16
48
0
42
6
17
27
31
14
0
59
38
14
112
113
108
44
25
74
16
89
10
42
53
91
38
82
108
114
46
59
42
42
38
0
0
4
17
8
0
0
25
0
6
21
31
34
0
6
34
36
135
19
27
0
8
29
17
10
0
12
8
10
8
65
0
36
10
72
6
2
6
21
0
0
42
0
21
23
25
19
4
49
6
49
51
0
10
29
17
0
0
23
0
12
31
17
10
14
34
19
0
17
6
10
29
0
0
12
8
19
0
19
2
0
29
2
10
21
29
25
0
0
25
21
0
21
0
61
32
32
0
0
14
6
12
6
12
17
6
4
0
0
10
6
19
10
0
64
25
14
0
2
48
16
8
21
70
34
23
70
85
25
59
72
91
100
112
44
17
51
68
8
91
80
55
89
67
25
108
4
10
0
61
76
14
0
19
14
0
40
0
6
17
66
4
98
25
66
21
21
14
0
6
21
29
14
0
85
19
0
2
8
17
23
48
0
21
0
25
4
6
0
17
6
0
10
36
61
0
34
0
0
2
0
23
59
0
61
2
2
8
29
4
21
8
0
17
50
21
12
6
8
8
2
59
10
14
53
0
0
19
78
0
102
169
38
0
42
32
0
14
2
10
42
4
4
12
0
4
6
2
27
17
27
0
10
4
34
0
23
10
6
59
4
8
0
0
8
31
0
21
0
70
0
76
57
118
121
76
89
112
115
95
91
78
70
0
108
21
2
68
29
12
42
19
0
0
10
19
78
149
53
95
25
38
0
42
42
38
33
44
2
57
8
2
16
0
29
0
38
67
0
25
12
17
0
0
51
23
27
40
4
6
8
0
38
84
0
8
33
108
2
0
25
0
31
76
38
17
46
4
19
63
12
29
0
63
12
14
21
34
44
0
53
6
42
49
0
6
0
14
0
10
64
21
4
6
31
14
2
236
25
19
2
0
49
50
0
8
2
2
25
2
19
6
0
32
46
53
6
0
21
27
14
4
0
0
85
0
42
0
2
4
17
17
0
66
10
4
2
68
100
170
238
189
155
172
166
138
91
49
25
29
0
14
66
16
6
87
42
63
81
6
29
25
85
151
42
0
16
48
19
12
29
6
0
0
34
33
14
2
14
10
0
78
0
74
0
55
12
23
2
0
17
17
33
93
19
0
29
0
59
10
17
23
16
29
21
2
55
0
74
140
100
23
31
0
40
17
12
4
10
12
19
59
16
27
89
0
0
17
12
8
2
0
32
14
21
32
10
2
0
12
12
10
44
49
34
17
38
4
0
0
0
33
6
19
0
36
10
10
12
29
4
0
2
21
36
12
2
6
12
0
0
0
12
23
0
0
68
19
4
8
2
19
10
29
32
146
204
182
178
197
180
155
133
119
76
2
0
23
68
38
25
17
12
36
70
59
29
17
34
108
36
10
16
53
29
32
19
0
31
10
65
8
2
25
14
14
53
25
0
0
12
33
25
8
23
6
2
0
10
29
12
31
40
10
12
25
46
33
14
34
8
0
23
29
14
40
82
21
10
10
33
31
36
8
0
23
21
0
14
0
53
27
14
16
25
10
21
10
8
59
21
6
31
0
12
4
0
0
19
36
23
80
0
23
0
4
21
8
6
14
4
21
27
2
19
25
12
53
16
0
14
0
21
17
16
0
2
14
21
36
31
17
34
46
21
6
44
17
21
76
102
123
169
172
150
138
149
192
172
147
95
93
12
25
49
0
27
2
32
27
46
27
31
64
55
59
89
8
42
55
25
0
59
44
0
12
147
23
29
44
4
14
12
21
25
16
19
17
8
0
2
2
21
72
0
4
4
76
0
8
2
55
25
72
0
10
12
51
36
0
38
29
42
0
14
6
23
12
31
16
33
8
17
8
51
6
29
0
63
19
8
21
4
2
53
4
2
17
25
50
12
42
23
14
0
0
0
27
2
0
0
0
14
12
10
44
0
2
2
6
0
48
27
50
38
12
29
8
0
10
0
4
36
51
2
0
6
4
27
8
59
23
0
6
34
8
63
119
123
167
150
138
144
179
211
165
128
74
14
17
36
31
0
70
25
19
4
10
2
0
31
51
10
50
42
14
8
42
14
10
33
65
178
0
36
23
0
0
27
80
12
4
21
0
8
8
0
23
44
0
38
0
0
38
4
4
42
4
33
33
2
27
32
14
6
8
40
4
0
0
0
0
36
6
0
4
17
6
0
14
0
2
0
0
2
2
0
2
0
21
4
0
19
23
4
4
67
0
0
10
0
14
19
23
4
0
42
2
31
0
4
17
2
8
0
17
0
0
21
0
0
19
57
14
17
32
0
0
2
19
55
0
10
0
21
6
4
38
10
57
27
8
74
82
91
164
228
179
170
176
195
174
145
23
84
0
55
23
17
49
17
57
27
10
27
8
14
0
6
8
44
32
0
42
17
29
0
0
102
50
46
10
25
14
2
10
16
0
4
0
2
61
14
2
19
0
0
14
17
17
0
0
4
0
46
10
10
36
29
10
44
0
50
36
0
42
16
0
12
6
21
8
29
6
14
8
17
4
14
8
4
29
0
8
40
34
21
0
21
2
10
17
42
0
4
21
61
38
23
21
10
0
0
0
2
23
25
16
4
4
17
19
10
17
44
16
25
59
12
27
27
4
0
68
4
8
12
2
8
4
6
8
12
34
10
40
53
23
27
97
153
217
243
221
189
189
194
201
172
61
29
48
4
23
8
17
87
25
14
25
29
27
14
0
0
14
14
14
46
12
44
0
10
21
29
0
4
27
46
19
17
0
12
0
38
10
0
0
34
27
19
31
0
2
10
46
0
2
14
23
12
0
38
17
27
8
57
0
4
0
8
0
4
0
25
10
0
0
34
8
23
6
32
19
51
25
51
0
10
29
0
12
29
48
0
10
36
25
2
12
17
8
0
16
6
12
27
4
46
10
31
16
2
4
6
36
34
21
14
34
4
0
12
19
14
0
4
2
14
27
6
0
0
32
0
38
8
6
25
4
44
0
10
29
91
129
177
243
254
243
231
210
202
227
182
87
53
27
25
12
83
46
36
53
4
34
12
0
23
0
0
6
0
36
44
32
57
49
10
19
14
23
4
2
21
19
55
0
4
29
25
16
27
0
8
10
8
34
31
14
6
17
4
6
40
42
0
0
0
2
12
4
19
4
0
8
10
0
4
21
51
17
19
10
0
12
16
44
0
4
42
21
40
0
32
25
44
8
12
31
10
29
25
19
48
27
10
0
16
0
27
16
0
8
16
31
6
0
0
10
0
8
4
0
36
38
8
38
0
25
2
85
29
40
0
25
0
17
14
0
0
46
14
4
0
4
0
40
4
6
97
142
199
251
255
248
244
227
213
217
204
112
19
29
16
8
21
29
125
113
23
40
0
21
16
48
42
0
64
19
21
19
36
0
44
8
0
6
19
51
0
17
8
17
21
17
31
4
0
49
14
14
31
50
4
27
27
4
59
2
12
25
61
8
12
10
17
17
17
0
34
2
17
0
49
36
17
8
50
6
38
0
34
0
34
8
14
21
2
0
2
0
23
44
0
6
12
12
8
8
12
12
4
4
6
0
2
0
0
25
74
8
4
27
6
2
16
0
10
25
106
38
95
25
17
19
0
21
0
0
31
0
38
4
12
21
8
36
21
2
0
4
33
46
76
16
81
114
186
238
248
255
255
255
249
229
220
121
89
57
16
12
49
81
167
233
165
46
42
66
42
21
0
16
27
0
0
119
123
8
4
0
2
10
27
12
27
8
25
0
0
10
0
25
4
0
19
0
0
17
0
29
0
19
10
4
44
2
2
25
0
0
34
46
6
0
21
31
2
21
4
40
114
61
123
16
38
19
51
55
40
2
10
16
10
53
0
46
27
8
4
106
27
0
16
89
6
0
34
17
44
10
4
4
19
6
36
16
91
189
192
116
8
29
2
4
27
98
38
10
44
25
32
21
6
6
0
0
6
4
8
8
6
0
0
6
6
29
76
27
12
133
25
102
163
220
246
255
255
254
249
238
232
130
21
38
36
55
10
106
152
246
242
99
27
27
19
6
4
29
42
34
4
127
61
19
6
14
8
6
55
16
0
38
23
2
21
29
0
40
4
2
14
17
4
0
10
27
4
59
14
0
4
6
19
4
0
32
12
8
10
55
12
38
0
2
14
85
76
125
93
21
6
2
0
8
8
34
4
12
34
0
8
0
21
25
16
0
0
0
23
14
27
0
14
4
12
40
0
0
16
0
21
32
4
132
108
68
0
4
10
12
46
32
57
59
63
87
68
64
2
49
46
33
0
61
8
46
10
2
4
6
49
21
10
31
48
44
65
31
98
203
232
241
240
235
247
233
203
59
68
81
8
89
4
61
100
215
253
178
116
21
10
6
6
19
25
46
0
29
17
21
46
25
51
8
19
16
23
72
0
8
0
32
14
12
2
2
19
51
14
16
21
10
6
25
12
32
8
10
12
10
27
14
0
6
38
16
23
16
8
38
19
59
76
153
161
110
63
50
14
10
25
83
131
46
2
8
51
21
14
25
0
14
2
12
0
57
16
6
0
16
0
76
27
17
0
0
4
25
4
0
72
2
0
8
29
21
68
51
82
132
106
104
64
34
63
48
76
10
53
70
29
25
33
0
4
51
49
40
2
44
0
27
83
87
123
179
221
218
202
200
225
214
193
93
36
23
34
36
42
53
82
112
200
203
112
46
4
27
10
23
19
19
0
4
0
12
16
10
8
64
2
0
0
2
21
8
57
6
6
33
46
6
25
0
17
31
36
8
85
8
8
12
23
0
38
4
2
23
25
0
4
10
38
63
0
8
31
57
59
74
180
165
104
85
12
0
23
80
63
19
16
0
12
29
8
0
0
25
38
34
32
42
2
19
23
4
25
0
0
16
8
6
21
27
6
0
19
21
70
4
55
14
19
42
68
127
104
148
130
117
140
97
72
66
2
2
42
14
14
34
48
38
8
17
0
23
14
19
31
96
125
157
208
240
201
198
195
206
199
119
55
51
25
6
42
10
72
42
80
89
72
57
17
12
44
2
10
8
21
16
23
40
29
0
14
14
10
0
2
44
4
4
14
10
17
21
36
21
0
2
6
25
2
29
63
0
0
29
65
14
10
12
36
12
0
34
50
57
17
2
55
19
4
32
65
48
153
216
157
70
61
6
34
46
0
12
17
2
17
23
53
2
14
21
36
0
34
0
42
10
10
0
8
4
34
12
23
6
2
0
10
31
21
0
46
17
12
0
0
57
46
125
152
186
201
206
217
170
148
70
100
34
44
65
2
51
6
10
29
2
25
17
14
85
2
19
112
131
178
250
189
179
187
213
195
131
59
61
6
10
55
0
34
4
68
40
66
19
31
44
4
16
12
4
2
0
0
17
4
0
53
25
0
0
19
21
4
0
12
8
59
23
63
2
12
0
0
0
0
0
10
4
6
2
8
48
2
42
16
61
17
21
17
0
19
4
10
81
34
27
6
38
81
128
180
84
59
87
36
17
0
14
10
0
0
0
0
0
95
23
33
0
27
65
0
59
12
2
4
0
16
14
0
0
82
38
23
40
19
0
17
0
0
0
16
2
19
61
136
184
238
255
255
255
238
182
112
96
25
4
38
14
2
8
10
68
17
40
12
34
44
46
82
102
114
221
230
215
193
199
227
102
8
17
12
27
48
68
61
29
42
53
38
44
32
17
23
49
4
0
4
51
27
25
49
10
19
10
40
4
50
42
0
51
0
21
8
8
0
8
19
10
16
0
21
19
16
14
21
0
12
6
2
2
25
10
8
10
50
10
6
10
14
57
25
21
23
40
6
78
189
97
91
53
87
66
29
0
2
0
34
0
4
0
10
8
8
8
4
0
0
0
2
21
38
12
10
0
6
0
27
4
42
0
8
29
17
34
6
14
12
19
0
27
85
138
209
253
255
255
255
240
153
102
74
55
0
40
4
27
57
34
36
38
23
14
0
49
23
21
81
183
233
225
183
189
243
59
91
16
27
29
29
25
67
72
91
81
93
80
0
19
57
0
6
8
6
0
8
59
36
14
27
4
14
19
10
4
70
55
14
8
4
6
25
17
23
27
51
42
38
59
0
53
59
6
4
21
25
21
12
25
10
27
4
4
6
4
50
0
8
29
23
53
61
51
101
76
112
106
34
27
33
36
14
10
17
12
59
0
19
0
53
8
38
0
2
10
6
33
0
0
0
0
25
0
0
8
8
14
6
19
29
10
29
19
0
23
27
29
38
96
134
166
211
242
248
221
150
136
42
144
89
74
0
33
8
19
74
29
14
8
38
49
46
65
74
121
163
183
185
148
132
100
25
49
32
25
8
40
119
61
100
121
93
33
78
6
0
16
65
59
10
0
10
31
42
10
2
0
0
8
80
17
0
23
40
40
2
51
2
12
21
27
0
0
0
0
4
0
48
19
38
0
17
25
0
29
8
44
6
14
0
33
17
0
2
2
0
25
48
14
59
82
134
21
14
0
68
32
21
6
8
23
0
0
33
6
0
0
0
36
34
36
8
38
0
21
0
2
0
19
8
51
10
2
31
0
8
0
2
38
36
10
50
70
34
78
59
110
146
147
160
142
138
130
113
74
67
74
29
0
4
8
4
19
12
53
0
68
0
46
49
74
44
115
152
113
51
46
0
78
89
0
0
0
46
153
136
193
121
99
29
0
2
68
4
0
36
67
6
36
19
12
0
4
6
27
17
8
4
0
2
4
34
2
10
31
33
0
33
38
89
0
10
2
0
12
4
2
0
0
0
0
6
38
0
31
44
27
23
0
0
32
4
21
34
31
29
46
27
36
42
0
6
0
0
4
0
14
38
29
6
34
38
55
2
0
0
19
0
6
0
8
2
36
36
0
0
16
17
0
46
0
0
57
23
12
32
46
6
0
14
12
40
61
59
123
106
118
157
127
108
72
76
8
0
14
12
32
70
38
66
17
8
40
0
0
34
51
36
0
89
23
110
74
10
110
101
33
12
34
61
81
155
227
125
123
123
10
12
0
8
6
23
0
2
40
36
29
138
0
0
12
0
14
8
0
16
17
10
0
0
17
6
27
25
2
0
10
40
46
2
0
50
44
72
14
2
4
6
40
46
0
17
78
6
61
14
0
23
2
8
8
23
21
0
12
25
14
0
2
27
57
10
0
34
0
74
2
0
19
0
55
21
12
2
8
6
0
0
0
46
16
0
0
0
4
4
14
10
14
55
59
12
14
21
6
0
48
10
55
59
59
33
40
114
110
85
27
68
76
0
38
14
33
0
38
6
19
0
27
12
4
25
19
51
14
50
6
32
51
25
57
63
89
74
57
83
117
123
135
96
27
12
0
36
0
21
25
0
4
61
0
14
99
155
27
0
38
36
4
2
8
8
14
38
10
12
29
6
2
38
6
48
23
0
0
36
6
21
0
8
25
27
34
38
49
12
23
25
32
0
57
2
12
63
19
16
10
46
12
19
36
44
23
4
4
68
50
0
8
16
0
6
12
8
0
51
4
53
27
33
0
31
29
42
0
23
0
6
0
17
4
0
0
4
31
32
6
10
29
10
42
0
34
36
4
59
44
85
104
83
23
82
82
87
8
38
16
2
17
0
40
29
23
0
70
34
12
4
0
72
36
29
44
25
50
70
101
104
85
34
121
57
78
74
42
17
0
4
2
0
0
6
4
23
0
6
0
21
34
42
32
10
48
33
0
4
42
0
12
42
0
6
2
32
19
12
6
8
44
2
38
2
4
0
29
6
66
68
0
10
2
23
2
0
6
10
0
25
8
42
8
34
29
6
0
42
2
23
19
8
6
0
4
8
4
0
0
31
0
29
25
2
0
0
46
25
31
27
6
14
10
0
2
10
2
0
14
10
29
0
0
12
4
64
8
27
0
10
4
40
2
10
16
14
32
10
16
10
93
201
59
6
10
16
23
4
10
27
32
0
0
0
10
33
10
78
19
10
23
27
51
6
55
82
95
64
34
0
4
14
0
17
0
55
46
8
2
29
19
0
10
0
46
27
4
74
2
2
12
0
44
27
12
0
2
14
2
4
36
0
17
2
0
0
0
10
0
2
4
29
0
91
0
29
57
0
68
0
4
27
17
0
33
29
4
0
53
0
0
2
0
23
0
2
6
70
0
36
12
6
14
0
8
8
12
12
8
21
0
2
0
0
29
0
46
6
12
27
0
17
0
0
0
0
0
4
0
0
6
14
6
0
0
32
4
2
0
0
0
51
23
40
0
93
76
59
164
19
0
0
34
19
0
0
10
34
17
25
0
0
0
14
34
6
27
102
131
132
110
38
17
4
12
59
72
53
32
4
4
59
17
6
23
25
2
23
12
6
0
33
4
78
25
4
74
2
32
2
46
36
6
40
61
10
44
6
14
4
14
33
42
19
55
0
19
8
0
16
8
23
104
8
34
16
29
42
8
0
6
0
8
82
8
0
10
25
65
14
0
0
0
0
2
55
0
0
12
2
46
0
17
0
0
17
17
0
70
4
25
25
40
27
19
6
68
2
21
14
0
23
0
10
8
8
19
8
2
23
0
10
4
32
29
21
27
21
34
16
23
51
12
21
34
0
0
36
19
2
27
0
21
2
4
21
17
32
17
10
2
48
57
100
211
133
6
29
50
21
0
68
161
98
44
29
0
46
12
51
0
38
21
6
4
12
0
17
10
46
6
12
12
31
0
34
19
0
93
21
8
0
31
10
17
19
55
4
0
84
12
14
2
0
67
21
31
0
6
61
19
51
40
6
17
19
42
32
12
14
8
0
4
0
4
36
38
4
6
21
21
4
25
17
34
0
44
10
4
33
70
2
10
8
2
10
33
0
2
4
6
53
2
6
0
4
0
0
32
2
27
0
0
10
16
6
0
46
44
38
0
0
21
17
0
0
48
0
42
36
0
6
46
55
125
6
34
6
12
6
4
17
6
46
38
14
14
0
17
29
170
102
29
17
57
53
10
64
42
44
40
0
21
44
33
2
0
8
10
0
36
0
46
0
0
31
23
4
31
38
44
25
6
2
74
44
6
0
0
21
25
12
8
21
2
76
0
2
4
4
46
2
2
17
10
36
4
0
14
0
53
29
23
83
59
65
74
12
17
72
34
38
46
29
0
14
8
17
19
4
23
0
0
0
25
42
29
87
2
27
23
0
36
14
6
67
2
19
0
29
23
6
12
0
25
14
23
12
0
6
6
0
0
2
10
32
14
0
32
4
29
6
48
55
46
40
23
48
23
4
23
4
0
0
21
0
93
66
0
4
25
0
12
8
12
50
100
59
42
23
17
12
76
83
19
0
14
25
0
10
0
14
44
6
0
0
0
8
0
6
29
8
49
42
44
133
85
4
6
2
0
0
17
0
42
10
6
6
21
36
17
6
23
29
0
38
0
10
2
25
6
6
21
16
63
6
50
67
87
227
170
130
36
49
10
4
40
6
29
0
51
29
0
4
46
4
36
6
2
21
4
17
0
17
0
21
0
0
14
0
4
23
0
4
6
12
6
0
0
29
2
17
0
0
0
0
0
0
2
14
0
17
4
0
38
17
0
44
36
38
44
25
0
23
0
0
36
74
10
6
31
55
4
17
25
4
29
10
12
27
4
25
0
44
10
49
38
36
6
8
21
0
63
19
6
2
29
6
6
8
85
12
19
40
4
14
25
50
78
99
219
176
117
21
57
8
0
0
16
16
0
38
0
2
51
27
0
17
23
12
12
12
23
38
2
25
0
10
61
63
0
36
102
155
116
131
135
117
119
119
14
4
38
36
14
19
51
10
6
68
14
21
23
0
14
0
2
8
31
0
0
23
12
4
2
10
17
2
0
0
8
27
23
51
0
66
10
21
12
17
34
17
2
17
16
2
0
0
0
4
14
4
2
6
6
2
6
64
0
0
8
10
25
36
0
4
27
0
10
0
0
23
19
14
16
0
2
40
25
0
0
0
0
8
2
19
17
0
17
0
31
0
0
14
32
27
0
14
42
12
10
40
14
14
51
91
204
203
178
67
2
2
8
8
14
27
2
25
0
21
44
16
33
8
12
14
6
10
6
10
36
2
6
0
6
2
55
57
93
155
159
128
97
93
85
83
40
0
46
34
4
6
19
6
0
33
68
0
53
0
0
0
29
25
36
0
29
2
14
4
10
4
19
4
0
2
2
0
8
21
38
0
23
0
17
0
6
0
0
4
4
0
4
29
25
2
0
8
8
44
50
27
17
63
0
14
2
36
4
4
10
6
4
46
10
0
12
51
23
14
12
4
61
38
8
19
8
12
0
4
36
25
17
63
2
8
29
10
2
14
32
23
4
17
27
70
2
21
0
21
48
125
246
225
136
33
33
12
19
12
33
0
67
6
17
6
0
85
48
2
16
10
6
0
55
27
32
29
17
36
12
46
27
102
10
76
76
116
87
72
106
57
42
0
12
57
67
6
21
19
16
12
67
29
0
31
29
21
0
19
0
8
27
42
12
0
72
0
0
0
4
0
10
14
0
10
49
2
0
2
6
83
31
0
0
12
33
25
6
0
0
25
23
14
10
46
4
2
46
40
8
14
10
2
38
2
0
12
10
17
4
29
34
0
0
21
0
2
48
10
6
21
2
6
19
67
0
0
10
8
6
32
40
8
0
27
6
16
17
0
19
16
34
16
89
133
99
176
240
213
134
21
0
65
0
10
51
67
2
49
8
0
23
61
4
46
16
72
0
34
23
66
36
36
6
55
10
72
113
113
89
99
53
113
78
96
125
55
78
27
68
55
44
4
25
0
32
23
12
8
27
2
44
4
6
0
36
10
4
27
2
0
0
0
23
2
17
2
29
33
2
12
8
19
27
46
6
12
2
12
31
6
27
8
25
10
64
0
25
34
10
38
8
0
2
0
2
0
14
51
14
0
2
6
29
14
53
17
21
23
2
0
0
2
72
12
2
19
4
38
25
12
2
6
21
31
23
31
14
0
21
14
0
0
8
36
21
4
23
27
123
186
153
125
217
225
110
16
0
10
14
14
23
23
12
10
25
4
10
2
12
2
25
53
10
4
27
4
0
31
14
0
31
83
95
91
142
151
144
115
127
32
85
70
72
74
85
81
78
12
16
6
6
0
8
8
4
38
23
6
4
0
10
40
6
0
27
4
2
2
0
8
0
16
0
12
2
8
4
38
59
2
0
14
23
6
31
14
50
38
48
61
0
19
29
12
6
8
8
8
0
0
6
2
2
21
68
12
50
21
0
2
0
4
21
38
4
16
51
23
14
12
10
67
19
10
8
0
4
10
10
10
29
0
44
0
14
0
84
12
12
6
6
38
10
97
147
243
128
70
112
146
82
57
34
2
25
23
34
0
57
46
27
0
21
23
2
49
8
2
48
78
25
27
2
10
0
12
61
106
110
104
102
142
153
201
121
93
27
87
91
104
51
2
10
31
27
0
42
4
8
0
16
33
0
10
61
32
8
42
0
19
0
8
0
0
44
14
0
2
21
29
46
0
0
33
4
21
2
2
27
14
0
0
61
33
87
82
57
0
17
0
8
0
12
38
0
0
40
0
19
16
0
67
14
25
14
91
2
50
34
0
6
14
0
12
25
80
0
0
10
2
2
0
0
0
10
32
0
23
10
12
8
6
8
21
0
0
23
23
12
29
104
163
85
67
93
74
0
51
40
21
12
48
44
4
55
19
16
4
44
16
14
25
0
110
135
29
0
14
0
12
31
6
61
0
0
98
142
142
155
199
142
113
131
113
157
87
17
0
0
0
0
42
8
63
0
38
2
27
21
12
25
19
4
4
8
8
0
6
14
40
0
12
29
0
14
4
19
4
46
0
29
32
0
0
2
14
8
8
10
42
50
136
136
87
4
72
32
8
42
0
16
21
0
27
36
4
25
10
19
66
170
104
27
40
17
12
4
44
14
36
29
21
0
0
0
0
34
8
21
2
0
0
8
36
21
2
0
8
0
2
2
31
10
12
55
34
10
93
72
19
27
44
4
0
36
27
4
6
14
34
31
2
6
0
0
29
10
32
2
25
104
10
12
0
0
98
55
0
68
34
2
131
99
187
140
164
166
128
128
164
61
46
10
27
23
27
0
4
48
34
4
17
34
0
0
17
8
44
4
55
38
6
6
46
25
2
8
0
2
14
4
27
8
6
6
8
29
0
8
0
21
0
59
4
76
14
12
129
218
147
19
57
194
104
40
6
23
8
31
0
29
36
0
17
10
32
93
4
12
14
17
14
12
0
34
8
2
0
19
16
10
38
16
23
17
8
42
6
23
21
59
6
0
0
27
2
6
33
34
19
40
0
4
32
6
8
19
31
21
19
42
44
25
0
17
16
53
0
27
8
0
4
31
17
32
55
63
40
27
4
49
14
51
12
21
34
25
4
29
104
136
170
167
130
138
87
23
2
2
91
78
16
16
4
38
4
82
63
14
33
61
16
38
8
14
2
0
12
16
68
4
2
2
6
44
0
2
0
25
25
4
61
33
0
0
0
36
40
2
29
36
6
10
74
219
229
70
51
34
46
10
10
25
0
0
16
2
6
38
29
12
6
0
0
6
4
0
48
68
27
16
0
0
8
76
87
31
4
4
4
6
0
0
4
49
12
0
10
17
6
16
46
8
21
25
8
14
0
10
4
23
6
42
46
36
10
8
4
0
0
6
34
8
38
19
14
14
21
25
32
10
17
33
0
46
25
27
8
17
0
23
66
8
36
2
12
59
70
42
121
42
16
0
2
14
17
19
0
0
17
0
61
112
108
27
4
29
29
40
14
6
12
6
0
10
0
34
6
10
17
16
59
0
0
4
12
25
0
57
23
42
8
67
14
0
10
2
23
42
85
157
201
91
49
0
0
8
2
21
14
2
0
0
8
17
6
6
8
27
44
27
38
16
2
0
0
8
29
0
0
0
0
6
6
0
0
10
31
4
16
42
0
8
48
0
0
2
19
6
0
0
0
4
34
0
0
14
8
2
70
27
27
10
23
6
2
40
2
2
19
10
0
0
14
0
10
0
19
32
0
21
40
12
8
46
17
96
55
25
14
38
6
34
10
34
23
6
8
38
2
0
42
8
6
72
36
31
59
14
12
46
49
0
6
42
74
0
27
0
8
4
40
0
53
12
0
10
2
25
6
29
0
0
36
27
19
4
14
2
12
36
2
17
6
0
34
61
160
19
2
4
8
34
67
0
36
34
4
4
38
68
0
0
25
2
12
12
27
14
0
10
6
21
2
0
61
0
4
0
33
19
12
2
21
2
65
0
44
14
21
34
44
6
6
61
42
0
12
46
96
8
4
8
0
0
19
0
50
21
0
10
16
21
46
0
51
10
57
23
25
2
36
2
29
10
0
16
0
0
17
48
53
42
40
51
0
63
0
46
42
14
0
12
2
10
49
0
0
0
23
12
6
51
57
55
48
29
6
21
33
33
23
55
8
55
0
0
4
0
33
0
0
12
55
25
17
23
21
2
19
61
10
4
12
4
4
0
6
38
25
8
12
0
68
16
118
110
12
10
10
48
12
4
19
0
4
0
0
31
0
0
6
27
17
0
38
0
19
14
8
25
6
2
21
10
2
0
64
59
55
19
21
0
0
8
29
4
42
8
16
27
17
32
65
25
10
0
2
8
42
0
27
6
48
0
74
14
12
12
36
0
0
0
12
38
2
2
10
38
29
14
2
21
57
6
38
0
16
8
21
4
0
0
6
53
17
6
21
14
8
0
31
40
23
6
17
76
36
2
82
4
36
4
74
0
2
19
14
0
0
0
0
31
0
17
2
42
16
0
0
0
25
8
19
6
0
4
0
0
23
6
53
40
27
6
29
8
14
0
49
57
223
130
38
36
38
25
33
19
27
8
0
44
27
34
14
0
0
21
16
10
17
0
34
19
14
8
6
23
36
0
0
0
0
8
8
0
10
42
17
19
4
0
12
4
17
19
0
8
16
57
21
2
16
17
38
2
17
38
44
0
0
2
19
0
44
12
14
16
55
2
17
31
14
40
0
2
10
6
29
10
17
8
0
6
33
42
2
2
61
57
42
68
21
27
51
44
42
38
49
34
87
150
46
48
40
25
59
40
32
0
4
0
0
0
0
21
4
2
12
2
0
59
8
23
6
8
12
21
0
6
14
12
16
93
4
0
21
25
17
0
32
8
8
2
53
27
142
61
6
44
14
6
21
33
55
0
4
61
0
14
0
23
0
2
8
38
0
0
0
6
12
0
97
4
0
14
42
2
0
2
4
14
0
14
4
12
0
8
29
0
68
17
2
14
2
34
8
36
29
0
8
19
16
14
4
78
10
51
12
17
70
31
10
4
44
72
40
8
61
4
4
32
23
0
0
0
0
2
2
29
17
6
76
59
16
61
34
19
76
38
63
0
68
27
101
66
68
31
78
27
19
34
55
61
33
6
46
10
6
14
42
8
59
0
10
14
0
16
12
6
0
44
17
6
0
19
44
17
17
0
0
38
78
6
21
36
42
29
0
14
14
2
0
14
10
0
0
2
21
0
0
14
0
12
10
2
17
2
89
8
0
33
2
21
25
10
27
61
14
17
6
29
12
21
2
42
0
6
12
57
8
14
0
0
4
0
6
14
51
4
10
17
8
14
50
27
57
53
14
85
57
16
8
93
2
4
4
16
14
23
0
12
0
65
36
36
38
2
66
2
27
2
36
12
23
31
0
6
50
23
65
40
36
33
51
36
70
23
93
146
140
149
149
104
29
55
40
61
49
4
0
102
42
10
0
0
29
16
4
42
19
61
10
0
51
2
68
0
0
23
8
0
21
23
50
4
8
0
12
14
0
4
8
57
0
31
0
33
53
29
0
8
32
17
8
8
0
4
4
25
21
34
27
8
8
36
70
0
14
10
10
17
23
10
0
19
55
27
0
44
0
2
27
19
8
12
40
4
10
0
31
17
55
14
61
0
17
0
36
53
8
34
16
44
8
14
72
38
6
14
0
0
6
36
19
0
0
40
59
38
36
27
12
64
14
8
12
6
0
48
40
2
16
10
10
55
12
10
12
29
59
72
70
100
145
140
162
186
235
229
133
0
0
19
72
51
0
40
8
0
6
14
38
2
14
25
29
29
59
17
2
0
10
61
21
16
0
4
2
6
4
6
61
6
17
57
10
12
8
6
23
33
0
57
0
0
23
0
32
36
16
0
14
0
2
21
0
29
14
16
8
4
17
29
6
14
6
97
93
0
10
23
51
0
21
6
6
44
32
6
8
0
4
12
14
21
57
4
14
21
31
55
34
12
10
25
42
34
25
51
51
10
23
17
67
0
25
53
53
10
0
38
49
38
44
38
48
16
36
4
49
51
2
0
40
8
6
16
12
6
29
10
4
57
53
0
10
59
91
136
157
164
174
170
218
200
176
76
29
40
38
6
46
10
8
34
25
17
87
8
10
6
34
36
38
44
8
12
59
4
40
14
12
0
14
17
14
0
14
64
19
0
4
42
21
4
44
40
14
36
29
44
12
0
14
4
61
0
6
10
4
55
23
63
2
4
0
0
0
4
23
8
2
14
66
59
4
0
6
4
0
76
34
8
44
10
46
46
0
0
46
6
2
27
14
31
19
0
48
6
31
21
0
44
36
10
27
10
8
34
68
38
74
6
68
59
76
19
34
89
27
27
29
25
25
42
17
16
12
33
12
2
17
67
2
8
19
23
12
27
46
40
76
51
81
127
179
195
221
227
202
153
160
81
36
66
34
0
40
0
2
6
34
0
36
6
2
0
0
25
6
19
0
2
4
64
4
0
21
10
0
23
12
17
10
0
4
4
46
55
33
25
44
0
0
51
25
0
25
49
0
21
0
2
0
29
25
33
0
36
14
4
0
10
4
0
16
4
8
25
8
12
12
34
61
51
0
19
0
0
2
23
61
4
10
14
21
8
0
12
6
0
2
21
38
29
0
16
0
40
78
59
38
87
23
67
38
65
100
6
23
38
130
83
78
32
50
14
8
10
0
4
44
6
4
0
32
2
55
78
0
6
53
0
40
74
8
44
82
98
106
152
194
231
245
248
232
155
152
70
42
21
27
50
34
12
0
14
10
23
0
0
78
0
16
59
46
0
8
17
0
0
0
25
34
10
21
2
46
40
0
0
57
19
51
0
70
0
14
40
0
10
21
4
19
2
72
27
14
14
93
31
0
8
17
10
2
40
0
10
8
84
6
67
33
17
19
2
8
2
16
36
0
4
23
34
0
8
16
6
114
0
19
0
67
40
2
2
67
65
0
44
21
36
70
10
59
98
115
125
57
72
0
102
33
17
72
78
108
42
0
27
10
6
4
21
4
4
19
19
0
2
0
0
23
21
44
31
48
8
25
17
50
21
25
63
81
136
182
233
251
252
227
142
110
93
55
14
12
16
44
0
38
29
6
6
14
0
2
10
0
17
0
25
2
17
2
12
21
4
0
40
40
33
29
46
23
8
0
0
31
55
29
0
10
19
38
61
14
36
27
17
10
29
0
10
6
0
0
2
6
14
19
2
0
17
8
4
0
14
25
68
2
2
0
21
0
27
29
27
8
12
14
14
31
61
2
31
0
25
4
2
44
0
81
10
31
61
59
40
0
33
97
140
161
172
163
142
136
93
46
76
10
59
74
0
8
23
21
25
32
2
23
0
2
21
32
2
14
2
51
74
4
8
0
2
6
25
59
66
85
53
38
121
157
195
237
246
218
125
87
102
57
25
0
12
23
4
34
42
6
23
51
51
2
91
53
53
6
17
8
0
4
27
4
10
10
53
23
44
29
27
42
6
40
2
17
29
19
25
14
38
55
38
50
36
81
31
27
104
102
6
27
12
27
4
8
2
38
10
0
0
0
16
16
12
19
6
0
12
0
0
0
8
14
14
8
6
10
10
36
21
0
4
21
61
19
10
44
10
12
32
25
19
8
6
8
50
87
123
144
161
183
189
140
148
130
80
42
53
0
16
4
81
78
12
40
21
27
50
12
36
25
8
12
17
14
2
8
0
25
50
8
17
61
85
27
27
70
108
134
196
247
221
199
87
108
68
0
6
38
8
40
8
0
12
23
0
89
83
123
216
65
23
12
4
12
40
48
16
76
59
25
59
0
10
34
59
8
29
6
27
27
38
51
2
0
21
57
0
8
0
85
33
70
44
2
0
0
10
51
4
6
17
4
38
8
2
19
14
4
0
2
44
12
0
21
10
25
4
21
14
2
33
33
8
12
55
38
53
6
25
16
76
14
95
0
34
48
0
17
27
59
89
123
116
148
155
166
170
197
172
149
129
68
113
104
21
38
10
4
25
27
23
16
0
6
10
70
8
17
10
14
29
0
67
0
0
4
0
6
34
21
99
57
99
163
142
174
174
172
93
68
42
21
23
4
2
68
10
8
6
10
23
2
93
209
253
127
19
121
8
10
42
2
27
2
42
10
55
34
97
14
68
59
78
80
64
78
8
21
91
48
2
14
38
98
42
42
0
23
57
0
16
4
38
14
59
91
0
29
19
12
10
0
0
12
14
0
6
49
2
2
2
0
0
19
27
6
21
12
0
0
16
0
53
0
34
0
10
0
14
34
0
12
40
42
0
57
59
108
130
147
147
152
186
204
202
169
149
135
81
106
74
61
85
72
57
48
16
27
14
10
0
2
36
51
38
32
46
0
2
51
55
0
6
0
16
61
0
110
83
134
140
167
116
106
84
87
34
78
42
6
21
87
0
0
57
38
59
95
119
95
127
29
19
78
2
17
0
17
34
57
0
29
0
46
17
46
148
133
136
159
157
147
133
113
57
83
57
17
51
48
85
68
23
0
44
16
25
8
6
91
46
27
12
16
0
4
25
34
0
10
16
2
14
14
0
8
17
0
38
12
68
27
4
4
0
2
2
23
27
0
74
16
6
14
4
0
12
0
0
2
10
51
40
83
108
118
138
169
183
197
208
212
203
193
163
142
78
89
49
29
51
51
36
19
0
6
0
0
31
8
44
10
10
2
14
12
2
4
2
59
12
17
25
19
51
51
72
108
89
64
4
6
50
8
36
12
0
0
25
23
8
17
31
38
80
55
6
27
63
49
46
36
0
51
59
59
61
67
29
91
104
119
157
186
169
201
238
176
187
198
136
93
29
76
27
27
40
10
25
49
4
6
61
21
2
32
72
2
6
0
16
4
10
19
0
17
0
6
14
0
2
50
59
50
0
12
0
4
27
36
29
2
0
0
57
8
44
2
23
19
66
12
38
21
14
25
102
68
23
67
119
108
157
166
196
206
218
215
208
209
187
174
146
89
91
72
6
40
38
46
51
27
38
34
53
36
2
21
14
0
63
53
33
19
10
6
51
63
40
27
32
38
17
0
21
0
8
36
10
44
84
21
38
2
27
4
12
10
19
8
29
27
17
10
10
53
0
0
31
48
44
68
80
89
89
132
150
177
185
217
185
193
203
208
217
249
221
164
125
59
42
34
61
0
0
29
0
0
51
27
42
34
2
10
44
17
2
6
25
0
38
17
29
2
12
10
25
17
2
34
0
17
0
2
4
34
8
34
0
10
10
40
14
6
68
4
65
40
29
85
42
21
8
0
65
34
59
93
123
153
192
215
216
213
215
211
198
189
174
155
123
31
68
50
91
0
84
10
32
34
2
8
12
23
36
12
4
8
10
34
2
14
8
42
19
44
25
61
25
36
0
14
49
59
14
40
2
0
0
0
0
19
0
16
23
25
33
32
6
23
68
25
25
106
59
33
19
57
68
129
78
153
189
180
138
170
182
189
202
203
204
221
235
221
182
148
74
49
76
57
70
23
6
25
59
44
61
53
14
33
0
40
51
61
0
23
0
19
4
21
21
17
14
23
2
8
17
8
17
36
34
14
8
10
19
12
40
27
16
0
32
74
4
14
0
44
4
0
42
21
53
14
121
59
113
182
210
209
216
209
216
216
220
210
199
174
169
142
100
64
49
0
0
10
31
33
17
12
6
6
48
57
19
0
19
23
25
17
14
0
17
2
10
36
0
57
4
32
4
4
14
53
6
8
2
0
10
2
6
31
0
8
0
0
50
2
0
0
167
150
55
17
0
108
119
130
100
131
121
149
167
202
216
204
213
206
213
217
223
236
236
195
87
21
46
17
53
108
51
101
133
133
150
102
83
10
27
46
59
34
0
0
12
0
51
91
27
12
44
36
0
34
25
0
104
85
31
0
64
8
33
10
17
36
16
0
64
6
63
38
55
0
38
29
8
27
14
78
59
130
95
150
192
209
213
216
216
215
227
232
214
209
187
163
87
96
50
51
16
2
6
27
14
8
33
14
153
119
117
0
19
29
10
36
14
4
29
21
6
12
0
80
0
12
57
63
38
31
0
8
2
0
29
14
2
14
14
0
33
0
42
10
6
12
46
49
2
99
117
178
136
133
100
102
127
151
187
196
241
226
238
238
238
237
238
240
217
213
150
91
91
83
14
51
130
157
189
195
172
164
155
118
42
0
23
0
29
21
0
23
2
19
0
40
0
4
29
0
6
108
215
245
44
12
33
36
0
10
4
12
0
0
32
0
14
44
31
14
83
14
25
6
57
27
23
63
108
130
180
210
210
212
219
227
236
236
227
215
206
182
161
85
76
85
51
33
27
0
38
8
46
38
150
242
102
0
65
31
27
29
0
2
51
21
38
40
0
46
29
0
31
31
0
2
61
23
0
17
0
8
6
25
14
34
36
53
8
14
53
100
17
19
50
115
121
157
95
70
44
116
145
167
133
176
211
244
255
255
255
255
252
245
219
219
162
101
106
74
38
115
116
152
216
226
202
178
163
85
61
10
55
48
2
29
2
14
0
0
14
6
6
59
29
0
44
57
150
138
61
12
4
8
0
4
44
40
14
40
29
19
16
10
2
0
6
21
42
12
38
70
44
57
125
102
150
197
209
219
221
240
249
249
246
241
221
209
189
142
72
87
27
38
25
12
10
25
61
12
89
119
117
0
34
16
8
2
17
17
4
36
32
0
14
0
36
40
29
10
8
12
0
8
6
4
2
17
6
49
19
42
29
34
17
40
17
17
8
38
14
89
134
179
114
55
49
99
116
138
125
165
221
246
249
253
253
255
252
236
211
221
215
148
70
101
112
136
123
106
149
153
177
155
157
82
44
19
29
14
31
29
10
12
2
10
38
0
0
19
0
21
17
16
6
31
29
34
40
2
0
17
4
8
2
0
65
42
0
21
32
0
10
40
8
34
2
8
19
68
113
113
87
179
212
209
227
242
252
255
255
252
235
218
206
181
102
61
87
72
38
40
14
14
14
6
51
93
106
81
31
12
42
6
4
49
42
23
0
14
17
8
12
78
0
0
12
12
51
33
27
4
17
2
44
2
0
4
44
25
12
12
57
32
2
4
49
0
34
85
38
101
133
123
127
130
78
153
199
238
236
240
241
236
231
213
201
204
178
127
113
81
74
57
119
55
110
117
147
59
89
34
46
12
10
2
40
14
10
0
17
16
33
27
0
14
27
38
4
0
0
32
10
10
19
19
49
2
14
12
16
4
4
8
40
0
4
42
34
0
0
0
12
8
6
2
76
85
112
147
218
208
221
235
249
254
255
254
245
227
196
191
151
104
27
25
12
44
12
0
25
21
38
38
0
25
44
76
38
48
25
44
16
0
0
32
12
31
36
17
19
17
6
8
4
0
4
48
0
34
0
2
0
38
36
40
42
49
12
23
93
40
4
33
57
104
78
36
17
91
112
133
110
132
172
233
227
230
238
232
214
193
206
177
170
138
98
87
63
36
19
34
4
100
53
36
21
0
2
10
8
25
51
17
19
14
4
0
14
40
40
70
0
6
0
14
0
0
19
65
6
10
2
6
51
2
0
0
10
23
14
0
0
0
0
10
12
4
6
10
53
0
4
4
125
131
155
187
206
221
238
253
255
255
248
230
206
206
180
153
110
99
46
78
34
34
8
17
46
0
99
2
17
44
0
2
14
29
8
0
6
19
6
83
10
0
6
34
46
4
4
46
36
10
38
0
46
19
4
48
91
14
10
4
10
8
2
16
0
4
10
49
17
31
34
110
117
72
104
115
136
182
223
220
212
219
206
202
201
162
157
128
157
72
72
55
23
0
6
2
29
6
2
12
0
46
0
10
0
0
2
6
10
44
6
27
2
82
32
14
17
8
40
6
8
6
0
49
49
36
4
14
2
16
8
6
10
16
0
66
19
2
33
4
40
10
19
0
49
76
125
131
157
165
195
220
224
241
241
248
244
231
220
194
204
186
136
104
12
25
64
14
23
51
14
53
6
14
70
23
0
2
10
16
29
19
36
34
29
17
0
17
8
25
10
14
44
0
4
6
0
42
17
4
29
6
2
8
23
53
0
14
0
14
6
4
44
44
4
29
78
112
96
89
138
87
68
132
187
230
196
195
201
196
193
170
136
145
78
50
53
0
2
61
0
19
14
14
10
2
29
27
33
44
17
44
33
2
0
29
46
10
21
0
6
36
4
29
0
27
12
0
61
0
36
38
0
10
2
2
0
78
4
10
12
38
2
12
49
6
31
33
17
76
33
98
17
121
96
125
180
204
216
227
230
230
233
225
224
199
217
189
157
95
55
6
78
46
59
12
12
51
4
78
83
29
49
8
2
17
21
12
82
23
33
27
57
0
27
16
46
10
17
12
21
21
57
2
0
6
6
10
19
19
44
40
55
0
42
12
12
25
70
48
17
44
51
99
42
99
93
78
78
123
110
178
184
187
177
172
166
142
118
106
40
4
10
0
55
0
23
10
8
17
10
8
27
4
6
10
6
23
16
2
0
0
2
14
33
4
10
16
8
33
21
0
23
40
21
4
29
2
6
10
6
0
0
19
19
0
27
32
4
36
12
14
6
0
36
31
61
64
87
89
116
144
138
170
191
211
220
230
224
220
215
217
228
211
164
151
78
89
83
68
87
51
53
38
17
66
50
63
34
33
84
34
42
119
66
16
17
0
48
10
17
6
0
21
0
4
10
14
10
6
0
10
0
0
4
27
0
4
72
46
42
4
14
8
0
0
8
31
36
27
85
12
42
59
140
134
87
93
74
142
138
149
159
140
64
85
32
12
0
10
6
0
10
10
19
8
17
6
53
17
0
2
29
8
29
17
10
55
12
53
53
55
0
0
19
36
59
59
57
14
23
27
10
34
0
16
27
12
10
12
4
91
23
14
10
10
8
0
2
66
10
59
0
10
70
57
14
100
102
135
153
182
211
221
224
221
223
221
230
221
182
148
128
93
82
8
85
65
68
40
61
44
51
36
55
67
14
42
167
93
12
38
12
0
10
0
16
8
72
12
0
32
6
25
0
0
6
6
6
4
65
29
8
23
14
2
10
31
19
0
89
36
27
10
0
34
53
61
16
78
110
76
89
82
68
104
96
100
42
44
6
19
0
14
0
4
6
8
2
6
0
2
4
4
21
0
4
0
57
27
33
0
8
65
40
44
0
76
14
0
0
4
0
38
4
19
27
27
0
40
12
23
53
0
12
2
0
14
2
14
33
76
4
33
0
32
2
0
66
19
17
14
32
72
121
118
136
157
182
195
213
226
219
220
223
225
204
155
151
142
12
78
91
136
68
72
17
23
99
78
64
6
12
108
123
55
4
19
12
21
40
0
12
14
53
8
40
4
0
102
12
10
6
0
42
0
2
4
6
21
0
6
42
36
8
0
0
40
6
2
21
2
0
63
23
36
42
53
72
23
53
51
48
63
12
42
21
10
12
50
38
19
29
2
0
32
4
0
21
0
4
6
0
0
0
6
31
27
70
10
6
42
8
16
12
0
12
17
29
6
0
19
72
25
8
2
38
36
4
12
19
8
16
40
31
17
42
0
29
0
31
36
4
33
8
19
8
31
4
96
59
96
93
142
174
168
187
206
215
218
216
204
206
184
164
132
127
106
108
49
96
78
95
72
96
81
89
85
162
146
53
10
10
0
0
12
0
8
0
16
10
25
36
23
8
10
2
4
21
34
8
12
59
53
25
31
0
10
0
36
21
59
0
38
0
2
16
12
0
23
29
46
59
50
23
61
4
34
12
0
0
6
6
32
0
19
12
0
19
61
0
0
4
16
51
0
25
0
0
12
12
34
0
4
12
19
0
23
0
4
10
0
66
0
106
78
44
4
83
72
33
10
57
10
38
23
8
64
0
0
23
44
0
8
10
38
89
4
2
17
0
23
8
0
25
48
61
76
55
108
104
174
195
186
199
193
202
201
196
195
194
153
89
119
112
123
140
138
138
127
112
125
114
145
136
63
55
12
2
6
29
14
0
10
0
23
4
66
0
12
4
44
4
17
8
0
46
76
40
74
34
2
8
6
17
2
4
0
42
4
0
19
0
0
29
0
0
21
44
44
46
12
12
96
29
36
4
25
51
40
23
0
59
2
0
23
6
50
0
4
14
29
53
16
0
0
8
2
16
0
19
4
0
8
8
0
0
2
19
0
46
0
0
14
125
76
34
23
34
12
14
16
0
2
46
4
42
29
4
98
19
0
31
10
17
33
0
32
48
21
53
53
29
23
51
91
101
130
136
185
194
183
210
198
189
184
199
199
121
159
153
142
170
148
152
125
153
119
155
138
123
68
53
70
31
0
0
53
50
65
19
33
0
104
14
0
0
4
33
44
57
0
0
27
12
23
0
12
36
23
59
17
4
6
4
0
34
0
0
14
4
0
19
2
10
42
40
16
70
0
14
17
0
0
31
0
4
0
4
0
87
46
0
76
8
6
17
6
0
6
0
0
55
0
38
4
2
6
36
2
0
53
0
14
33
0
12
57
29
78
78
29
42
2
40
0
14
32
10
17
12
23
42
2
17
17
6
21
4
8
72
12
29
55
0
8
0
40
17
38
34
93
29
104
123
138
182
206
244
220
187
155
189
198
172
140
164
184
202
182
163
177
162
176
172
117
110
93
76
10
21
8
0
6
0
0
6
19
8
72
23
32
6
36
2
8
16
42
76
33
6
0
17
19
0
6
2
0
8
2
4
8
0
34
27
0
21
25
27
0
2
17
0
0
12
6
14
2
17
12
0
12
38
0
17
12
23
2
0
27
25
0
25
21
12
19
17
12
46
21
6
38
0
0
4
0
14
0
0
0
2
12
2
23
40
19
50
46
0
14
25
10
17
0
10
25
4
19
0
44
19
23
27
10
14
51
36
8
48
31
36
0
14
21
17
32
76
19
87
59
108
121
192
213
221
215
198
191
181
149
192
180
162
206
225
209
187
198
242
221
133
198
187
119
29
59
21
4
14
23
57
17
6
34
12
0
2
32
12
19
48
0
0
12
29
2
8
53
29
19
6
10
6
27
0
46
0
14
40
89
8
36
4
10
0
29
10
34
0
10
50
0
14
17
76
53
0
23
16
8
4
17
12
6
21
19
19
33
10
0
14
14
2
6
0
6
49
2
33
0
17
10
32
0
33
53
6
0
0
2
53
53
8
65
78
0
23
49
0
6
42
38
23
0
31
27
36
0
8
16
17
25
0
81
0
4
0
8
10
32
25
12
67
57
46
85
59
185
249
238
229
180
163
183
140
142
132
213
230
242
241
238
235
249
250
174
150
136
138
116
70
12
61
34
21
0
23
46
8
0
8
2
17
17
0
48
0
4
8
21
34
32
6
2
17
53
8
0
0
14
12
0
4
49
25
12
10
6
19
23
0
2
12
12
0
27
61
34
17
10
0
51
0
17
12
76
21
53
40
14
0
6
36
4
8
0
25
64
34
25
0
4
34
40
14
40
104
42
14
14
40
4
10
0
0
42
49
16
32
0
0
16
23
0
63
0
21
6
16
23
29
0
33
0
32
8
59
14
0
27
46
72
6
0
14
85
8
0
51
6
44
89
184
223
172
153
146
140
128
155
131
140
129
208
248
255
255
255
253
254
210
164
132
133
84
110
128
114
72
25
23
27
2
36
19
32
0
0
16
0
36
12
2
0
0
4
21
8
0
17
38
19
0
27
0
38
16
6
0
34
8
0
23
4
0
0
23
21
0
34
0
33
0
67
29
17
23
2
0
17
2
23
0
0
44
14
0
19
8
27
6
72
8
2
16
6
0
17
34
0
46
46
223
91
0
4
25
0
25
6
38
53
0
2
12
0
12
0
33
46
33
33
12
4
4
0
4
44
12
0
44
0
16
2
21
17
36
29
0
48
53
212
78
0
87
6
53
93
168
119
89
112
114
150
119
149
140
144
172
228
249
255
255
255
255
252
204
172
110
138
133
169
121
136
125
59
19
0
53
19
23
4
0
4
0
25
0
65
0
2
6
8
0
27
19
44
87
0
42
6
53
19
61
42
0
12
12
40
32
12
25
61
17
82
0
0
0
12
4
12
10
29
0
6
4
12
4
12
10
12
51
87
8
8
0
34
12
0
4
0
19
0
0
0
0
36
0
70
180
157
33
36
2
2
6
0
4
8
17
40
55
16
2
21
17
0
0
12
46
4
81
33
4
0
36
2
0
36
4
19
12
2
38
2
0
33
68
96
36
0
8
29
38
68
162
89
59
74
93
110
87
84
96
152
184
243
253
255
255
255
255
255
206
136
132
142
153
155
179
161
183
55
29
0
53
0
17
32
29
8
31
2
14
0
0
23
2
0
46
38
87
6
27
6
0
0
17
21
29
0
0
10
0
4
2
23
36
113
4
96
17
6
4
38
0
2
0
19
29
4
12
8
14
21
32
40
0
6
27
0
19
12
8
0
25
78
12
6
49
0
4
0
0
0
33
102
29
46
21
23
0
10
10
2
0
4
36
0
8
98
4
42
0
17
36
23
6
0
2
0
4
0
21
12
2
40
16
2
4
6
53
61
0
21
68
17
0
16
32
32
31
33
78
104
102
91
134
197
168
138
194
237
253
255
255
255
254
252
237
193
161
162
125
128
165
110
112
89
29
10
4
19
12
32
0
48
25
0
0
14
2
0
0
25
10
14
21
0
23
8
0
38
34
46
6
19
8
14
0
19
4
12
6
17
32
70
6
4
6
19
17
23
10
10
0
12
6
17
10
0
31
0
4
44
0
0
6
0
0
4
6
27
2
2
4
2
8
12
31
12
0
50
31
53
116
34
8
0
46
2
67
34
2
61
6
8
0
12
4
27
23
8
12
25
40
25
23
32
17
42
4
23
8
10
12
10
46
0
8
25
17
19
10
0
27
19
0
63
78
34
123
117
119
151
170
149
149
215
252
255
255
255
254
245
199
195
150
125
123
108
125
117
110
46
32
0
53
0
49
23
10
0
27
2
6
38
0
12
0
27
70
8
36
38
2
2
2
36
0
17
10
0
0
2
10
17
76
40
8
29
36
61
40
14
23
25
6
42
14
2
2
16
8
0
0
14
4
6
17
0
14
6
0
8
10
6
12
21
6
0
2
4
14
4
74
4
53
14
6
0
42
72
14
0
12
0
2
66
36
0
25
19
16
2
8
0
8
29
25
19
0
23
32
0
6
44
14
53
6
2
0
40
46
76
0
31
10
68
6
27
36
68
76
50
53
72
78
108
108
136
134
153
184
254
255
238
251
244
234
235
220
155
106
110
95
91
104
89
46
21
38
8
42
44
17
21
17
44
51
10
2
0
2
0
4
0
17
2
4
2
59
32
0
23
34
19
38
0
29
4
0
0
0
27
0
4
14
25
12
12
0
21
10
40
25
2
0
0
0
0
17
27
23
0
4
65
53
0
2
44
8
10
10
6
6
23
0
0
0
8
10
4
21
6
0
17
66
91
36
21
36
42
8
19
0
68
36
29
8
23
12
31
42
21
2
14
2
34
2
16
0
36
2
0
12
0
19
25
4
2
49
16
66
34
4
8
29
36
2
2
53
40
76
114
102
144
106
98
206
249
219
240
224
204
172
152
213
179
119
82
66
85
72
67
55
29
10
44
10
34
17
42
23
23
2
19
2
6
0
8
17
48
0
0
59
0
25
0
6
12
6
0
0
12
29
6
0
23
0
6
19
6
74
8
61
0
61
21
0
0
4
40
36
44
0
4
10
81
49
0
29
6
6
6
50
12
44
2
12
0
0
48
8
4
0
0
34
0
23
17
25
21
19
6
0
8
17
25
12
10
68
25
0
0
21
8
44
4
31
25
8
0
12
0
46
17
0
25
23
61
10
14
38
38
19
61
76
16
48
0
4
17
51
4
36
70
42
16
8
98
112
89
117
170
177
167
160
172
185
131
161
102
127
160
89
87
46
57
59
44
6
4
21
2
0
21
0
0
0
36
0
64
0
27
44
55
21
29
0
25
8
46
12
0
8
38
14
51
8
4
49
34
44
19
0
14
0
4
16
21
2
34
8
40
14
0
14
21
17
4
29
14
19
12
10
36
36
16
8
10
12
25
4
12
4
10
33
87
136
76
53
4
42
36
17
31
0
0
10
4
14
0
53
12
21
8
21
81
36
0
10
67
2
8
67
23
12
33
4
61
36
51
36
53
4
57
2
0
0
12
0
10
46
8
6
23
46
21
21
70
6
78
80
74
101
100
91
132
174
200
118
121
145
150
182
115
136
85
101
113
138
125
82
23
23
16
72
65
36
0
27
59
0
29
12
16
50
10
6
0
8
19
6
0
0
0
8
17
0
0
10
0
2
2
2
42
0
25
2
12
0
31
14
14
16
0
12
14
0
0
14
23
14
10
12
29
0
4
38
2
0
0
0
6
36
108
19
12
42
12
2
0
0
123
248
209
136
4
0
10
14
19
21
4
2
4
0
38
0
19
0
8
53
25
6
0
6
29
44
34
36
0
0
10
0
34
12
27
27
34
33
59
17
106
57
10
29
10
4
44
0
16
21
8
16
10
31
25
89
78
85
82
102
170
174
108
100
140
117
136
149
128
82
112
76
46
6
85
104
17
36
32
6
10
44
12
70
14
16
0
33
36
4
36
36
23
36
31
29
27
33
14
0
6
42
19
4
17
4
42
57
29
21
29
6
19
14
36
17
6
14
0
4
4
19
14
23
19
4
14
4
0
21
32
0
14
0
16
0
0
2
2
12
2
12
0
0
29
6
21
119
144
42
29
46
36
0
0
53
23
4
27
59
32
16
10
66
19
0
17
19
6
0
14
12
16
0
23
0
0
38
8
0
17
19
14
2
6
63
44
23
2
25
0
8
4
25
19
46
59
6
12
12
85
33
100
36
68
125
176
99
96
123
110
89
95
106
128
104
74
87
68
91
117
70
74
61
21
2
48
2
42
0
19
16
27
27
0
0
10
10
4
0
51
2
21
2
8
12
2
6
10
10
4
10
63
23
0
0
4
25
31
32
6
6
16
2
76
0
8
0
0
2
19
23
0
70
8
91
21
21
0
8
72
0
12
19
0
38
0
27
0
0
2
33
48
85
8
25
27
2
0
0
36
8
12
0
19
33
21
36
2
4
2
0
23
33
8
61
8
46
0
14
0
0
8
55
10
10
8
0
21
27
10
0
57
2
34
38
0
2
23
0
19
21
51
57
33
19
48
42
80
89
135
151
96
78
46
76
27
76
87
74
70
131
68
97
61
64
59
0
53
133
146
138
23
0
27
0
32
4
0
102
4
55
12
0
44
0
27
0
6
0
25
0
2
0
14
4
68
40
0
0
6
10
8
19
21
10
0
17
0
6
6
8
10
14
14
29
0
23
10
23
6
12
72
23
12
8
0
8
4
23
27
14
4
6
0
14
0
0
0
10
14
2
21
33
46
2
46
0
16
23
34
32
8
53
25
19
12
0
81
8
4
4
12
0
76
25
0
32
16
36
0
10
27
0
25
2
0
53
0
0
17
59
4
19
14
17
0
8
16
34
38
82
46
31
50
106
138
68
78
63
76
67
84
61
74
110
113
46
76
31
34
17
42
36
53
57
184
80
19
40
42
70
6
12
4
14
29
0
4
2
25
12
6
2
40
0
38
23
0
33
14
0
2
23
4
0
17
53
40
0
0
14
12
0
53
51
14
10
0
29
8
0
8
12
0
4
0
2
4
40
19
0
36
48
25
2
40
29
4
0
0
0
0
0
0
8
8
0
21
6
2
49
2
12
0
10
0
12
10
36
27
50
23
19
44
51
0
10
19
17
21
4
49
38
67
10
0
8
4
33
31
55
17
27
8
8
2
0
63
68
17
6
0
21
10
44
57
27
38
51
118
85
51
36
36
0
84
34
50
17
76
89
44
46
36
36
70
29
34
21
12
40
85
84
46
4
19
42
23
0
0
29
2
0
59
0
4
0
4
23
6
21
0
4
8
4
0
25
53
0
0
4
29
25
4
19
8
66
12
14
0
6
12
2
6
38
23
36
8
0
2
10
0
38
10
36
4
0
12
38
42
6
2
61
8
12
4
0
0
6
2
0
10
23
14
21
38
33
12
4
29
0
0
4
6
42
14
8
8
14
40
57
42
44
10
38
31
4
42
2
25
8
0
68
10
0
59
0
2
0
0
0
6
17
12
27
8
6
0
29
0
27
36
61
25
98
95
64
34
17
70
51
10
14
14
10
70
55
115
17
55
6
4
25
25
6
23
78
48
36
57
49
2
2
17
14
70
21
21
6
4
23
38
40
23
17
0
23
19
8
0
0
0
21
0
17
23
23
23
0
17
32
0
49
27
0
40
36
23
12
0
0
6
0
0
0
2
29
0
21
8
0
0
34
36
0
14
25
0
8
34
74
91
21
0
17
2
4
0
48
33
6
19
21
8
4
2
0
17
10
44
0
21
27
42
17
10
29
2
10
19
0
12
4
0
6
68
12
29
0
0
10
0
0
36
8
57
12
25
0
33
87
23
16
0
2
0
4
23
25
65
4
38
72
0
29
76
64
27
19
2
40
0
50
25
34
25
10
46
49
0
53
46
27
48
21
10
10
16
14
2
34
25
0
6
8
29
4
16
38
110
6
14
12
34
25
0
34
44
38
12
27
8
4
17
2
4
2
16
38
21
25
2
49
0
14
0
0
2
4
2
21
2
14
49
0
0
23
21
19
14
0
0
0
25
25
8
0
23
31
10
0
8
53
76
136
19
6
25
2
0
38
0
17
21
0
6
44
14
23
0
0
34
19
0
57
2
14
46
0
4
0
46
2
42
0
0
17
0
6
33
21
0
4
12
76
25
2
27
21
8
38
0
19
23
8
80
34
14
84
0
17
40
59
46
8
21
10
38
29
17
16
4
4
0
6
57
0
53
117
102
27
8
36
19
19
25
14
4
2
6
4
23
0
2
85
155
67
4
2
4
44
12
4
23
4
27
19
23
10
0
10
44
0
4
0
21
0
25
82
0
27
8
0
0
0
8
23
4
4
0
40
0
6
4
10
25
51
0
10
0
17
4
2
14
6
8
0
0
14
17
27
6
6
17
2
38
2
0
6
0
12
0
0
0
29
27
0
40
33
0
0
46
0
14
0
8
32
2
10
68
12
0
12
0
2
12
0
4
2
33
12
38
40
10
61
8
38
25
21
76
93
23
14
29
36
12
10
19
46
0
2
10
19
0
17
93
48
16
57
10
42
29
49
34
98
0
2
32
8
21
34
8
17
40
14
40
0
21
2
8
55
106
14
0
6
2
42
8
0
4
2
51
31
6
6
0
10
0
12
4
0
6
0
12
42
0
8
0
4
34
4
0
14
21
8
0
8
21
40
21
4
0
4
34
0
12
0
4
2
6
19
0
4
2
0
17
23
4
4
19
12
33
14
0
4
40
16
74
53
4
0
29
10
63
6
0
4
17
12
8
10
2
0
0
21
38
49
57
8
10
17
0
0
70
25
0
14
0
59
12
10
12
33
25
25
64
17
0
23
0
6
23
8
12
17
12
27
0
46
27
0
17
55
21
14
6
85
118
128
55
27
8
0
10
44
93
91
38
6
6
51
6
8
6
4
8
27
10
0
25
0
10
21
8
6
2
10
25
2
23
0
2
0
17
0
0
65
2
42
10
51
127
19
10
0
19
4
17
4
40
8
2
0
6
21
2
10
21
2
32
40
10
53
0
0
21
10
25
0
21
29
0
6
0
17
6
0
0
12
27
0
2
14
2
0
34
4
14
0
34
55
14
6
21
0
4
6
0
42
23
12
14
0
21
0
4
46
4
0
0
36
19
40
8
74
17
27
4
2
65
8
17
0
4
10
10
2
0
16
0
40
2
12
40
38
44
17
0
0
34
34
23
72
32
14
23
68
17
27
10
8
8
6
10
0
8
6
21
0
14
8
8
74
0
17
0
10
44
0
4
0
2
0
0
2
31
0
12
14
0
21
0
6
49
6
8
14
27
6
6
27
8
8
2
0
23
14
0
10
2
23
65
0
0
27
21
0
42
6
0
0
0
2
0
2
0
4
0
76
50
29
10
10
14
36
2
34
4
0
10
0
6
0
0
0
10
12
17
2
25
25
17
50
0
31
38
10
0
6
46
17
0
0
14
2
2
19
12
0
40
70
2
21
0
61
0
0
27
36
38
23
0
0
0
6
2
29
0
0
23
0
14
70
38
29
16
6
8
84
0
29
46
4
0
6
23
8
38
4
8
12
12
0
0
0
23
10
6
0
0
0
27
0
10
0
12
27
0
0
4
4
27
10
36
0
10
0
0
0
16
6
0
2
0
2
2
10
0
4
29
0
38
0
8
6
14
4
4
0
8
10
0
0
4
0
0
0
0
29
0
16
0
4
0
0
12
46
29
0
0
4
10
0
14
0
8
0
0
46
0
4
10
25
25
6
42
8
0
2
0
49
46
0
4
6
34
4
0
0
6
23
8
0
0
0
14
4
2
12
19
0
63
12
49
21
0
0
2
8
2
4
48
23
0
0
14
42
23
0
10
4
8
48
0
0
0
0
42
6
0
0
10
4
6
14
0
14
61
0
0
0
23
0
0
16
6
2
8
0
10
14
8
27
4
4
40
0
32
2
16
10
21
0
2
6
4
6
14
0
27
36
0
0
14
51
66
23
0
4
0
46
8
0
25
0
2
4
2
19
40
17
2
27
8
2
0
31
27
23
36
0
14
17
0
21
0
4
0
12
2
2
2
25
14
16
10
16
16
0
10
0
19
66
19
6
27
6
17
14
19
0
40
12
4
6
2
10
6
0
12
0
21
36
44
29
33
2
17
46
34
21
4
0
49
16
2
8
8
4
2
0
10
0
29
0
10
2
17
49
27
57
6
12
33
19
44
6
49
10
21
4
0
16
38
4
10
4
17
2
0
10
2
6
23
0
27
0
21
17
4
0
46
23
19
25
66
0
23
21
4
0
2
2
23
0
10
12
0
0
19
4
0
12
4
4
0
0
0
27
21
12
0
8
4
19
0
12
6
4
0
19
10
0
0
0
14
2
2
17
4
4
2
55
14
8
21
0
12
0
25
23
0
0
44
32
32
12
0
12
0
29
19
34
38
8
12
6
14
4
8
14
17
2
0
25
2
51
0
0
19
4
33
27
0
34
8
51
67
50
34
12
8
48
23
0
27
8
4
49
2
42
0
29
0
4
6
0
21
0
63
23
0
53
40
55
21
2
12
2
0
44
55
19
4
4
8
25
23
53
0
0
0
27
16
14
6
4
2
0
0
10
0
59
2
0
0
0
0
17
4
0
17
8
21
10
4
0
14
2
2
21
12
0
2
0
8
2
25
2
0
14
23
27
19
4
50
46
6
10
2
17
10
14
34
0
48
12
17
0
0
2
0
10
4
27
17
4
0
6
4
27
17
19
23
8
0
2
17
27
10
14
12
0
14
2
8
10
2
0
0
2
29
10
23
0
2
4
4
42
44
0
8
16
17
38
4
25
40
0
55
6
29
6
2
27
29
27
4
10
42
19
4
4
42
78
0
4
0
19
21
46
42
0
68
40
23
21
16
64
44
0
0
8
19
0
14
12
10
4
16
4
6
12
10
23
8
2
0
0
0
0
10
0
6
0
2
2
0
6
21
4
27
0
0
10
0
0
21
83
40
0
4
6
0
0
8
0
12
0
6
0
12
55
4
17
10
0
0
0
42
8
0
10
6
40
4
19
2
6
4
78
0
66
32
46
8
0
55
4
0
8
0
0
0
8
16
21
4
0
0
4
6
17
0
48
16
4
0
72
74
4
38
46
0
2
0
19
25
33
0
6
0
72
0
14
25
2
2
10
6
6
42
70
4
10
0
19
0
8
19
12
4
0
12
8
0
44
16
12
21
2
10
66
4
29
6
2
8
31
12
0
0
6
