P2
# Created by GIMP version 2.10.24 PNM plug-in
133 126
255
91
49
8
76
38
12
21
8
12
51
53
17
44
21
29
25
0
16
0
2
12
2
0
44
31
53
0
2
0
6
55
2
29
8
53
19
32
12
23
19
10
4
42
59
46
0
14
4
74
12
0
25
4
14
2
33
2
19
23
34
0
46
0
8
8
42
16
10
6
8
2
6
2
10
0
0
23
17
27
33
2
0
25
0
27
14
21
36
53
61
16
8
29
27
49
10
0
66
23
25
19
17
19
23
10
23
0
49
40
0
0
12
0
8
0
16
40
19
4
0
0
0
12
27
12
4
23
27
12
14
0
0
31
2
57
38
36
0
6
0
16
27
12
10
4
0
44
29
16
138
44
14
27
34
44
36
12
16
25
23
4
19
10
0
53
6
32
25
55
40
0
27
19
25
29
16
42
55
19
25
29
10
27
16
14
21
25
17
36
32
70
4
55
2
4
4
8
25
17
0
23
21
6
25
34
6
42
4
0
10
2
31
29
0
0
27
51
36
32
49
10
44
8
31
57
66
25
23
10
51
0
87
87
25
8
23
17
16
17
17
17
6
27
2
4
8
8
6
4
33
2
6
0
0
0
8
6
4
6
27
29
2
70
34
19
4
36
55
117
8
25
74
12
14
25
0
49
8
8
0
65
19
0
36
23
23
23
29
19
21
12
0
21
12
0
0
38
6
16
16
66
46
14
2
17
23
12
0
0
0
25
6
21
29
6
4
12
2
23
0
23
29
6
12
29
42
84
8
34
6
6
17
8
12
0
16
4
0
10
6
8
0
8
31
10
31
55
0
16
0
34
29
44
2
8
31
0
42
14
12
40
55
76
19
42
36
55
2
0
12
29
14
14
46
2
48
55
57
21
10
29
33
0
4
14
4
19
4
0
0
53
36
0
0
36
2
27
0
34
48
12
68
21
33
40
17
17
10
68
27
0
0
23
17
12
2
17
2
32
70
66
34
48
0
12
2
2
0
42
17
0
2
31
85
4
57
17
6
29
10
17
6
21
33
29
33
8
2
29
8
59
44
53
80
33
42
23
17
40
6
80
12
17
25
0
4
38
36
0
4
12
6
0
48
12
8
19
34
4
6
17
0
17
0
0
17
10
19
51
17
8
17
87
65
33
4
72
83
55
2
23
0
2
21
12
4
10
36
8
12
2
40
23
46
57
17
50
4
8
51
0
34
0
8
12
6
31
32
14
0
0
10
0
0
12
10
33
40
10
12
2
25
0
6
10
31
33
4
0
59
14
27
16
0
10
44
93
34
8
49
17
12
19
14
0
0
29
33
6
12
31
34
0
0
10
23
0
6
51
42
0
19
16
57
8
36
44
40
25
17
10
0
17
0
40
36
25
0
29
36
19
0
64
0
27
14
23
0
0
21
12
23
4
12
17
12
14
27
23
2
12
36
14
17
59
78
140
157
113
98
72
72
25
19
40
25
46
14
6
31
121
48
19
0
6
17
16
83
44
27
23
53
2
16
2
36
14
38
12
34
14
0
17
6
8
0
29
17
36
8
42
10
42
27
19
23
25
10
46
4
21
0
16
0
34
10
23
0
0
0
4
27
70
0
0
46
21
12
64
8
50
33
21
38
12
0
29
12
0
23
21
25
55
12
2
0
23
12
21
29
12
36
0
67
8
0
10
10
12
25
2
4
38
55
57
34
25
17
34
14
19
2
14
19
17
17
16
57
2
17
0
19
0
17
29
42
93
61
115
225
249
219
168
104
108
63
6
32
4
31
14
33
70
108
108
72
10
51
0
0
21
83
12
19
19
4
0
0
14
14
14
6
0
12
2
36
4
0
2
29
42
6
17
0
8
27
6
29
23
36
0
50
34
57
0
8
6
34
0
12
0
0
0
29
10
32
27
36
19
91
68
0
8
89
42
0
4
12
8
12
21
53
85
42
4
0
8
64
14
16
6
23
16
4
0
10
32
25
0
17
23
21
17
2
50
21
23
4
27
25
93
32
0
0
29
6
17
10
8
0
44
36
80
12
36
4
8
0
8
14
72
116
212
255
254
225
144
101
108
55
34
0
2
48
0
6
6
29
49
27
0
38
38
0
29
14
31
14
21
29
34
23
63
14
63
16
0
12
12
61
10
38
0
17
4
0
38
0
0
12
44
0
44
0
0
25
4
2
31
12
2
10
0
61
34
29
0
29
17
85
44
19
63
38
17
63
68
0
16
0
0
6
6
0
10
53
8
33
72
0
0
0
8
34
2
25
8
0
19
0
10
40
42
23
14
44
0
50
12
83
40
2
16
38
23
12
10
12
8
17
4
0
21
19
6
36
10
0
6
0
4
72
42
29
89
193
252
255
253
197
110
68
38
17
0
32
29
2
2
48
0
2
38
0
2
0
34
2
4
6
4
14
16
36
59
4
4
42
0
51
14
2
12
12
0
8
6
19
72
51
21
40
55
14
44
44
14
4
34
36
53
57
40
29
36
17
0
27
31
65
2
46
63
23
85
6
29
61
112
63
76
38
27
23
8
51
0
8
44
14
17
91
23
33
0
81
17
23
19
8
40
2
0
0
12
4
6
19
16
42
8
29
23
34
0
2
0
2
0
10
21
0
42
44
12
42
21
25
0
57
12
0
55
21
40
29
53
114
162
234
255
255
238
133
50
42
44
10
6
36
31
10
17
0
12
8
25
0
40
12
19
19
4
0
63
4
0
34
34
34
34
4
27
23
6
10
21
0
2
68
49
8
10
16
4
0
33
17
19
2
6
10
0
0
46
40
4
19
16
0
44
12
0
29
46
23
68
34
49
78
115
93
123
102
72
46
55
0
21
21
25
53
53
17
14
16
70
76
8
6
12
0
0
0
44
0
50
4
0
0
2
19
4
4
51
14
6
0
4
8
21
17
2
8
10
0
14
2
2
36
40
27
14
12
59
51
10
4
50
70
78
140
221
255
255
246
179
106
81
16
40
0
42
6
46
53
44
23
0
12
0
19
19
29
34
21
0
2
12
49
21
0
16
6
40
0
2
17
16
36
0
12
6
19
40
8
40
27
14
4
8
0
10
23
64
0
0
27
101
4
29
29
0
23
6
76
63
8
21
0
8
44
44
116
61
96
91
102
6
66
34
29
44
59
0
65
4
0
0
46
0
42
29
4
10
4
12
12
31
0
2
14
14
46
0
31
6
19
25
0
25
4
6
6
36
6
17
44
0
6
12
0
29
2
44
8
38
14
2
33
21
53
44
78
106
172
255
255
250
195
106
46
29
51
72
23
55
0
29
51
0
17
50
104
187
29
46
14
0
25
0
29
4
0
4
6
12
10
10
14
32
19
74
29
49
6
0
14
46
74
32
8
17
38
0
8
2
51
16
29
27
14
14
16
25
12
23
23
53
72
76
50
33
2
74
96
70
83
53
123
57
34
8
4
70
2
10
14
12
50
31
14
12
0
8
33
0
0
21
0
0
8
19
19
17
6
0
8
21
17
25
31
0
25
0
0
12
31
38
34
6
8
6
6
10
14
0
38
29
6
4
21
10
44
14
36
70
87
151
221
252
238
191
96
50
74
10
6
0
29
57
36
38
29
23
6
53
74
36
8
21
17
4
2
32
70
2
23
0
0
36
21
0
19
8
2
59
0
53
16
0
31
0
21
55
40
50
42
64
19
12
19
10
10
32
59
55
21
29
27
59
118
44
44
78
119
59
106
68
110
87
57
74
36
46
2
6
0
34
36
0
23
0
14
12
44
8
6
53
0
6
14
46
8
6
4
25
6
17
74
0
42
29
2
21
2
0
23
42
33
4
8
21
0
12
31
4
46
0
55
14
8
23
36
23
68
6
61
67
96
42
46
155
209
211
189
108
53
12
19
21
34
0
0
10
21
4
23
4
0
12
23
8
0
25
46
14
0
55
4
2
53
14
23
10
4
53
21
8
29
63
53
0
14
0
0
17
6
12
70
42
0
4
14
23
34
4
25
12
0
38
29
46
127
76
87
55
89
78
97
48
48
53
140
33
23
19
61
21
14
53
27
10
2
31
14
29
0
10
0
81
2
0
36
14
0
87
14
0
2
21
4
46
2
34
59
50
0
0
17
31
2
0
0
19
0
12
0
40
23
16
4
0
38
44
14
36
55
0
12
0
6
31
104
85
112
136
157
149
8
27
19
23
23
17
17
42
29
0
8
0
19
0
38
4
17
25
2
16
25
44
4
57
34
6
0
8
2
25
4
0
23
0
16
23
19
10
4
66
49
23
0
53
4
21
0
10
46
51
16
46
40
38
78
110
119
91
53
91
119
106
57
74
80
91
74
110
40
44
44
38
29
36
48
19
34
16
25
48
0
55
17
6
51
36
2
10
0
23
0
38
6
0
53
17
6
42
32
0
10
4
2
36
29
25
19
4
16
6
8
4
29
25
4
51
34
40
8
29
19
23
14
38
27
16
12
29
116
6
74
135
49
72
36
36
61
0
36
6
0
6
12
34
21
6
2
72
6
6
0
70
29
17
17
14
72
6
8
36
23
29
27
4
6
14
2
31
33
8
29
29
36
32
25
2
0
34
8
8
19
0
0
68
17
0
8
64
99
55
121
125
72
106
106
104
102
76
95
100
102
51
44
21
51
40
55
55
55
31
44
8
8
0
33
4
8
17
29
6
29
23
0
2
21
68
33
0
25
0
12
6
6
10
51
6
32
17
14
48
31
2
25
2
8
2
0
0
8
29
10
17
2
27
6
38
44
0
8
8
4
53
48
27
80
36
4
4
12
17
0
2
25
0
0
6
14
46
10
14
6
8
12
4
27
19
4
0
14
0
12
49
0
40
2
38
10
8
2
6
29
4
16
34
34
6
2
12
10
33
19
0
27
42
0
23
68
0
81
57
85
63
89
91
125
89
115
127
100
138
85
59
144
78
74
27
72
102
68
2
44
70
63
91
16
0
12
4
27
91
48
0
64
6
27
29
6
0
46
8
0
0
31
21
4
96
91
48
119
38
6
0
21
12
25
0
14
0
19
10
0
50
51
21
46
32
51
34
0
38
36
0
14
23
57
8
25
46
2
44
55
25
42
59
40
8
12
59
48
0
21
0
0
8
8
0
25
27
36
55
0
0
6
14
0
0
2
0
46
17
0
8
0
53
12
25
0
36
23
31
46
25
10
10
2
27
4
4
46
14
85
61
89
55
104
123
108
125
125
144
144
148
149
150
135
129
108
100
70
40
53
4
59
29
6
4
72
23
31
14
12
51
12
38
6
0
32
0
0
4
0
19
17
6
25
0
25
19
33
6
16
65
21
29
59
12
4
0
4
0
14
21
17
4
25
23
38
46
25
29
0
34
29
48
46
8
55
51
25
40
23
17
31
4
33
42
29
29
61
8
127
68
27
21
14
4
17
21
8
25
14
40
6
4
0
6
49
6
17
12
17
0
46
17
46
8
44
40
0
0
36
0
6
0
25
23
40
0
36
46
19
12
21
42
4
38
57
59
87
93
110
146
121
166
174
189
187
153
136
106
112
57
44
61
38
55
23
55
10
6
44
2
0
8
12
6
0
21
4
0
17
0
33
84
55
25
40
23
8
57
0
10
0
21
8
44
27
21
0
2
33
21
0
0
10
40
48
0
53
19
74
21
34
10
46
8
27
6
33
67
23
8
0
17
49
57
12
74
29
29
25
23
25
93
44
65
2
23
0
10
4
6
25
29
2
0
0
12
14
10
19
17
6
19
0
27
6
6
59
29
27
23
2
0
4
0
0
44
2
0
0
25
46
23
36
14
49
6
51
36
98
80
72
118
102
142
179
186
197
196
189
157
118
44
121
51
117
12
17
2
12
2
0
6
12
0
32
0
10
8
10
6
10
25
0
40
10
0
6
44
19
4
57
82
0
12
0
76
25
0
32
14
2
8
0
2
0
0
21
29
27
14
36
38
10
17
53
10
0
36
12
16
31
42
14
2
0
8
46
0
10
0
2
36
68
6
0
0
34
0
46
17
0
34
27
29
17
53
2
2
27
32
17
0
4
32
21
32
66
23
19
23
27
14
12
2
38
29
23
2
10
23
36
2
72
42
8
0
4
74
6
36
100
102
106
70
123
147
194
204
196
194
199
202
172
102
118
84
80
44
76
0
4
12
19
14
0
36
72
25
36
29
17
25
17
0
29
0
12
0
17
19
19
17
89
27
29
0
12
42
0
4
0
17
23
36
19
10
2
8
0
46
32
8
0
31
12
10
36
12
12
10
10
38
29
25
27
14
36
25
61
4
14
2
40
10
2
31
34
10
14
0
61
25
25
27
17
0
25
29
23
8
8
61
0
36
31
110
25
23
19
34
67
46
2
31
29
59
17
27
51
29
51
50
8
23
38
10
0
83
25
78
42
38
38
53
102
115
119
102
142
195
189
174
191
221
204
151
131
121
57
21
84
66
59
8
4
34
8
14
12
19
4
34
93
29
36
61
2
6
0
0
46
14
72
0
6
63
29
32
0
32
8
25
0
19
42
4
0
25
2
19
8
12
8
23
25
6
2
29
8
12
0
36
12
14
36
40
6
57
2
51
19
4
50
27
84
50
6
19
70
100
29
0
10
23
14
55
8
17
48
0
48
55
53
38
0
44
82
106
55
8
19
17
89
125
40
8
10
27
2
23
0
64
27
0
21
0
12
0
91
29
66
44
49
80
2
57
25
89
101
127
140
113
130
155
151
181
206
215
140
97
87
85
40
53
14
27
12
46
17
78
0
31
0
36
0
2
36
6
80
0
65
44
97
0
21
59
40
0
34
21
42
40
10
0
0
19
10
4
32
0
4
25
34
0
17
2
0
4
4
6
36
50
0
0
27
0
44
6
25
40
85
29
67
21
34
46
4
17
34
8
0
17
36
29
40
4
4
32
25
0
44
19
0
6
4
0
4
38
16
4
36
14
0
2
0
0
6
0
0
0
29
0
6
19
0
12
2
0
2
38
14
19
57
25
0
84
19
0
72
91
113
125
102
150
129
93
108
138
220
202
196
142
108
96
80
53
0
70
49
27
14
33
74
32
34
53
27
2
23
6
17
0
12
29
10
63
8
8
55
2
34
34
6
12
14
23
33
2
10
21
14
21
0
31
14
10
17
65
0
36
0
51
6
0
2
4
8
4
36
0
0
10
0
12
21
38
8
17
8
38
33
0
36
17
49
10
0
55
0
0
12
23
0
0
12
53
29
4
25
50
6
25
21
17
34
40
6
34
6
6
0
21
2
0
21
14
46
64
31
8
0
10
36
0
6
8
25
27
23
97
87
110
159
115
95
153
140
153
85
95
118
147
168
153
123
53
44
42
66
36
34
0
0
12
19
23
64
38
0
55
2
29
2
23
8
10
17
63
0
32
17
0
12
32
6
0
57
4
4
8
44
0
55
29
17
0
2
34
25
32
8
19
0
6
19
17
0
0
8
21
19
64
0
89
4
0
8
55
36
17
8
0
25
0
29
2
23
16
12
8
10
34
2
4
6
4
16
38
6
17
8
6
53
51
4
16
0
0
6
0
6
12
23
0
6
16
36
17
12
4
23
8
36
51
6
4
64
0
66
36
25
19
55
78
128
134
78
91
164
115
87
104
74
93
147
157
128
110
66
0
32
42
12
0
34
0
0
12
70
53
0
53
55
4
55
33
53
91
74
27
23
6
4
23
36
0
87
0
8
4
2
14
0
2
21
10
8
2
64
64
12
0
29
40
34
10
8
0
17
4
0
67
38
53
10
12
25
34
10
8
10
0
4
0
55
17
0
10
38
2
34
4
25
2
0
6
0
2
38
2
8
0
0
27
0
8
4
36
0
0
8
10
6
10
21
2
4
17
38
34
4
27
0
6
0
8
40
32
0
0
17
25
33
34
68
10
10
46
87
118
118
118
98
66
78
93
136
138
123
134
59
80
19
6
63
8
59
4
72
12
6
19
2
12
4
17
113
0
16
57
44
23
6
6
82
4
25
17
34
17
40
32
17
12
21
25
46
6
19
0
25
46
14
10
2
23
12
12
6
4
0
34
6
27
12
21
0
14
0
27
4
0
0
40
0
0
0
0
44
17
50
14
21
12
0
51
50
29
23
27
102
16
0
0
34
14
6
72
42
17
10
0
10
40
0
0
23
19
8
8
40
25
6
0
14
14
68
2
46
25
12
31
0
0
8
10
10
51
50
49
17
121
123
104
91
53
100
27
78
151
170
110
112
25
46
10
0
57
89
68
16
21
0
0
0
65
36
29
80
142
0
6
0
0
12
36
59
36
65
59
96
34
51
2
61
70
12
0
29
81
74
74
16
110
6
6
38
6
44
2
29
0
59
23
36
0
19
4
8
10
0
6
0
29
0
10
29
14
0
12
27
8
25
0
0
2
4
0
4
29
4
31
44
14
0
12
6
33
6
0
6
6
6
23
0
44
33
4
40
23
27
65
27
2
2
53
6
36
55
14
0
12
0
32
51
0
0
4
0
29
68
0
17
57
29
10
36
33
83
14
51
55
104
108
95
53
83
0
0
63
4
42
2
29
0
25
29
0
14
53
0
59
65
0
0
70
0
0
0
0
55
42
48
127
68
0
0
29
23
33
19
25
8
59
2
6
8
44
40
0
2
0
32
8
17
72
57
2
2
0
0
0
10
6
8
84
0
36
0
4
36
21
0
51
0
53
31
31
27
78
0
6
27
0
0
21
4
4
32
14
17
21
4
0
6
0
6
2
2
29
0
42
14
6
14
4
29
0
6
46
55
19
49
10
21
8
23
0
10
46
36
44
57
70
38
19
57
53
98
72
84
70
68
33
36
55
0
72
51
12
27
36
25
12
6
53
0
4
49
40
10
25
21
0
0
19
12
16
66
0
65
68
14
57
110
187
96
110
48
2
12
27
34
0
6
23
0
36
57
0
12
34
25
19
0
31
38
17
61
2
10
12
27
10
6
25
21
4
0
8
2
6
42
8
10
29
19
12
12
6
33
42
0
4
25
8
12
23
57
0
6
4
2
14
2
51
36
53
4
19
59
0
57
0
8
19
33
21
72
0
0
6
6
40
4
25
4
6
4
0
44
12
4
65
31
0
23
14
42
68
46
57
27
21
0
14
25
50
115
74
85
44
89
53
32
48
23
14
14
8
51
10
19
16
0
63
17
19
2
14
6
0
10
36
32
21
76
142
225
185
89
87
53
19
0
61
0
40
68
0
34
33
25
14
48
21
12
4
32
17
4
38
12
23
16
25
0
23
16
4
0
44
14
0
6
0
0
12
16
33
21
0
0
51
2
87
8
8
0
21
6
8
36
4
0
14
17
8
14
78
0
12
2
55
66
16
27
14
42
0
21
34
55
8
17
17
38
53
76
14
0
0
14
2
21
0
40
36
10
0
25
6
25
63
25
8
80
23
31
33
17
51
57
72
33
49
65
10
0
33
17
19
19
33
25
17
0
2
8
8
59
14
6
6
31
68
78
36
2
10
159
248
245
153
99
16
29
34
0
0
87
50
17
10
0
8
38
0
12
2
42
0
74
27
2
32
59
55
34
16
4
66
2
4
31
29
46
23
0
23
12
0
0
2
0
2
0
25
51
40
6
2
8
17
25
2
2
25
0
0
4
72
66
38
96
2
70
4
2
2
87
44
8
0
0
32
6
2
0
6
8
81
0
78
46
0
10
8
6
21
19
0
10
10
25
27
48
61
4
59
57
48
33
64
53
17
40
8
55
23
2
16
34
0
0
0
12
23
29
2
4
2
44
0
44
50
59
23
34
46
27
61
95
189
252
255
191
108
25
38
65
32
0
44
16
12
8
21
42
31
17
14
6
19
2
12
14
27
0
17
0
14
38
8
19
2
2
4
33
4
14
34
14
19
14
2
29
46
27
0
17
40
0
6
55
34
0
0
8
44
0
0
0
25
23
36
81
0
8
14
6
29
17
8
19
89
25
42
0
6
0
0
61
0
4
48
8
38
21
0
2
40
21
2
12
23
0
2
59
64
36
25
68
42
40
29
10
33
17
42
21
6
4
14
19
17
0
59
40
0
31
0
4
51
142
29
2
0
0
19
57
0
59
27
34
102
198
255
253
212
140
97
44
4
0
6
29
0
21
10
0
14
0
27
6
17
0
4
44
36
14
27
44
38
21
42
14
0
29
33
2
4
0
16
19
0
2
49
23
25
44
61
19
21
44
0
0
19
0
8
4
61
0
2
0
10
0
42
0
63
8
76
44
16
8
21
38
6
2
16
12
0
0
23
6
6
46
0
21
10
4
2
4
14
27
0
12
0
51
4
44
4
27
0
50
0
42
2
4
27
6
34
0
23
14
32
19
53
0
12
29
0
74
29
2
4
65
29
0
6
17
21
0
36
6
0
2
42
95
202
255
255
234
151
127
32
17
4
0
57
10
6
2
44
0
0
0
2
25
0
53
27
8
27
55
0
8
23
0
2
0
31
38
0
0
17
12
4
36
8
4
0
27
83
23
0
59
23
6
68
0
23
0
83
0
8
0
4
0
42
40
12
0
0
4
0
19
0
10
0
10
12
17
0
0
10
0
0
19
8
0
0
10
40
21
38
23
93
16
25
10
29
2
29
38
36
0
27
12
44
2
10
10
4
8
33
0
0
51
8
14
4
0
70
8
42
4
42
8
14
40
14
10
36
61
8
36
21
44
42
76
106
174
255
255
238
157
42
50
59
29
36
6
25
0
68
19
0
21
4
46
0
25
31
0
19
19
57
0
29
21
27
14
2
4
2
31
6
14
29
36
0
21
36
19
10
2
12
25
38
23
38
2
10
0
8
23
12
14
121
36
19
17
0
6
33
0
14
25
0
33
17
14
25
19
2
0
14
23
32
0
12
21
2
19
10
31
16
33
0
23
10
65
0
6
4
6
10
76
10
16
4
23
40
14
29
29
4
4
4
2
2
38
27
0
14
27
46
14
25
2
10
12
25
23
0
0
0
57
40
38
53
38
55
95
140
241
254
240
164
82
33
38
25
42
27
0
14
27
34
21
29
0
14
4
8
8
21
0
10
55
10
46
27
16
12
19
6
14
50
14
0
34
2
50
48
4
8
23
32
2
12
61
14
2
8
2
38
0
8
42
0
61
64
59
17
4
0
8
17
21
25
6
51
10
2
8
8
4
2
19
34
40
6
2
0
6
2
80
6
82
0
17
76
21
63
12
95
23
14
4
0
0
4
17
2
89
93
8
2
0
6
19
78
48
0
0
36
2
17
36
66
40
57
4
0
23
38
14
51
6
55
27
63
16
82
2
95
121
223
253
232
145
72
67
4
50
0
0
49
17
31
4
4
0
0
42
64
10
33
6
17
10
91
36
6
42
55
2
6
0
2
4
46
12
14
8
0
6
8
0
53
29
16
70
0
0
10
25
17
0
0
32
17
4
2
66
48
0
91
2
25
0
10
0
25
2
68
38
40
4
23
33
0
14
0
0
4
40
21
68
36
0
40
2
2
17
42
0
0
25
25
0
2
29
10
0
44
51
49
0
53
2
36
0
46
6
17
0
8
19
0
55
0
46
23
34
6
0
40
6
2
10
59
12
27
83
25
29
95
97
82
174
238
203
130
21
8
74
51
66
19
12
38
0
14
17
23
0
2
0
27
2
25
0
19
168
98
21
44
0
0
46
36
0
4
0
0
0
0
0
6
4
8
0
21
0
53
70
10
50
10
8
10
17
61
44
0
21
4
0
6
10
8
4
14
19
10
4
14
34
8
14
6
0
6
0
4
6
33
12
0
0
17
12
68
23
19
63
25
12
12
2
8
2
6
8
25
27
2
29
21
29
6
4
25
17
64
25
6
17
8
17
36
34
10
4
21
10
6
44
25
34
0
19
2
2
12
4
44
40
10
74
76
93
101
170
151
95
27
38
2
10
10
0
82
27
4
31
27
12
0
2
4
2
19
48
36
21
108
72
14
36
10
32
2
2
68
14
14
6
14
6
12
53
8
8
17
12
6
8
0
23
40
46
21
31
31
14
32
33
19
27
21
8
23
17
2
0
2
19
46
59
25
0
0
31
6
17
6
42
64
38
6
0
34
6
0
8
0
27
42
6
72
0
4
25
6
0
40
17
10
17
8
0
21
51
4
4
42
25
36
21
23
10
19
17
4
2
31
53
4
10
6
32
14
68
0
2
6
27
44
0
46
29
61
10
40
68
129
149
36
29
0
51
14
21
34
0
14
27
98
10
17
4
59
8
32
16
16
0
6
76
12
17
0
33
0
12
49
31
27
2
74
2
21
25
42
4
0
17
6
0
67
16
0
6
0
127
16
0
50
16
6
6
19
70
19
33
4
2
67
21
33
31
6
8
0
4
25
46
40
23
0
8
0
0
53
40
2
36
0
0
2
0
40
2
14
6
6
0
0
23
0
74
27
6
6
55
25
4
42
36
21
8
0
64
44
6
0
74
72
61
8
8
14
6
0
17
0
72
0
0
6
0
0
33
38
51
51
40
44
91
80
27
17
27
0
10
48
36
25
14
8
34
0
8
0
0
2
23
0
19
12
78
40
2
19
16
44
17
4
23
0
4
68
0
19
8
4
21
0
0
0
2
31
46
14
8
33
34
2
101
6
17
14
16
29
4
17
21
33
2
21
38
19
29
46
63
17
42
10
55
12
0
8
0
19
0
17
12
46
2
0
27
2
0
19
17
19
4
33
6
16
10
21
40
12
0
8
42
34
21
0
6
29
16
0
0
44
12
0
2
0
29
23
32
17
14
114
64
2
51
34
76
32
14
8
4
85
121
81
42
42
36
6
4
76
36
55
32
55
8
36
0
0
21
21
44
6
4
55
4
17
8
10
19
0
8
0
8
2
17
10
49
0
0
31
19
16
17
27
17
14
48
0
42
6
34
12
4
36
0
23
36
38
25
14
14
4
19
6
0
25
8
10
21
14
27
55
48
68
95
57
29
19
2
0
32
8
12
8
2
2
0
57
93
0
4
2
10
25
12
36
12
10
12
61
8
4
8
21
8
21
14
0
34
17
40
19
40
4
8
17
27
51
29
23
50
102
12
0
123
25
0
6
10
4
53
0
4
0
74
228
165
61
46
12
12
0
57
0
0
12
6
4
17
4
6
42
31
0
29
14
25
8
0
0
0
44
0
31
42
0
19
25
14
40
8
19
2
42
4
0
16
2
29
0
12
10
10
4
0
6
23
10
14
25
31
0
32
12
25
53
59
46
14
49
38
4
4
57
4
34
65
110
2
16
31
4
0
17
8
0
36
19
14
31
0
14
2
44
55
10
0
19
17
57
14
14
4
0
8
74
0
12
2
17
0
2
4
49
4
14
6
14
14
53
0
0
16
33
10
36
176
53
0
44
78
0
6
68
0
2
8
66
155
165
57
42
57
0
40
72
0
0
65
44
0
0
36
17
12
0
12
6
0
21
8
0
0
4
66
12
91
10
6
53
0
50
8
10
4
27
23
25
8
0
19
27
29
8
4
6
25
4
4
46
0
21
42
0
29
44
10
12
65
40
8
49
10
19
10
25
2
6
8
0
0
36
4
14
21
12
21
2
49
21
8
0
57
10
0
78
6
2
53
84
64
55
80
21
4
12
40
0
0
10
33
25
6
53
66
10
21
38
2
0
29
8
46
8
6
21
4
99
2
93
4
0
19
44
31
8
34
46
16
19
31
93
53
36
32
34
6
19
27
46
25
36
66
0
36
36
36
64
36
70
2
0
2
55
17
25
46
12
46
0
0
0
4
12
0
10
16
27
4
21
6
4
0
8
0
2
17
16
17
16
2
27
6
72
4
27
4
4
33
108
81
117
34
51
8
10
21
31
2
0
29
48
0
0
8
4
0
19
10
0
29
23
6
34
33
21
4
6
19
0
6
0
25
25
0
21
0
59
10
12
12
6
23
49
0
2
53
12
38
2
57
0
4
76
4
48
70
2
17
25
29
10
40
19
2
25
0
25
12
70
6
8
10
2
76
0
40
78
44
4
32
14
2
6
19
17
17
0
0
72
40
25
38
0
25
23
44
0
6
19
23
19
10
27
21
21
44
10
4
0
36
14
0
2
25
25
36
55
0
10
0
61
6
68
0
17
4
8
51
19
74
49
46
50
21
6
21
23
61
76
51
72
23
12
10
8
2
10
0
4
0
14
25
46
51
23
0
27
8
0
14
32
34
10
14
0
4
0
0
2
14
0
36
85
38
8
10
0
0
0
0
25
17
42
0
12
21
2
61
101
0
19
0
0
27
40
57
10
46
29
8
51
0
46
4
14
2
0
6
0
42
29
31
21
0
12
0
51
51
2
0
0
21
40
2
63
8
0
0
0
40
0
21
29
0
4
0
4
59
19
0
34
4
33
42
8
6
12
6
2
48
40
53
40
42
10
0
42
14
48
6
21
51
2
14
4
70
65
0
70
25
4
55
72
63
51
21
6
50
2
25
32
10
6
0
36
14
8
10
27
6
17
16
0
14
2
16
0
44
10
17
12
23
4
6
27
40
68
36
27
17
10
8
8
29
17
29
4
8
31
19
68
59
64
23
44
29
0
2
42
0
23
23
0
21
27
23
21
2
0
0
6
53
14
23
23
25
51
4
16
0
27
19
27
29
16
12
23
25
27
0
6
6
0
12
6
6
19
16
14
6
0
12
0
12
17
8
34
0
0
4
21
8
42
49
29
36
38
44
78
25
38
8
19
21
51
33
33
0
68
8
34
72
10
6
133
161
127
125
21
67
6
19
40
0
55
19
8
36
4
0
40
51
4
0
10
42
17
17
10
85
0
4
0
33
4
38
29
0
25
50
36
8
4
10
0
8
21
38
0
25
8
0
8
59
99
55
59
12
12
12
17
0
0
17
12
2
14
2
8
14
31
65
25
40
29
0
17
46
17
12
19
10
19
10
14
31
0
12
23
87
85
50
8
27
0
0
25
0
2
36
25
0
0
2
4
25
2
2
14
38
0
8
8
8
74
21
17
68
34
2
0
19
31
61
74
14
42
34
44
12
6
34
59
12
0
19
115
233
249
196
129
19
0
46
23
2
44
0
2
23
38
0
19
0
12
6
16
0
46
0
0
74
23
4
65
0
0
14
2
29
0
34
2
27
34
91
72
8
17
57
34
0
4
48
6
29
67
218
116
8
50
46
12
55
14
10
12
8
33
19
6
42
2
40
51
12
4
0
14
63
100
14
0
0
0
19
104
16
67
0
31
0
25
4
25
4
53
25
6
17
10
8
51
25
0
64
4
0
8
2
6
0
34
0
0
59
19
6
19
2
6
0
0
38
0
19
91
44
61
36
14
10
12
12
27
14
4
19
48
125
233
243
192
61
8
16
14
23
19
2
25
4
0
0
2
0
19
2
29
16
6
2
6
34
0
6
55
46
23
6
44
12
2
23
0
0
144
38
0
8
29
42
57
2
0
2
2
0
21
74
162
33
14
40
4
17
10
27
36
6
0
25
106
164
49
2
16
12
0
0
36
21
38
27
46
27
53
93
117
167
87
83
93
38
21
17
2
6
0
12
12
14
16
0
14
0
21
2
46
29
2
4
19
8
2
0
19
0
8
0
17
8
40
17
23
2
53
34
80
64
76
21
36
0
8
25
8
0
55
40
55
25
104
121
138
57
17
29
83
34
16
2
14
44
10
0
55
10
25
0
34
19
25
4
0
6
21
21
53
17
57
2
59
21
40
129
164
57
59
49
115
4
46
64
14
51
25
8
8
19
0
8
74
153
21
6
16
81
12
0
19
6
0
4
29
85
189
89
53
21
0
51
49
19
34
40
0
25
34
55
104
131
168
169
149
142
110
27
76
14
10
0
0
2
34
25
2
34
2
23
19
10
29
14
12
31
4
19
61
2
0
17
12
2
6
53
27
12
29
12
74
117
87
61
121
53
36
2
12
16
44
4
2
55
19
55
68
87
0
66
23
12
34
42
0
38
36
40
14
4
0
0
27
14
25
63
2
0
19
42
17
64
2
8
0
8
19
14
27
96
2
0
29
81
101
72
14
4
17
0
0
0
23
14
34
8
146
53
10
0
0
14
76
6
0
29
33
19
93
148
121
38
93
8
17
34
8
6
40
48
27
61
36
87
136
159
157
178
204
170
97
93
12
23
23
16
2
36
16
4
36
8
10
19
31
10
36
51
10
23
4
10
0
23
10
12
44
14
0
32
23
21
116
34
102
16
93
185
181
89
85
93
42
59
27
10
32
51
34
76
34
68
27
53
10
19
42
0
14
21
14
4
0
12
8
29
23
0
57
21
10
6
23
0
14
34
0
21
19
0
4
0
6
21
10
23
2
36
16
14
21
17
31
0
40
0
4
44
70
34
0
27
12
8
29
6
0
68
10
42
21
36
21
76
8
25
0
42
0
31
80
16
8
6
76
59
125
106
163
159
170
193
177
138
110
19
25
32
19
33
0
0
16
19
46
29
8
32
34
49
0
55
29
29
55
23
0
57
10
33
55
6
0
10
36
14
38
27
6
76
186
251
168
51
23
34
65
0
14
36
42
57
27
12
10
17
23
59
10
42
17
4
17
17
2
25
8
8
4
2
4
33
4
0
0
12
12
4
2
40
0
8
8
0
2
49
8
36
14
36
8
0
6
44
50
25
4
23
16
6
0
32
91
57
29
12
53
12
34
19
16
27
14
0
0
19
14
17
6
10
44
33
10
8
2
29
17
19
49
129
101
152
172
185
161
159
157
108
91
61
48
17
2
27
44
8
38
83
0
33
27
23
25
36
33
0
34
29
14
61
31
16
4
10
25
19
4
6
34
100
42
44
25
72
140
142
57
34
29
70
21
14
17
10
2
14
0
31
17
0
29
32
6
34
8
21
55
59
8
21
6
10
14
16
55
48
50
50
8
6
2
38
4
8
10
2
33
10
10
59
49
36
23
0
51
50
10
0
4
0
2
10
4
25
31
10
10
0
14
0
40
46
2
19
12
0
23
50
19
0
27
0
27
2
0
0
25
33
16
16
2
70
106
129
144
185
203
200
184
152
151
108
32
53
17
0
0
38
12
68
59
151
38
48
29
0
48
23
83
59
59
38
0
34
17
19
8
17
23
42
8
55
29
0
42
57
10
19
110
81
46
23
8
42
50
12
0
29
25
8
36
17
8
4
0
46
0
8
0
19
36
2
8
10
6
0
6
32
27
27
46
21
36
0
0
34
74
61
4
4
10
2
29
8
2
23
49
27
0
38
21
0
12
19
16
0
40
29
0
0
19
6
25
8
4
57
25
12
0
0
6
0
0
6
4
46
25
0
46
55
36
6
19
49
51
119
164
174
179
192
174
169
125
117
95
61
29
42
29
0
68
0
36
27
110
66
19
51
6
70
0
14
40
184
134
100
85
4
46
34
23
42
68
0
36
34
44
53
14
25
36
6
70
72
27
10
46
0
42
53
21
27
23
0
34
6
14
42
12
14
6
27
0
4
0
0
8
4
21
21
48
25
27
17
2
10
2
2
17
19
4
21
14
0
16
53
29
0
68
0
12
21
57
0
34
4
29
0
0
8
12
25
8
38
0
2
31
14
33
0
21
14
0
2
44
36
10
4
2
10
38
4
34
12
19
21
23
82
100
155
194
200
189
165
163
146
186
184
46
14
2
53
44
0
19
85
27
2
17
0
46
4
4
61
50
64
57
135
123
100
16
4
4
23
23
21
6
4
0
21
0
6
6
8
17
25
29
46
51
46
38
14
12
6
8
14
6
8
0
21
0
14
12
6
21
17
27
0
50
21
40
0
10
64
12
19
14
51
0
57
0
4
10
8
10
16
0
0
0
0
27
0
0
8
6
87
12
0
2
6
12
89
12
0
12
0
0
6
40
10
0
4
0
32
4
68
0
0
4
0
0
12
53
17
16
8
4
10
21
6
38
89
125
161
193
189
238
179
121
125
136
6
2
10
59
6
36
42
4
29
0
42
36
2
0
19
64
17
16
12
50
0
46
31
34
12
19
31
44
6
4
32
12
0
55
82
33
21
17
2
0
0
8
0
23
21
6
0
10
32
17
87
0
2
2
2
0
6
46
0
0
10
10
0
6
14
0
10
10
51
44
14
16
51
14
8
31
0
0
17
8
0
19
29
106
110
59
2
0
6
0
6
21
14
19
59
16
0
0
0
57
89
67
0
29
23
25
2
70
6
0
25
25
14
66
17
40
40
14
17
49
32
10
2
23
12
76
145
149
185
153
142
118
140
34
29
104
133
36
29
8
8
27
53
91
6
25
40
0
25
6
29
10
38
0
0
23
29
31
27
4
14
36
33
0
57
0
61
49
2
19
12
29
40
14
29
4
6
55
10
85
14
6
10
4
8
40
4
8
4
2
29
0
34
8
0
38
0
14
50
65
8
0
2
21
4
0
6
6
36
21
17
32
0
21
0
4
44
168
128
51
0
8
38
0
32
25
0
8
0
0
21
0
25
0
19
0
2
31
0
40
40
0
23
23
2
44
19
29
17
53
8
10
14
0
42
25
106
10
125
123
87
135
104
131
146
93
4
23
42
29
23
12
33
4
27
2
14
38
0
29
29
16
4
0
0
14
53
19
82
40
0
0
17
14
19
12
34
6
0
14
32
16
93
29
6
10
16
33
4
0
19
59
2
34
0
8
23
6
0
12
10
10
12
16
36
12
0
19
6
2
10
2
4
21
21
6
10
0
95
76
57
108
53
0
6
16
12
8
0
2
16
12
2
0
0
21
0
6
8
4
61
0
27
98
12
10
31
21
33
0
0
10
0
0
14
59
8
12
2
8
59
0
4
0
0
4
2
23
32
76
12
64
31
55
87
59
61
87
14
29
61
0
64
21
4
17
2
67
6
66
0
51
102
2
0
29
14
2
8
4
0
10
40
34
29
64
21
14
51
23
10
0
48
10
48
57
25
0
44
0
4
0
106
147
121
44
29
2
2
4
42
4
17
10
14
14
10
0
40
0
40
4
0
17
14
0
29
0
0
46
12
16
38
12
12
10
0
19
36
19
38
19
19
21
10
12
36
12
12
0
34
34
12
4
2
21
72
40
12
21
21
8
2
10
23
29
32
16
17
0
8
33
4
6
14
19
10
23
0
6
36
70
153
0
4
12
36
46
23
61
84
21
4
51
61
74
40
40
0
29
33
2
0
23
21
0
2
31
38
10
4
0
19
2
10
0
6
0
6
23
50
0
0
0
21
4
33
4
12
36
34
113
33
17
23
12
33
19
23
17
34
42
4
8
10
6
0
34
0
6
12
0
0
0
10
14
17
27
19
38
12
10
32
2
38
6
8
36
29
0
19
0
23
2
6
33
23
8
29
0
10
0
2
4
46
23
23
10
57
0
32
0
61
0
12
14
25
40
31
2
4
0
61
19
8
2
29
29
0
0
0
2
4
78
53
91
6
0
4
72
0
87
44
36
0
6
12
23
57
6
49
21
14
29
0
2
10
12
0
27
2
23
2
87
64
36
0
6
19
8
83
34
34
29
2
2
49
29
12
14
10
0
0
21
44
8
16
23
34
16
0
51
42
16
34
8
25
21
29
10
23
14
50
2
0
38
0
40
10
23
12
16
0
0
6
0
8
55
19
8
2
53
0
25
61
0
10
23
33
6
0
17
46
4
27
21
27
2
0
48
2
10
66
0
0
0
2
0
2
25
0
16
0
17
0
25
16
0
38
14
10
4
4
8
6
91
16
48
0
6
8
6
38
46
34
8
23
2
74
29
12
2
0
6
8
63
68
2
10
25
31
0
0
63
21
0
0
29
23
0
4
25
17
25
0
0
10
0
49
0
19
6
44
14
8
10
0
12
25
6
29
21
2
4
14
6
6
8
16
12
29
0
0
4
0
12
53
55
4
0
10
12
42
19
2
17
68
12
0
0
46
27
21
2
27
23
19
14
0
6
46
21
8
14
2
36
36
0
74
25
0
0
29
27
57
49
21
0
0
49
25
4
14
0
2
19
12
33
40
25
0
4
6
21
14
31
40
53
2
38
29
72
57
10
0
32
4
0
27
2
21
0
0
4
21
19
10
12
12
0
40
72
10
10
59
2
4
0
0
6
31
0
4
53
53
4
8
44
19
14
34
6
0
76
61
53
27
2
36
4
48
21
8
27
25
19
21
78
10
0
4
61
25
12
29
31
23
19
59
72
0
25
6
0
0
34
76
32
0
36
29
14
50
19
44
8
14
34
21
0
19
0
23
31
4
49
46
10
0
0
21
57
25
0
4
2
0
46
2
0
6
0
64
29
57
61
12
31
4
6
10
16
0
42
2
48
0
23
8
14
0
12
12
2
29
0
36
4
31
2
36
10
17
2
32
0
46
0
6
2
4
42
6
6
19
8
0
12
29
17
21
8
0
0
46
27
53
44
44
44
46
55
55
59
27
55
48
19
38
34
38
23
32
6
17
72
27
10
4
14
4
42
31
8
4
2
2
29
42
29
51
0
27
2
0
12
4
4
2
12
0
46
25
6
10
0
135
80
44
2
70
29
6
0
10
4
17
49
10
0
44
85
0
0
42
21
64
42
0
0
17
4
0
34
50
61
42
46
12
14
46
10
0
23
27
10
17
0
12
66
8
0
0
23
33
10
42
72
0
10
49
48
0
14
4
0
50
12
51
25
42
23
0
0
36
53
14
23
23
0
31
0
81
21
59
0
0
0
17
12
4
0
34
34
89
29
12
8
42
0
98
14
68
31
49
34
6
12
17
0
23
44
32
36
14
0
4
44
4
53
125
29
0
50
6
0
29
2
38
8
10
0
0
19
76
12
44
51
61
85
23
0
8
0
0
38
0
4
4
4
8
4
10
14
34
44
17
10
2
31
2
36
0
8
6
0
0
19
17
2
0
2
0
2
74
32
0
33
19
46
0
0
0
6
14
25
17
0
57
0
0
0
23
0
40
2
0
8
6
17
33
57
12
0
51
17
0
0
19
2
46
34
68
34
14
0
38
0
50
17
31
8
12
57
42
51
78
110
81
48
16
44
32
32
61
57
42
12
0
32
44
23
12
36
0
48
48
6
53
55
55
48
50
38
53
16
40
0
0
2
0
4
50
42
12
10
14
31
34
21
40
25
38
32
0
19
12
38
10
17
23
0
21
34
27
23
17
32
27
0
6
2
46
10
0
72
2
10
12
44
0
0
14
29
12
21
2
29
2
2
17
44
29
6
21
0
0
29
8
57
10
19
6
40
0
0
4
0
4
36
21
65
23
19
4
74
4
0
29
10
2
14
44
0
12
27
19
17
0
0
12
51
27
21
38
21
0
17
50
61
114
70
89
112
40
66
27
16
8
23
6
72
0
0
44
4
12
16
8
27
44
29
21
57
91
134
108
0
17
23
10
27
12
0
55
6
29
31
36
50
0
21
51
21
0
38
14
23
8
21
0
4
2
12
53
19
10
38
12
19
0
0
27
17
44
2
53
46
6
2
2
0
6
44
2
46
0
10
2
6
21
8
0
6
6
29
32
4
34
12
40
57
33
34
2
38
23
31
0
17
46
0
6
4
0
4
4
6
21
2
38
0
0
0
0
23
48
6
8
42
21
6
6
14
55
27
17
33
42
55
106
74
108
140
117
130
89
38
42
0
36
34
19
19
16
2
2
25
25
0
98
57
31
2
0
78
164
200
169
101
50
55
0
33
8
10
27
0
34
23
0
16
8
2
21
2
14
57
0
19
8
0
10
10
19
23
17
12
0
10
0
44
51
0
34
12
0
8
78
6
0
10
0
32
2
0
4
40
0
25
40
10
2
0
12
0
12
53
17
0
2
70
10
34
33
57
34
0
8
8
0
6
2
25
14
17
44
17
0
16
0
14
6
4
61
0
32
33
19
0
12
42
14
25
17
2
8
49
8
2
6
34
89
51
134
131
166
170
161
136
55
85
84
40
10
0
14
6
0
23
40
17
2
17
2
8
0
0
61
40
97
64
55
51
61
4
49
49
6
2
17
19
46
25
34
0
42
63
34
32
25
33
0
19
6
12
142
192
99
0
12
25
12
29
36
65
0
34
8
12
2
4
36
16
34
12
8
0
42
55
17
2
4
6
33
6
0
27
6
10
12
21
0
36
21
66
27
14
2
32
36
0
19
6
19
17
8
4
10
10
14
42
34
23
6
8
0
74
8
6
12
12
44
23
14
0
12
57
8
36
0
16
6
87
106
134
133
161
198
211
199
170
149
93
59
2
16
25
14
16
0
0
23
64
12
2
2
8
42
4
89
0
36
19
17
8
0
0
29
2
0
2
4
4
16
8
19
0
12
33
34
27
2
29
0
40
8
14
97
123
244
108
29
53
12
6
70
8
27
10
4
10
6
23
12
29
0
0
6
4
12
2
44
27
36
53
25
17
14
8
53
4
0
19
0
2
8
14
27
25
55
12
25
51
12
10
2
4
17
0
10
10
32
0
67
27
25
12
44
61
104
0
19
2
0
21
70
44
14
0
40
40
8
31
76
36
83
125
155
177
201
242
238
228
192
140
104
68
100
0
12
31
16
0
2
50
14
0
64
49
74
14
42
29
23
44
10
16
0
57
10
4
4
34
19
0
19
31
0
34
78
0
17
33
19
21
0
4
0
59
12
31
31
176
114
42
12
6
63
23
0
16
6
0
14
19
19
27
6
21
12
2
10
32
0
27
0
12
12
0
36
34
4
12
2
6
19
2
36
21
27
82
10
0
34
27
19
23
4
2
2
0
19
14
19
27
8
2
14
8
0
6
6
0
51
48
19
0
10
2
29
0
19
33
4
16
31
6
0
51
151
167
215
245
254
255
238
182
142
49
61
70
6
0
2
14
14
50
0
0
0
0
0
116
42
10
0
55
16
2
0
0
17
0
8
0
27
40
44
38
29
2
17
42
46
27
0
21
25
4
0
25
27
0
46
0
78
123
68
2
4
25
0
31
17
4
29
10
2
2
17
0
8
8
0
17
6
33
12
0
6
49
0
19
38
4
42
10
19
29
36
10
42
10
34
42
0
31
0
0
4
40
2
29
14
6
21
34
23
0
16
16
21
10
0
93
17
4
38
4
12
49
36
23
19
29
31
31
53
23
42
76
93
144
186
232
253
254
252
221
167
125
80
68
66
33
27
8
17
17
23
0
4
6
6
4
42
19
0
31
4
0
10
0
42
2
49
33
0
25
0
23
0
8
0
53
6
10
6
44
31
8
10
8
36
6
6
16
0
10
138
134
0
29
68
0
21
0
0
6
0
2
16
4
8
2
78
2
0
6
10
6
0
38
29
27
0
2
19
8
2
0
12
4
50
42
10
25
21
17
14
10
0
0
6
70
4
0
2
2
0
0
0
0
51
31
8
0
0
4
0
36
38
8
6
6
10
17
0
4
19
53
55
38
99
110
144
203
228
245
240
216
179
150
97
67
80
0
29
0
17
42
27
33
21
55
27
8
8
21
0
0
0
4
4
14
8
4
46
27
0
6
0
66
38
4
19
21
8
0
2
29
14
2
25
19
57
21
44
4
36
2
40
0
40
48
70
12
17
0
17
25
4
21
6
0
0
10
36
31
4
0
53
64
19
0
8
8
4
0
0
12
6
25
4
23
38
4
16
0
17
10
32
48
38
0
6
4
6
19
19
14
6
6
51
0
57
10
6
59
0
0
10
6
2
14
0
6
44
6
14
12
25
38
46
6
85
110
59
148
170
203
212
203
172
169
129
70
14
36
31
40
85
16
46
17
0
32
19
25
61
0
0
27
0
6
31
48
19
17
0
0
36
0
2
51
6
36
16
21
0
0
12
23
4
4
6
61
38
49
8
23
4
0
27
44
21
10
21
34
0
4
17
23
0
19
25
68
10
0
17
4
23
48
0
6
17
0
65
6
19
27
0
19
61
25
17
8
8
0
19
16
27
57
31
0
6
29
2
76
32
17
16
8
17
31
2
6
0
0
34
76
12
38
10
10
21
38
10
19
67
46
2
23
27
25
83
38
57
78
72
93
132
176
165
165
163
142
133
89
87
42
81
80
2
4
4
29
27
0
27
72
49
42
16
17
21
36
19
10
50
8
4
4
32
42
27
0
14
84
82
14
0
19
2
16
51
2
38
36
72
17
8
25
0
0
0
0
51
21
27
6
16
21
82
50
29
0
25
0
17
4
61
0
0
63
46
46
0
21
0
10
2
0
29
0
6
2
6
0
2
21
19
0
42
57
31
23
31
4
27
0
6
8
34
0
0
6
2
8
12
6
42
0
8
6
8
6
50
12
17
8
19
0
36
10
29
0
36
55
42
42
12
25
76
153
136
152
150
115
110
110
57
93
23
10
0
25
40
0
12
16
0
42
116
157
65
25
2
0
12
44
10
17
0
4
46
100
99
42
46
2
46
63
65
55
0
44
40
2
27
48
145
17
42
0
53
21
0
0
19
12
0
2
0
21
16
0
4
33
8
6
65
19
0
2
27
0
4
12
12
0
0
27
4
0
0
0
0
8
4
0
4
4
29
66
17
17
16
0
25
36
29
16
44
34
0
4
57
8
0
2
12
0
27
64
23
12
12
0
55
0
29
4
6
36
29
19
40
0
42
2
17
44
0
44
68
89
128
130
125
142
68
12
61
89
14
25
85
4
6
72
33
6
50
53
76
144
150
166
106
65
78
40
101
42
8
0
8
21
0
89
17
38
2
116
113
12
21
17
40
10
27
46
114
29
8
12
19
19
68
17
21
57
6
14
34
6
4
0
0
70
12
0
17
0
12
51
29
6
6
10
4
4
0
0
8
0
10
2
0
6
42
21
12
0
27
6
12
12
0
2
0
0
0
72
0
14
12
2
31
2
29
0
27
14
27
29
36
16
4
0
6
6
25
0
8
6
8
36
6
65
12
44
8
74
0
40
78
65
115
220
193
53
74
96
85
38
59
0
57
0
72
97
4
14
10
23
14
161
167
206
181
135
61
4
42
0
53
0
38
14
55
10
25
76
89
19
6
0
17
14
4
23
0
10
2
25
53
21
0
19
0
4
12
10
0
70
31
2
14
23
0
27
29
17
34
17
2
34
8
19
17
2
0
2
72
12
2
4
42
17
10
19
8
29
21
17
0
8
2
46
27
44
0
14
2
14
32
0
0
19
29
14
0
17
10
44
12
10
0
29
49
27
12
12
38
14
6
27
21
0
2
25
19
8
36
49
46
46
10
10
89
121
255
211
55
61
83
50
2
40
57
49
25
89
53
0
76
0
6
96
101
125
127
91
74
44
25
17
48
12
14
42
19
0
78
55
23
19
17
48
23
36
6
0
6
0
10
31
48
0
49
2
0
6
25
0
12
6
12
40
17
4
4
0
33
4
0
0
51
10
0
2
46
0
6
12
6
44
0
17
19
6
10
70
0
23
51
72
83
0
12
16
0
27
0
0
14
23
6
17
8
70
14
14
4
0
19
0
2
6
0
0
17
17
0
38
34
0
10
0
40
33
8
2
0
0
0
14
2
78
29
19
27
48
57
204
66
14
40
42
42
57
2
16
55
19
65
33
12
6
2
59
106
29
70
87
50
12
25
36
31
0
33
42
57
82
34
44
59
0
70
0
8
4
10
2
2
59
8
2
70
0
0
19
33
0
6
0
0
40
0
2
25
17
17
0
53
4
0
4
6
10
4
38
6
38
34
10
4
12
4
6
14
4
17
40
74
19
21
40
0
61
23
6
14
6
8
0
4
0
34
27
21
12
8
23
53
0
0
2
51
59
72
0
40
14
32
33
2
0
0
17
29
0
27
0
0
55
0
0
17
49
23
19
46
2
4
17
76
68
27
38
10
38
0
4
32
68
0
10
0
0
19
27
53
6
40
85
55
17
38
21
2
25
55
152
164
160
68
10
14
34
81
14
8
19
0
31
46
25
67
0
51
6
4
6
4
34
19
0
17
27
27
78
0
40
17
25
55
53
70
64
8
0
33
12
17
19
12
0
40
10
4
0
53
23
10
0
19
0
29
14
2
0
72
0
31
4
0
65
6
19
8
38
8
53
63
31
19
42
81
51
0
53
4
40
31
0
10
21
4
8
14
4
27
6
0
2
12
0
34
25
19
8
19
8
38
49
4
61
55
14
34
4
25
91
66
4
2
31
10
8
44
17
74
10
0
31
6
2
12
6
0
6
70
44
125
172
196
157
61
19
2
6
0
0
8
12
0
0
25
0
6
8
2
38
4
0
0
16
0
0
61
19
49
16
25
8
0
65
0
46
117
215
140
36
2
49
34
12
0
4
12
8
0
0
29
25
42
8
4
48
0
34
14
10
21
12
6
19
46
8
27
19
50
0
14
14
4
42
12
51
0
25
17
33
2
4
19
8
17
21
10
34
0
0
25
12
6
19
8
10
0
17
0
32
2
25
0
70
6
17
38
57
16
27
65
38
40
55
40
6
6
44
19
17
14
0
50
6
40
10
10
6
10
6
50
55
211
213
187
147
85
2
19
14
0
0
0
0
6
29
21
0
14
25
48
0
12
27
21
10
0
29
4
23
2
4
21
8
63
8
2
8
76
127
189
55
17
0
4
6
29
36
0
0
21
17
0
14
25
0
16
21
29
0
40
4
0
23
19
16
29
0
12
40
0
27
23
23
8
2
12
40
0
16
4
44
4
40
8
0
27
0
19
38
40
21
25
0
34
19
42
0
25
2
2
4
0
8
44
12
38
0
2
74
68
36
2
0
34
23
29
4
17
14
46
14
32
4
2
36
32
61
0
6
63
34
48
110
197
183
151
66
59
34
21
2
27
21
27
25
0
14
6
0
32
46
34
70
2
27
0
10
34
40
0
4
57
8
6
0
8
0
0
4
36
44
32
4
40
42
4
4
38
19
46
0
0
8
8
25
78
2
17
2
14
8
0
44
2
55
4
36
119
78
0
16
8
8
27
64
0
8
21
8
14
10
25
46
2
53
23
23
23
0
0
0
12
4
4
23
25
6
10
57
64
19
27
31
6
0
42
27
4
2
0
55
21
4
34
10
14
0
2
2
38
0
0
17
10
0
40
42
12
0
8
0
59
76
53
95
145
211
100
81
21
14
34
6
2
44
64
42
12
29
76
10
14
0
19
6
27
32
74
8
12
48
25
14
40
40
8
44
23
8
4
0
0
0
59
27
40
21
38
0
0
27
8
44
32
14
36
2
2
8
8
0
25
14
0
0
51
4
0
32
0
0
113
2
0
2
17
4
0
0
6
2
19
36
10
10
6
38
2
0
17
17
0
0
0
0
19
0
12
29
34
59
10
19
0
0
2
19
0
25
10
10
17
0
61
40
4
0
0
32
8
64
0
10
12
0
34
53
31
0
29
19
0
12
76
32
57
36
19
78
68
48
61
38
32
14
32
2
53
6
2
0
6
0
0
36
0
14
16
0
14
10
0
44
10
2
84
0
0
21
16
0
61
2
0
23
4
25
27
14
21
16
17
0
14
6
0
12
23
6
8
12
19
6
27
8
2
31
51
19
4
38
19
48
6
38
34
12
0
6
44
53
46
6
10
6
0
0
0
6
78
6
8
8
4
10
34
25
53
55
4
0
0
21
36
42
51
12
0
0
16
0
0
14
10
23
19
17
81
4
10
6
59
51
67
49
42
4
31
36
42
0
0
72
84
21
19
19
2
10
0
19
57
0
12
38
4
17
4
40
61
49
0
29
0
0
0
4
10
32
12
25
0
12
27
0
6
0
16
25
0
4
31
0
17
12
0
29
25
21
31
19
0
21
0
38
0
19
2
4
4
51
50
0
17
17
34
6
0
6
4
68
61
16
10
0
10
0
6
10
19
8
0
2
27
32
4
14
0
4
6
10
36
61
21
2
6
0
6
6
6
40
12
0
12
51
32
0
10
0
33
8
27
38
12
4
40
72
0
0
6
6
38
40
17
38
31
85
19
12
42
59
17
8
23
12
57
19
32
12
10
72
29
68
2
10
14
48
10
0
10
91
14
32
10
38
55
0
0
55
4
0
4
14
0
0
4
33
2
12
14
4
0
0
12
4
0
33
17
0
8
8
44
14
21
16
27
38
0
0
0
0
6
23
14
2
72
6
0
0
0
23
6
2
0
12
2
0
19
0
21
0
25
2
38
12
4
72
46
33
8
2
85
31
61
4
66
42
29
0
2
10
4
0
14
63
0
36
81
0
14
0
33
0
57
16
44
72
21
19
4
23
2
6
17
10
53
4
44
66
53
61
61
4
135
83
25
63
2
40
0
53
23
21
40
8
10
0
2
78
0
76
2
16
27
40
34
55
2
12
0
0
0
0
0
0
4
12
8
29
0
8
27
17
0
14
4
19
42
36
10
0
12
55
0
14
0
23
8
16
2
0
0
19
0
6
57
21
0
17
12
17
36
21
51
19
42
72
0
0
14
38
0
32
6
59
0
0
31
21
0
6
4
4
0
34
0
8
0
6
0
31
33
0
21
2
6
10
6
23
8
44
21
38
21
27
17
0
57
34
10
21
2
8
4
0
21
10
29
23
36
17
2
29
2
21
0
8
55
40
36
23
53
6
10
27
17
21
27
2
21
40
14
10
0
0
14
0
40
121
89
23
10
10
27
14
14
0
33
0
0
17
4
53
2
78
33
42
0
17
2
27
0
4
2
0
8
0
12
33
53
4
0
40
0
27
23
85
33
2
0
4
0
6
32
8
4
0
42
0
29
8
4
8
46
0
23
21
10
4
2
6
21
10
23
10
42
19
31
0
23
2
2
16
29
40
17
14
34
0
2
4
0
16
46
0
21
0
50
38
12
8
31
4
4
27
4
12
14
50
25
4
21
57
0
0
42
33
29
14
6
25
25
4
6
6
10
53
36
2
36
51
46
49
34
50
65
14
29
32
49
17
34
42
29
38
34
17
12
36
6
0
2
0
0
21
10
4
72
14
8
0
2
14
23
50
19
40
0
8
0
0
17
32
0
2
14
65
14
10
6
14
0
50
0
8
53
10
0
2
36
12
21
4
4
23
10
0
21
40
0
0
49
17
0
2
34
27
44
59
12
19
14
44
0
19
31
0
2
12
19
0
0
17
0
2
67
17
17
14
29
84
4
0
4
0
0
10
4
59
8
21
21
2
0
2
6
0
10
21
16
6
14
2
4
10
2
34
0
38
2
36
0
93
130
19
110
119
142
68
108
91
59
74
25
4
0
0
0
12
8
12
16
6
2
0
16
4
36
0
44
0
33
27
0
10
64
0
0
4
25
8
4
27
10
25
33
74
21
0
27
55
44
21
0
4
31
17
6
0
0
0
6
14
8
12
66
23
14
6
2
19
53
51
12
38
0
12
23
10
8
0
0
6
4
33
23
29
61
2
8
36
0
8
19
4
0
16
12
8
17
10
8
34
14
4
0
44
8
4
53
23
8
87
4
0
12
2
4
4
0
27
0
23
12
57
48
36
21
87
61
53
4
34
42
38
129
136
142
155
140
142
125
123
93
25
49
51
25
10
12
0
32
2
8
29
10
4
0
8
6
74
0
16
23
72
25
29
17
42
10
6
32
4
40
0
2
8
0
0
6
23
2
4
21
21
0
12
36
6
10
10
19
4
19
17
4
19
8
0
21
17
4
17
38
0
0
0
2
25
33
0
25
12
8
42
0
46
19
32
8
0
19
31
4
2
84
12
29
17
31
0
29
4
2
4
23
14
40
14
31
14
6
27
44
2
46
8
36
29
23
36
6
4
53
33
16
2
21
8
36
23
4
44
34
17
46
121
142
178
195
197
211
204
202
174
144
121
78
61
38
27
0
14
14
8
10
10
6
0
49
0
0
51
16
23
6
66
25
76
19
14
0
6
0
2
4
0
53
27
21
0
0
0
32
0
34
8
19
0
0
14
34
0
6
27
46
21
4
0
4
50
8
8
8
6
8
10
6
12
4
0
21
0
10
2
33
0
0
19
49
10
25
0
0
61
59
23
40
29
0
19
14
53
0
25
17
72
17
8
49
34
67
8
27
0
40
14
6
29
2
70
4
4
6
0
53
53
32
14
19
2
48
14
8
85
27
61
101
121
140
204
229
246
241
238
248
236
206
176
150
119
64
50
32
27
0
51
16
0
0
12
4
12
0
10
0
0
32
31
34
23
8
44
14
55
44
32
33
6
0
6
25
0
0
0
36
8
4
21
63
50
8
0
21
36
4
0
0
25
27
12
0
0
42
6
12
6
16
16
33
19
33
2
2
34
66
55
17
12
6
19
0
8
0
29
8
34
27
21
25
0
0
16
23
25
34
2
55
8
25
48
16
0
53
32
34
53
6
48
36
25
51
65
6
63
16
21
4
14
27
0
29
0
8
19
31
36
38
29
119
138
157
197
229
246
252
249
246
249
238
223
197
167
78
46
44
40
0
2
17
4
4
6
4
0
12
17
4
4
36
4
17
53
19
6
27
10
21
4
6
46
14
0
4
6
2
10
42
0
23
31
21
21
0
33
8
8
4
27
4
25
66
4
29
50
0
0
4
32
10
42
4
2
19
23
17
38
2
46
57
4
0
8
4
2
12
27
10
14
57
8
2
21
50
0
8
0
21
10
19
0
38
0
8
36
36
17
16
23
83
2
72
36
2
17
49
23
46
12
0
27
2
55
42
4
34
2
0
42
59
4
67
106
160
198
226
249
251
251
253
254
254
244
229
210
160
93
66
83
4
17
0
0
4
16
0
0
12
0
6
0
0
8
27
2
14
0
2
31
42
40
10
4
10
33
25
10
10
0
6
0
21
16
23
25
16
6
8
21
12
2
10
0
42
2
36
2
0
10
21
14
4
12
0
29
0
8
17
46
55
14
57
72
74
17
40
23
44
6
23
17
25
0
6
17
12
29
31
0
0
34
2
66
6
25
21
6
50
32
0
44
8
10
14
32
33
0
2
4
21
10
10
8
17
0
10
0
34
34
78
44
17
48
34
67
130
195
224
246
255
254
254
255
254
254
238
234
227
150
142
87
19
10
27
10
12
8
0
21
70
21
0
21
2
4
12
19
10
44
40
4
4
34
91
33
0
31
10
8
0
61
25
2
21
25
59
8
66
14
4
8
4
31
4
17
40
6
16
42
0
70
8
0
0
0
2
53
61
42
0
10
44
0
19
53
4
21
31
0
74
2
12
38
29
19
38
46
29
0
0
21
8
29
8
10
0
38
19
2
0
0
16
0
17
6
17
0
17
12
16
40
49
0
38
6
0
2
61
44
36
29
44
68
81
44
48
106
93
136
220
245
255
255
255
255
255
254
243
229
230
214
161
87
48
16
40
10
0
21
4
6
0
0
16
0
46
19
10
4
0
4
6
32
0
2
0
36
50
6
10
25
38
32
25
0
19
6
2
65
32
2
2
0
12
8
21
8
10
6
4
0
4
16
0
14
0
38
34
10
0
42
4
0
0
0
21
53
8
21
17
34
29
0
34
0
44
0
19
34
17
4
0
25
4
12
16
29
27
8
12
10
42
0
50
23
25
4
27
0
2
21
14
0
33
0
0
29
34
14
6
21
21
27
49
0
89
74
93
44
85
136
174
233
250
255
255
255
255
255
251
235
227
221
208
148
100
106
17
8
16
33
23
2
27
0
57
55
4
14
0
36
16
21
12
29
29
144
2
2
17
0
0
10
14
42
6
0
0
0
0
67
8
17
0
2
4
14
0
12
40
6
4
40
0
29
70
160
99
49
53
4
17
31
4
25
4
46
31
0
4
14
10
42
53
2
42
10
44
2
21
31
14
36
6
10
36
6
42
0
2
42
8
34
0
29
12
33
12
8
0
2
21
14
8
14
0
10
0
2
72
8
21
2
4
59
19
51
178
130
19
59
61
53
138
196
244
255
255
255
255
255
255
248
220
219
225
182
125
70
32
40
25
25
66
19
46
29
42
6
17
2
2
0
19
10
0
38
0
53
25
0
14
32
23
0
21
2
10
0
2
4
53
6
0
0
2
36
8
17
31
0
4
57
23
10
10
2
0
40
0
104
33
0
14
23
0
16
4
0
2
8
46
2
70
14
0
19
25
42
6
42
4
27
46
0
0
21
19
27
36
0
12
4
8
38
0
19
0
6
25
0
8
0
38
10
0
14
4
21
27
51
0
10
27
8
46
2
23
0
72
166
123
68
121
78
110
145
192
248
255
255
255
255
255
254
233
200
215
193
138
70
61
16
40
34
23
38
0
2
0
8
16
2
0
0
2
8
12
19
31
0
16
12
0
2
0
36
6
8
4
8
8
4
25
34
12
34
6
44
21
2
8
12
12
27
2
17
21
17
8
0
8
61
21
0
27
4
12
0
23
38
27
53
29
27
8
0
38
12
8
46
0
27
12
49
34
6
46
31
38
8
2
23
10
16
29
57
6
19
23
6
31
38
16
25
8
0
0
14
0
2
19
6
4
38
0
8
14
21
14
38
29
49
97
127
106
106
23
117
151
192
242
254
255
255
255
255
249
206
183
198
172
132
17
95
76
64
14
40
12
10
46
8
49
21
17
19
0
0
21
46
65
0
40
6
17
44
0
0
6
8
44
8
0
8
29
4
46
42
42
2
76
12
4
6
42
17
0
42
8
16
10
57
29
33
33
21
27
6
14
4
6
84
36
6
29
36
12
6
6
27
38
10
2
59
8
0
0
12
4
0
0
38
10
14
14
12
23
0
16
19
21
0
21
42
53
44
2
2
10
68
50
74
23
0
25
19
17
61
12
29
6
27
38
82
36
76
83
36
97
76
104
136
172
223
246
254
255
255
255
221
189
189
167
142
102
44
91
70
100
29
33
0
21
8
34
2
8
8
14
8
0
0
6
27
2
27
36
2
29
64
0
0
51
0
19
42
42
34
0
14
0
23
42
0
68
17
14
10
44
33
0
29
44
0
93
27
29
76
27
4
44
27
12
10
33
72
46
0
0
10
0
42
65
21
55
12
10
31
55
6
12
21
6
19
12
0
61
59
57
0
25
0
0
57
12
8
0
0
0
29
2
8
14
8
76
12
0
17
46
57
0
29
0
0
2
0
46
61
36
34
99
72
102
119
106
145
180
217
237
244
240
209
182
160
187
142
113
104
14
89
59
134
148
84
36
59
27
0
4
14
4
25
76
2
6
19
25
27
6
0
38
4
21
29
10
0
12
0
10
19
14
6
25
0
19
21
8
6
17
42
27
2
12
0
0
40
6
4
6
0
0
4
14
0
2
8
8
4
0
8
0
0
40
8
4
8
0
16
0
4
16
14
23
6
32
6
2
0
4
2
2
74
63
12
59
66
19
0
25
0
12
29
0
0
33
161
95
6
14
8
23
4
36
10
14
6
4
0
2
23
10
67
72
76
91
98
80
119
129
151
135
196
174
164
155
147
164
147
106
91
55
68
53
36
153
155
31
31
17
0
2
0
0
0
23
23
0
0
2
6
6
8
12
0
0
0
42
42
4
10
34
46
0
48
4
12
6
25
17
4
0
25
0
8
2
33
6
0
0
27
2
12
6
27
0
17
17
0
12
0
12
32
4
8
16
16
34
21
2
4
4
0
72
57
68
6
4
2
0
0
0
51
17
2
0
42
29
25
48
19
0
2
27
12
0
34
6
61
74
57
44
25
6
34
34
23
36
10
2
4
17
31
36
23
46
51
49
91
89
81
132
102
153
145
130
123
106
110
108
142
89
72
87
8
2
67
91
167
161
85
4
12
8
2
25
29
14
0
6
27
10
6
61
8
17
10
53
8
0
23
36
6
12
53
46
32
14
23
0
0
17
2
0
0
8
36
68
0
0
0
4
16
0
10
21
0
44
55
4
46
25
16
0
34
0
12
40
33
2
72
10
0
31
4
14
29
0
14
4
8
76
0
2
61
4
53
4
0
4
27
65
68
0
12
0
2
12
4
46
44
12
23
27
14
14
0
31
2
0
12
4
0
0
0
27
48
0
87
44
2
74
25
76
59
102
59
74
104
83
125
57
121
152
102
57
14
102
76
95
70
10
51
6
2
25
59
27
12
27
42
0
38
46
17
4
0
0
46
38
27
29
10
0
34
4
2
38
21
2
34
4
31
2
0
0
23
4
46
34
38
36
8
0
4
6
16
36
14
50
8
162
59
4
23
21
46
72
27
0
10
21
23
2
4
2
2
6
14
0
8
27
0
25
8
0
6
0
57
17
2
0
12
21
0
8
55
72
34
4
23
27
10
10
44
32
0
10
40
4
0
10
6
0
36
0
0
0
33
32
8
23
48
38
89
83
68
95
78
70
110
101
110
119
135
112
57
6
40
76
59
40
42
40
17
21
29
63
21
33
0
12
12
10
21
12
23
2
10
0
0
0
0
66
17
40
44
46
0
0
12
4
8
2
25
64
44
19
10
4
8
46
10
10
19
19
46
0
12
4
6
27
53
38
133
44
10
27
19
0
67
0
10
6
25
36
0
25
0
48
34
8
19
19
0
2
6
14
8
19
0
0
10
46
0
0
23
0
36
17
10
0
40
51
10
0
65
12
8
8
6
23
10
17
0
36
8
34
12
10
0
8
4
6
6
44
63
82
10
76
27
31
74
76
84
113
115
49
48
66
8
32
23
2
99
91
70
27
55
29
0
27
2
0
14
50
38
36
8
19
8
8
21
4
4
0
31
0
50
2
4
6
0
4
29
0
21
14
2
4
2
27
23
14
81
4
21
10
57
0
27
46
80
16
59
36
66
70
19
0
6
8
0
4
4
10
2
0
16
63
10
68
14
0
2
0
0
44
4
0
57
23
10
76
25
10
8
14
42
38
0
0
6
0
19
19
82
12
46
12
2
36
0
29
29
31
0
46
17
55
29
44
42
21
36
0
4
40
14
14
59
38
33
74
55
59
19
38
50
53
2
36
2
16
51
34
17
91
96
29
61
38
49
0
44
4
31
6
6
31
16
23
8
21
49
6
4
34
17
2
38
21
2
31
0
4
0
19
19
17
0
33
53
31
17
21
17
2
16
23
10
68
32
32
6
23
36
33
29
0
4
21
48
6
0
0
19
34
0
19
74
2
8
16
0
61
42
2
67
12
2
2
2
0
21
8
46
0
0
19
55
32
23
8
0
0
10
50
6
51
6
6
6
0
14
38
59
12
6
12
0
17
44
21
16
110
23
34
25
8
55
0
21
40
19
59
67
6
2
40
46
57
48
70
55
27
23
10
10
42
40
34
44
48
21
6
17
0
6
0
0
4
0
10
27
0
14
14
19
0
19
19
25
21
2
0
34
27
44
12
0
8
0
6
10
10
0
17
16
0
0
17
2
0
6
34
21
0
19
0
4
0
40
4
19
59
8
2
25
53
4
23
36
21
8
0
0
4
32
0
6
0
0
42
0
6
25
10
6
31
0
64
8
51
51
8
8
32
2
6
23
23
0
4
4
31
8
17
4
8
0
16
0
4
6
4
36
12
27
4
25
6
61
29
65
2
40
78
21
51
25
59
31
8
0
29
21
27
42
55
0
32
50
12
66
38
34
34
8
19
44
6
0
0
34
8
14
6
8
2
25
46
17
42
40
65
12
6
10
0
12
27
23
8
12
40
0
33
2
10
0
23
0
10
14
33
8
21
4
2
4
34
27
0
48
27
12
38
0
72
4
27
10
61
0
29
12
0
36
2
0
10
2
64
42
2
0
6
57
0
12
25
29
2
53
36
25
0
19
14
31
19
10
46
0
50
17
0
83
0
4
53
0
17
65
16
59
46
36
8
0
0
0
17
36
0
10
44
38
31
61
8
8
14
21
0
0
0
27
74
10
27
2
29
46
46
17
17
10
0
46
8
0
23
12
4
0
23
0
12
27
19
2
25
0
4
17
36
0
0
17
29
0
0
6
42
0
59
42
36
12
0
25
48
21
27
55
10
14
0
0
12
27
51
2
8
44
12
4
6
2
12
27
19
2
0
21
0
34
17
0
8
8
64
12
8
34
2
104
127
53
63
23
0
2
27
4
2
8
0
42
59
14
4
21
10
0
16
25
23
34
0
12
2
16
14
17
8
8
55
32
85
4
10
12
25
0
16
12
32
8
29
17
34
44
50
0
10
36
17
19
23
2
0
34
38
25
6
0
0
14
51
40
2
27
10
8
6
23
0
19
2
0
42
57
23
25
0
23
0
21
8
25
0
6
59
44
0
10
19
25
16
19
16
0
53
16
36
16
21
0
12
0
2
0
2
8
49
2
17
0
102
51
53
0
10
16
6
61
27
34
6
16
8
0
25
0
0
49
46
29
57
142
110
55
14
48
0
10
0
27
23
8
49
10
21
46
10
14
27
27
42
17
12
44
8
51
4
0
8
21
0
10
2
0
0
0
10
29
50
10
27
59
4
36
33
25
44
8
16
10
6
10
0
0
0
29
27
21
25
23
0
0
16
70
16
2
55
12
0
12
2
40
0
78
32
112
72
4
0
36
4
36
6
36
4
10
21
0
23
4
19
14
44
6
2
46
61
12
25
0
44
33
8
2
40
0
2
10
8
49
0
0
59
113
29
23
12
17
34
12
23
0
23
10
25
23
38
12
0
0
8
4
49
0
89
100
51
50
0
38
12
16
0
6
72
8
6
8
19
2
17
8
0
23
31
8
34
2
19
8
46
2
48
29
12
0
6
0
0
0
10
0
19
12
19
0
0
12
6
2
2
0
10
87
0
46
55
0
8
34
2
74
21
19
16
84
46
0
2
32
0
0
0
65
12
0
17
138
138
66
8
46
6
8
0
53
8
10
6
10
19
21
10
2
21
27
21
2
0
4
57
0
0
51
4
14
17
29
23
14
27
6
4
0
19
32
12
40
12
0
4
17
0
0
36
31
4
27
0
32
10
40
0
0
0
55
14
14
59
16
19
2
53
19
29
21
10
12
4
6
53
53
12
46
4
25
34
33
12
0
4
25
19
12
6
48
0
19
42
2
14
29
4
19
4
14
0
40
2
25
0
0
12
0
0
29
10
38
4
42
59
16
4
40
10
8
25
0
17
8
38
0
21
21
4
27
2
8
21
21
40
57
68
19
4
12
29
2
17
6
12
12
8
10
64
2
29
10
6
12
8
4
51
59
8
16
0
12
17
0
0
4
0
8
10
10
0
8
12
0
0
19
0
0
12
0
2
0
0
44
4
4
0
0
0
23
4
27
0
14
10
0
19
0
23
0
2
12
12
0
2
10
34
14
36
0
17
23
6
4
19
57
80
29
0
2
17
2
51
23
0
6
23
38
33
34
0
12
0
0
6
63
44
34
16
2
0
0
33
0
68
38
14
27
0
23
4
6
2
2
12
14
23
0
0
67
27
6
2
0
44
8
25
6
6
29
0
19
4
2
4
0
21
4
0
0
16
23
0
4
34
12
2
2
8
0
0
0
10
23
0
42
0
0
4
0
0
0
25
53
12
2
84
8
19
2
6
36
4
2
40
0
36
34
6
0
4
0
10
38
6
0
16
0
4
27
68
12
10
6
19
0
42
6
6
10
8
91
46
38
21
0
34
0
0
59
19
4
0
0
10
0
6
12
40
31
0
2
0
10
2
0
8
0
8
40
49
12
4
6
23
19
40
16
55
0
0
8
4
12
40
36
31
42
12
74
48
34
31
8
25
4
21
40
4
12
27
4
16
31
0
2
38
12
4
0
10
12
21
4
10
0
0
50
6
50
40
2
2
4
6
34
2
2
0
14
0
6
38
27
4
12
32
14
17
19
12
19
14
42
8
0
8
19
2
19
0
0
10
21
0
4
8
2
51
44
2
4
49
8
14
4
8
2
0
0
8
31
14
33
25
42
42
8
2
6
17
0
10
34
0
25
19
17
8
4
14
16
0
16
14
34
57
36
4
8
0
44
42
10
44
0
31
53
0
0
29
0
53
0
0
0
2
2
0
12
8
42
14
27
0
25
8
6
44
4
33
